<?xml version="1.0" encoding="UTF-8" standalone="no"?>
<svg
   xmlns:dc="http://purl.org/dc/elements/1.1/"
   xmlns:cc="http://creativecommons.org/ns#"
   xmlns:rdf="http://www.w3.org/1999/02/22-rdf-syntax-ns#"
   xmlns:svg="http://www.w3.org/2000/svg"
   xmlns="http://www.w3.org/2000/svg"

   viewBox="70 333 555 1"
   height="485"
   width="600"
   xml:space="preserve"
   id="svg2"
   version="1.1"><metadata
     id="metadata8"><rdf:RDF><cc:Work
         rdf:about=""><dc:format>image/svg+xml</dc:format><dc:type
           rdf:resource="http://purl.org/dc/dcmitype/StillImage" /></cc:Work></rdf:RDF></metadata><defs
     id="defs6"><clipPath
       id="clipPath102"
       clipPathUnits="userSpaceOnUse"><path
         id="path100"
         d="m 2515.67,3171.67 c 0,0 26.74,50.24 141.72,-24.68 114.97,-74.92 215.24,-43.58 215.24,-43.58 L 2835.2,3025 2662.73,2978.49 Z" /></clipPath><linearGradient
       id="linearGradient108"
       spreadMethod="pad"
       gradientTransform="matrix(-19.608,133.691,133.691,19.608,2711.21,3021.21)"
       gradientUnits="userSpaceOnUse"
       y2="0"
       x2="1"
       y1="0"
       x1="0"><stop
         id="stop104"
         offset="0"
         style="stop-opacity:1;stop-color:#359de6" /><stop
         id="stop106"
         offset="1"
         style="stop-opacity:1;stop-color:#49b8ef" /></linearGradient><clipPath
       id="clipPath160"
       clipPathUnits="userSpaceOnUse"><path
         id="path158"
         d="m 4023.71,3025.01 c 0,0 -10.27,-20 -31.44,-50.59 -34.88,-50.48 -99.26,-129.95 -195.83,-196.47 -152.09,-104.92 -286.96,-24.49 -292.09,-21.39 l -0.11,0.11 c -2.14,-42.89 1.92,-91.88 8.88,-139.47 15.83,-110.7 46.2,-213.59 46.2,-213.59 0,0 -194.22,-121.17 -356.48,-89.09 -162.24,32.09 -222.77,169.31 -222.77,169.31 95.83,95.94 76.46,316.9 67.91,384.92 v 0.11 c -1.6,12.73 -2.89,20.1 -2.89,20.1 l -0.74,-0.21 c -122.68,-31.55 -230.39,39.79 -230.39,39.79 10.7,4.28 21.93,9.62 33.7,15.83 99.25,52.94 226.2,167.92 226.2,167.92 32.84,-6.74 49.52,4.7 93.58,22.35 v 0.1 c 1.72,0.65 3.43,1.29 5.25,2.04 18.82,7.38 42.46,15.82 74.01,24.38 27.27,7.38 52.29,3.85 75.4,-2.14 14.86,-3.85 28.98,-8.56 42.35,-11.98 89.52,-23.21 126.18,-70.41 183.53,-136.25 82.67,-94.92 125.46,-108.03 125.46,-108.03 l 235.61,193.16 39.79,28.34 z" /></clipPath><linearGradient
       id="linearGradient166"
       spreadMethod="pad"
       gradientTransform="matrix(136.364,794.122,794.122,-136.364,3312.1,2355.2)"
       gradientUnits="userSpaceOnUse"
       y2="0"
       x2="1"
       y1="0"
       x1="0"><stop
         id="stop162"
         offset="0"
         style="stop-opacity:1;stop-color:#359de6" /><stop
         id="stop164"
         offset="1"
         style="stop-opacity:1;stop-color:#49b8ef" /></linearGradient><clipPath
       id="clipPath204"
       clipPathUnits="userSpaceOnUse"><path
         id="path202"
         d="m 1190.42,2254.66 c -24.55,0 -45.97,12.78 -58.07,31.95 -7.7,11.97 -11.65,26.42 -10.48,41.82 0.86,11.01 1.61,21.71 2.25,32.2 2.85,46.77 4.13,88.2 4.13,125.48 0,-37.28 -1.28,-78.71 -4.13,-125.48 146.52,45.44 258.93,161.6 329.84,287.16 l -325.99,-130.06 v -1.92 0 1.92 c -0.09,4.63 -0.19,9.19 -0.31,13.68 l 123.22,94.8 c 78.39,3.8 190.7,19.94 329.18,68.75 -3.11,15.82 -5.89,31.01 -8.35,45.56 -47.74,-15.8 -136.5,-41.45 -243.42,-54.76 l 65.79,50.61 -177.23,-49.33 c -5.72,13.41 -11.54,26.34 -17.31,39.17 82.98,0.72 216.13,11.58 348.53,63 5.76,-7.1 12.1,-13.8 19.04,-19.82 v 0 0 c -1.38,9.2 -2.56,17.87 -3.63,25.99 v 0 0 c -3,22.03 -4.92,40.22 -6.1,52.62 v 0 c -0.85,9.41 -1.39,15.62 -1.5,17.97 l -59.78,38.5 c 0,0 6.37,-33.27 23.82,-69.8 -63.45,-21.08 -183.01,-53.92 -311.46,-53.92 -10.86,0 -21.79,0.23 -32.75,0.73 -17.51,44.1 -32.02,93.21 -37.94,161.36 l -39.42,-158.94 -37.55,229.26 c 0,0 90.87,103.74 224.76,137.52 25.1,6.34 51.71,10.21 79.52,10.48 0.88,0.01 1.79,0.02 2.67,0.02 45.66,0 94.52,-12 141.81,-29.73 115.81,-43.44 222.24,-121.38 249.74,-142.32 4.47,-3.4 6.85,-5.3 6.85,-5.3 l 139,-88.21 0.02,-0.01 -0.01,-0.01 h 0.02 0.01 l 133.69,21.39 c 0,0 11.04,-80.52 18.82,-171.53 -17.68,-3.47 -57.17,-9.78 -110.14,-9.78 -81.43,0 -194.76,14.91 -309.98,77.98 -27.3,14.95 -54.69,32.59 -81.8,53.38 l 0.1,-1.07 c 0.11,-2.35 0.65,-8.56 1.5,-17.97 1.18,-12.4 3.1,-30.59 6.1,-52.62 0.18,-1.39 0.37,-2.81 0.56,-4.24 0.92,-6.88 1.93,-14.13 3.07,-21.75 1.4,-9.19 2.89,-18.82 4.6,-28.87 2.46,-14.55 5.24,-29.74 8.35,-45.56 14.11,-70.81 35.72,-152.73 68.55,-223.43 12.09,-25.99 6.1,-56.58 -14.11,-76.79 -49.74,-49.84 -170.06,-127.81 -440.86,-140 -1.08,-0.05 -2.15,-0.08 -3.22,-0.08" /></clipPath><linearGradient
       id="linearGradient210"
       spreadMethod="pad"
       gradientTransform="matrix(-42.7807,937.61,937.61,42.7807,1590.4,2310.34)"
       gradientUnits="userSpaceOnUse"
       y2="0"
       x2="1"
       y1="0"
       x1="0"><stop
         id="stop206"
         offset="0"
         style="stop-opacity:1;stop-color:#ca2a73" /><stop
         id="stop208"
         offset="1"
         style="stop-opacity:1;stop-color:#dd4368" /></linearGradient><clipPath
       id="clipPath226"
       clipPathUnits="userSpaceOnUse"><path
         id="path224"
         d="m 1127.66,2531.41 c -1.44,52.89 -5.46,96.99 -10.38,136.92 l -18.93,115.57 39.42,158.94 c 5.92,-68.15 20.43,-117.26 37.94,-161.36 -19.63,0.89 -39.38,2.62 -59.08,5.35 l -1.49,-57.54 c 0,0 28.53,-3.12 75.18,-3.12 3,0 6.07,0.01 9.22,0.04 5.77,-12.83 11.59,-25.76 17.31,-39.17 l 177.23,49.33 -65.79,-50.61 c -42.49,-5.29 -87.83,-8.63 -134.61,-8.63 -22.75,0 -45.87,0.79 -69.13,2.53 l 0.53,-48.13 c 0,0 30.47,-6.3 86.63,-6.3 11.91,0 24.99,0.29 39.17,0.98 l -123.22,-94.8" /></clipPath><linearGradient
       id="linearGradient232"
       spreadMethod="pad"
       gradientTransform="matrix(-42.7807,937.61,937.61,42.7807,1590.4,2310.34)"
       gradientUnits="userSpaceOnUse"
       y2="0"
       x2="1"
       y1="0"
       x1="0"><stop
         id="stop228"
         offset="0"
         style="stop-opacity:1;stop-color:#b8276b" /><stop
         id="stop230"
         offset="1"
         style="stop-opacity:1;stop-color:#be2f67" /></linearGradient><clipPath
       id="clipPath246"
       clipPathUnits="userSpaceOnUse"><path
         id="path244"
         d="m 1567.11,2769.39 c -6.94,6.02 -13.28,12.72 -19.04,19.82 5.14,2 10.27,4.05 15.41,6.17 v 0 c 1.07,-8.12 2.25,-16.79 3.63,-25.99 m -47.19,65.28 c -17.45,36.53 -23.82,69.8 -23.82,69.8 l 59.78,-38.5 c 0.11,-2.35 0.65,-8.56 1.5,-17.97 -8.07,-3.1 -20.84,-7.81 -37.46,-13.33" /></clipPath><linearGradient
       id="linearGradient252"
       spreadMethod="pad"
       gradientTransform="matrix(-42.7807,937.61,937.61,42.7807,1590.4,2310.34)"
       gradientUnits="userSpaceOnUse"
       y2="0"
       x2="1"
       y1="0"
       x1="0"><stop
         id="stop248"
         offset="0"
         style="stop-opacity:1;stop-color:#b8276b" /><stop
         id="stop250"
         offset="1"
         style="stop-opacity:1;stop-color:#be2f67" /></linearGradient><clipPath
       id="clipPath264"
       clipPathUnits="userSpaceOnUse"><path
         id="path262"
         d="m 1124.12,2360.63 c 2.85,46.77 4.13,88.2 4.13,125.48 0,10.2 -0.1,20.1 -0.28,29.7 v 1.92 l 325.99,130.06 c -70.91,-125.56 -183.32,-241.72 -329.84,-287.16" /></clipPath><linearGradient
       id="linearGradient270"
       spreadMethod="pad"
       gradientTransform="matrix(-42.7807,937.61,937.61,42.7807,1590.4,2310.34)"
       gradientUnits="userSpaceOnUse"
       y2="0"
       x2="1"
       y1="0"
       x1="0"><stop
         id="stop266"
         offset="0"
         style="stop-opacity:1;stop-color:#b8276b" /><stop
         id="stop268"
         offset="1"
         style="stop-opacity:1;stop-color:#be2f67" /></linearGradient><clipPath
       id="clipPath282"
       clipPathUnits="userSpaceOnUse"><path
         id="path280"
         d="m 1453.96,2647.82 -52.7,92.25 -228.77,-117.98 c -23.13,105.06 -30.53,240.41 -17.98,359.35 0,0 -6.25,21.91 -10.17,30.36 -17.57,37.75 -90.96,29.95 -126.89,-64.07 -76.649,-200.55 -13.26,-463.67 107.1,-485.51 135.03,-24.51 329.41,185.6 329.41,185.6 z" /></clipPath><linearGradient
       id="linearGradient288"
       spreadMethod="pad"
       gradientTransform="matrix(-42.9893,942.183,942.183,42.9893,1237.52,2290.61)"
       gradientUnits="userSpaceOnUse"
       y2="0"
       x2="1"
       y1="0"
       x1="0"><stop
         id="stop284"
         offset="0"
         style="stop-opacity:1;stop-color:#ca2a73" /><stop
         id="stop286"
         offset="1"
         style="stop-opacity:1;stop-color:#dd4368" /></linearGradient><clipPath
       id="clipPath298"
       clipPathUnits="userSpaceOnUse"><path
         id="path296"
         d="m 2265.38,2323.02 c -87.08,0 -158.33,17.77 -195.91,29.52 -18.54,5.79 -28.87,10.12 -28.87,10.12 l 0.96,2.35 22.24,54.65 c 0,0 -49.94,23.21 -12.51,78.4 9.07,13.39 13.01,44.89 13.79,84.92 0.13,7.06 0.17,14.37 0.12,21.91 -0.29,43.15 -3.45,93.28 -7.5,140.57 -7.78,91.01 -18.82,171.53 -18.82,171.53 l -133.69,-21.39 v 0 l 133.66,21.39 12.47,82.89 -146.14,-104.27 -51.75,140.85 v 0 c 0,0 7.89,6.97 21.99,18.6 6.29,5.19 13.8,11.3 22.41,18.14 26.37,20.95 62.92,48.68 105.33,77.26 10.89,7.34 22.89,13.37 35.55,18.31 3.32,1.29 6.67,2.51 10.07,3.66 39.98,13.5 85.14,17.18 122.45,17.18 9.26,0 18.05,-0.22 26.15,-0.58 1.27,-58.09 14.5,-202.81 114.5,-202.83 4.76,0 9.69,0.33 14.85,1.01 125.22,16.47 43.82,169.39 43.82,169.39 l -95.25,30.9 c 19.77,1.94 38.74,2.81 56.95,2.81 33.82,0 64.97,-3.01 93.53,-7.77 9.82,-1.63 19.32,-3.48 28.53,-5.47 76.6,-16.64 132.29,-44.12 169.18,-53.34 64.17,-16.04 130.15,-34.55 130.15,-34.55 l -33.89,-232.83 -86.43,12.4 c -49.94,31.13 -90.37,119.58 -90.37,119.58 v -119.58 0 c -4.28,-153.05 37.75,-219.15 37.75,-219.15 0,0 48.13,-33.9 48.13,-53.47 0,-9.3 -2.03,-18.18 -4.06,-25.03 v 0 l -0.11,-0.1 c 0,0 -38.61,-78.29 -211.44,-117.43 0,0 131.01,0 226.53,67.26 -7.49,11.13 -14.88,24.18 -19.8,37.87 v 0 c 4.92,-13.69 12.31,-26.74 19.8,-37.87 v 0 0 c 14,-20.85 28.34,-35.19 28.34,-35.19 -8.51,-8.23 -17.07,-16.06 -25.69,-23.53 -40.92,-35.45 -83.1,-62.53 -125.19,-82.92 -88.11,-42.69 -175.97,-56.17 -251.83,-56.17 m -201.58,96.64 -22.24,-54.65 c 0.1,0 0.18,0 0.28,0 62.18,0 132.34,35.08 132.34,35.08 l -110.38,19.57 m 117.65,502.67 c 0,0 30.3,-295.89 14.26,-401.07 0,0 55.24,-20.82 130.89,-20.82 53.41,0 116.99,10.37 178.53,45.78 0,0 -49.17,258.47 -58.08,386.81 0,0 -43.46,-28.06 -133.59,-28.06 -36.35,0 -80.28,4.56 -132.01,17.36" /></clipPath><linearGradient
       id="linearGradient304"
       spreadMethod="pad"
       gradientTransform="matrix(-146.168,770.058,770.058,146.168,2404.11,2532.96)"
       gradientUnits="userSpaceOnUse"
       y2="0"
       x2="1"
       y1="0"
       x1="0"><stop
         id="stop300"
         offset="0"
         style="stop-opacity:1;stop-color:#f79239" /><stop
         id="stop302"
         offset="1"
         style="stop-opacity:1;stop-color:#f7c759" /></linearGradient><clipPath
       id="clipPath314"
       clipPathUnits="userSpaceOnUse"><path
         id="path312"
         d="m 2326.6,2500.44 c -75.65,0 -130.89,20.82 -130.89,20.82 16.04,105.18 -14.26,401.07 -14.26,401.07 51.73,-12.8 95.66,-17.36 132.01,-17.36 90.13,0 133.59,28.06 133.59,28.06 8.91,-128.34 58.08,-386.81 58.08,-386.81 -61.54,-35.41 -125.12,-45.78 -178.53,-45.78" /></clipPath><linearGradient
       id="linearGradient320"
       spreadMethod="pad"
       gradientTransform="matrix(-146.168,770.058,770.058,146.168,2404.11,2532.96)"
       gradientUnits="userSpaceOnUse"
       y2="0"
       x2="1"
       y1="0"
       x1="0"><stop
         id="stop316"
         offset="0"
         style="stop-opacity:1;stop-color:#f5b64b" /><stop
         id="stop318"
         offset="1"
         style="stop-opacity:1;stop-color:#f5cf5a" /></linearGradient><clipPath
       id="clipPath332"
       clipPathUnits="userSpaceOnUse"><path
         id="path330"
         d="m 1905.16,2895.6 0.01,0.01 0.01,-0.01 h -0.02" /></clipPath><linearGradient
       id="linearGradient338"
       spreadMethod="pad"
       gradientTransform="matrix(-42.7807,937.61,937.61,42.7807,1590.4,2310.34)"
       gradientUnits="userSpaceOnUse"
       y2="0"
       x2="1"
       y1="0"
       x1="0"><stop
         id="stop334"
         offset="0"
         style="stop-opacity:1;stop-color:#e04656" /><stop
         id="stop336"
         offset="1"
         style="stop-opacity:1;stop-color:#ea5251" /></linearGradient><clipPath
       id="clipPath348"
       clipPathUnits="userSpaceOnUse"><path
         id="path346"
         d="m 1905.19,2895.6 -0.01,0.01 146.14,104.27 -12.47,-82.89 -133.66,-21.39" /></clipPath><linearGradient
       id="linearGradient354"
       spreadMethod="pad"
       gradientTransform="matrix(-146.168,770.058,770.058,146.168,2404.11,2532.96)"
       gradientUnits="userSpaceOnUse"
       y2="0"
       x2="1"
       y1="0"
       x1="0"><stop
         id="stop350"
         offset="0"
         style="stop-opacity:1;stop-color:#f6793a" /><stop
         id="stop352"
         offset="1"
         style="stop-opacity:1;stop-color:#f69449" /></linearGradient><clipPath
       id="clipPath364"
       clipPathUnits="userSpaceOnUse"><path
         id="path362"
         d="m 2633.32,2868.75 -89.94,12.94 c -0.22,-4.38 -0.32,-8.66 -0.43,-12.94 v 119.58 c 0,0 40.43,-88.45 90.37,-119.58" /></clipPath><linearGradient
       id="linearGradient370"
       spreadMethod="pad"
       gradientTransform="matrix(-146.168,770.058,770.058,146.168,2404.11,2532.96)"
       gradientUnits="userSpaceOnUse"
       y2="0"
       x2="1"
       y1="0"
       x1="0"><stop
         id="stop366"
         offset="0"
         style="stop-opacity:1;stop-color:#f6793a" /><stop
         id="stop368"
         offset="1"
         style="stop-opacity:1;stop-color:#f69449" /></linearGradient><clipPath
       id="clipPath380"
       clipPathUnits="userSpaceOnUse"><path
         id="path378"
         d="m 2413.22,2453.57 c 172.83,39.14 211.44,117.43 211.44,117.43 l 0.11,0.1 c -2.36,-7.48 -4.82,-12.4 -4.82,-12.4 v 0 0 c 4.92,-13.69 12.31,-26.74 19.8,-37.87 -95.52,-67.26 -226.53,-67.26 -226.53,-67.26" /></clipPath><linearGradient
       id="linearGradient386"
       spreadMethod="pad"
       gradientTransform="matrix(-146.168,770.058,770.058,146.168,2404.11,2532.96)"
       gradientUnits="userSpaceOnUse"
       y2="0"
       x2="1"
       y1="0"
       x1="0"><stop
         id="stop382"
         offset="0"
         style="stop-opacity:1;stop-color:#f6793a" /><stop
         id="stop384"
         offset="1"
         style="stop-opacity:1;stop-color:#f69449" /></linearGradient><clipPath
       id="clipPath396"
       clipPathUnits="userSpaceOnUse"><path
         id="path394"
         d="m 2041.84,2365.01 c -0.1,0 -0.18,0 -0.28,0 l 22.24,54.65 110.38,-19.57 c 0,0 -70.16,-35.08 -132.34,-35.08" /></clipPath><linearGradient
       id="linearGradient402"
       spreadMethod="pad"
       gradientTransform="matrix(-146.168,770.058,770.058,146.168,2404.11,2532.96)"
       gradientUnits="userSpaceOnUse"
       y2="0"
       x2="1"
       y1="0"
       x1="0"><stop
         id="stop398"
         offset="0"
         style="stop-opacity:1;stop-color:#f6793a" /><stop
         id="stop400"
         offset="1"
         style="stop-opacity:1;stop-color:#f69449" /></linearGradient><clipPath
       id="clipPath414"
       clipPathUnits="userSpaceOnUse"><path
         id="path412"
         d="m 2311.88,2986.2 c -100,0.02 -113.23,144.74 -114.5,202.83 30.85,-1.37 51.77,-4.66 51.77,-4.66 8.86,1.25 17.59,2.29 26.15,3.13 l 95.25,-30.9 c 0,0 81.4,-152.92 -43.82,-169.39 -5.16,-0.68 -10.09,-1.01 -14.85,-1.01" /></clipPath><linearGradient
       id="linearGradient420"
       spreadMethod="pad"
       gradientTransform="matrix(-146.168,770.058,770.058,146.168,2404.11,2532.96)"
       gradientUnits="userSpaceOnUse"
       y2="0"
       x2="1"
       y1="0"
       x1="0"><stop
         id="stop416"
         offset="0"
         style="stop-opacity:1;stop-color:#f6793a" /><stop
         id="stop418"
         offset="1"
         style="stop-opacity:1;stop-color:#f69449" /></linearGradient><clipPath
       id="clipPath430"
       clipPathUnits="userSpaceOnUse"><path
         id="path428"
         d="m 2219.53,3156.6 c 0,0 -74.62,50.8 -105.81,141.71 -31.2,90.91 26.73,105.17 26.73,105.17 0,0 -38.32,23.17 -30.3,37.43 8.02,14.26 31.19,0 31.19,0 0,0 32.09,74.87 70.41,89.13 38.33,14.26 11.59,-41.89 11.59,-41.89 0,0 51.69,47.24 112.3,25.84 60.61,-21.39 79.07,-60.1 122.1,-82.88 30.31,-16.05 29.42,-54.37 -57.93,-38.33 0,0 54.84,-8.24 60.19,-25.18 5.35,-16.93 -106.53,-23.12 -106.53,-23.12 z" /></clipPath><linearGradient
       id="linearGradient436"
       spreadMethod="pad"
       gradientTransform="matrix(371.282,0,0,-371.282,2104.49,3344.48)"
       gradientUnits="userSpaceOnUse"
       y2="0"
       x2="1"
       y1="0"
       x1="0"><stop
         id="stop432"
         offset="0"
         style="stop-opacity:1;stop-color:#3f2323" /><stop
         id="stop434"
         offset="1"
         style="stop-opacity:1;stop-color:#5e3434" /></linearGradient><clipPath
       id="clipPath454"
       clipPathUnits="userSpaceOnUse"><path
         id="path452"
         d="m 1436.49,3318.7 c 0,0 65.64,13.98 74.76,81.45 5.22,38.59 -41.33,7.9 -41.33,7.9 0,0 26.14,40.11 10.33,85.7 -15.8,45.59 -27.96,32.82 -59.56,0 -31.61,-32.82 -70.51,-26.13 -70.51,-26.13 0,0 17.02,15.19 11.55,31.6 -5.47,16.41 -66.25,-20.67 -119.13,-27.35 -52.88,-6.68 -128.64,-58.25 -90.95,-153.74 0,0 -43.7,-97.25 116.92,-196.65 160.63,-99.39 167.92,197.22 167.92,197.22 z" /></clipPath><linearGradient
       id="linearGradient460"
       spreadMethod="pad"
       gradientTransform="matrix(-12.4778,278.076,278.076,12.4778,1336.21,3171.05)"
       gradientUnits="userSpaceOnUse"
       y2="0"
       x2="1"
       y1="0"
       x1="0"><stop
         id="stop456"
         offset="0"
         style="stop-opacity:1;stop-color:#1b3151" /><stop
         id="stop458"
         offset="1"
         style="stop-opacity:1;stop-color:#23406d" /></linearGradient><clipPath
       id="clipPath476"
       clipPathUnits="userSpaceOnUse"><path
         id="path474"
         d="m 3316.62,3190.3 c 0,0 92.11,122.41 30.62,215.99 0,0 27.6,16.05 21.15,29.42 -6.46,13.37 -46.55,0 -46.55,0 0,0 -15.4,98.93 -99.29,104.28 -83.88,5.34 -62.48,-21.4 -62.48,-21.4 0,0 -25.4,2.68 -86.91,-22.72 -61.49,-25.4 -101.6,-110.97 -61.49,-105.62 0,0 -39.12,-88.45 54.64,-144.49 z" /></clipPath><linearGradient
       id="linearGradient482"
       spreadMethod="pad"
       gradientTransform="matrix(-191.105,339.742,339.742,191.105,3276.5,3215.94)"
       gradientUnits="userSpaceOnUse"
       y2="0"
       x2="1"
       y1="0"
       x1="0"><stop
         id="stop478"
         offset="0"
         style="stop-opacity:1;stop-color:#382e2c" /><stop
         id="stop480"
         offset="1"
         style="stop-opacity:1;stop-color:#534143" /></linearGradient></defs><g
     transform="matrix(1.3333333,0,0,-1.3333333,0,666.66667)"
     id="g10"><g
       transform="scale(0.1)"
       id="g12"><path
         id="path14"
         style="fill:#ffffff;fill-opacity:1;fill-rule:nonzero;stroke:none"
         d="M 0,0 H 5000 V 5000 H 0 Z" /><path
         id="path16"
         style="fill:#abdaf7;fill-opacity:1;fill-rule:nonzero;stroke:none"
         d="m 3341.89,1337.62 c -2.04,-0.85 -4.18,-1.6 -6.21,-2.25 -62.67,-23.09 -130.8,-22.25 -191.66,-9.94 -81.71,16.46 -150.48,53.8 -175.5,82.03 -11.99,13.37 -14.13,24.71 -3.43,30.91 51.01,29.41 399.04,9.84 399.04,9.84 11.12,-0.43 21.82,-1.29 31.77,-2.46 79.14,-9.52 112.19,-42.35 -54.01,-108.13" /><path
         id="path18"
         style="fill:#abdaf7;fill-opacity:1;fill-rule:nonzero;stroke:none"
         d="m 4390.13,1178.48 c -26.53,-34.55 -325.03,-39.47 -446.32,-44.28 -121.39,-4.71 -155.29,-62.35 -223.63,-95.08 -68.34,-32.73 -499.9,-53.159 -923.65,-62.46 -358.18,-7.699 -222.89,-49.738 -67.91,-60.43 154.87,-10.699 214.01,-56.261 71.13,-65.351 -133.48,-8.559 -671.99,-16.789 -864.29,-2.777 -192.3,14.007 -189.73,138.5 -352.62,147.488 -162.89,9.09 -609.738,32.3 -799.793,66.52 -216.578,38.94 -79.461,79.57 290.483,123.64 100.32,11.87 172.51,23.74 218.72,34.22 78.61,17.75 81.82,31.98 19.57,36.8 -86.1,6.74 -129.41,37.86 -17.54,56.46 16.47,2.68 36.47,5.14 60.1,7.28 78.19,6.84 219.79,12.4 356.59,16.47 41.28,1.17 82.14,2.36 120.74,3.31 64.07,1.71 121.61,2.89 164.39,3.74 46.63,0.97 75.51,1.51 75.51,1.51 171.76,5.88 112.3,55.83 372.62,59.35 96.37,1.29 180.75,3 254.33,1.29 89.42,-2.14 163,-9.3 222.79,-28.24 24.17,-7.7 46.09,-17.32 65.98,-29.31 57.44,-34.65 188.03,-49.62 331.45,-57.43 129.63,-7.06 269.84,-8.23 376.26,-13.05 304.49,-13.58 739.9,-41.38 695.09,-99.67" /><path
         id="path20"
         style="fill:#81c2f1;fill-opacity:1;fill-rule:nonzero;stroke:none"
         d="m 2263.93,1061.16 c -192.73,0 -348.97,32.63 -348.97,72.88 0,36.27 126.95,66.35 293.14,71.93 -0.64,1.96 -1.06,3.94 -1.06,5.94 0,7.13 4.07,14.03 11.71,20.58 h 124.54 l 1.94,42.65 c 54.56,9.22 121.54,14.66 193.93,14.66 183.44,0 332.13,-34.88 332.13,-77.89 0,-37.08 -110.59,-68.09 -258.62,-75.93 l 0.23,-1.94 c 0,-40.25 -156.24,-72.88 -348.97,-72.88" /><path
         id="path22"
         style="fill:#81c2f1;fill-opacity:1;fill-rule:nonzero;stroke:none"
         d="m 1559.52,1096.12 c -147.06,0 -266.2,31.34 -266.2,69.85 0,17.21 23.74,32.94 63.1,45.12 -23,2.46 -44.49,5.46 -64.17,8.88 42.53,9.61 62.99,18.18 62.95,24.79 -0.03,5.6 -14.81,9.8 -43.38,12.01 -49.44,3.87 -84.77,15.78 -84.71,28.74 0.04,9.61 19.54,19.8 67.17,27.72 16.47,2.68 36.47,5.14 60.1,7.28 78.19,6.84 219.79,12.4 356.59,16.47 72.62,-13.8 118.82,-34.44 118.82,-57.64 0,-22.68 -44.28,-43 -114.33,-56.8 66.84,-12.62 110.38,-33.26 110.38,-56.57 0,-38.51 -119.26,-69.85 -266.32,-69.85" /><path
         id="path24"
         style="fill:#81c2f1;fill-opacity:1;fill-rule:nonzero;stroke:none"
         d="m 3249.61,1114.83 c -157.13,0 -284.51,27.09 -284.51,60.5 0,33.41 127.38,60.5 284.51,60.5 157.12,0 284.5,-27.09 284.5,-60.5 0,-33.41 -127.38,-60.5 -284.5,-60.5" /><path
         id="path26"
         style="fill:#81c2f1;fill-opacity:1;fill-rule:nonzero;stroke:none"
         d="m 3144.02,1325.43 v 0 c -81.71,16.46 -150.48,53.8 -175.5,82.03 35.93,12.09 92.18,19.89 155.4,19.89 108.55,0 196.58,-22.89 196.58,-51.12 0,-26.42 -77.34,-48.12 -176.48,-50.8" /><path
         id="path28"
         style="fill:#abdaf7;fill-opacity:1;fill-rule:nonzero;stroke:none"
         d="m 1681.04,908.391 c -37.35,27.968 -103.39,28.519 -224.6,33.871 -121.22,5.347 -336.9,-28.524 -240.64,-57.051 92.63,-27.441 595.65,-74.461 465.24,23.18" /><path
         id="path30"
         style="fill:#abdaf7;fill-opacity:1;fill-rule:nonzero;stroke:none"
         d="m 1161.89,963.898 c 6.43,-0.789 -2.68,-43.437 -65.07,-47.566 -62.39,-4.121 -151.5,74.297 65.07,47.566" /><path
         id="path32"
         style="fill:#abdaf7;fill-opacity:1;fill-rule:nonzero;stroke:none"
         d="m 3094.11,895.59 c -39.39,7.25 -94.47,17.82 -124.77,-17.828 -30.31,-35.653 110.51,-30.891 155.07,-27.043 44.56,3.871 24.91,34.703 -30.3,44.871" /><path
         id="path34"
         style="fill:#70b2dd;fill-opacity:1;fill-rule:nonzero;stroke:none"
         d="m 3870.41,1182.58 c 0,0 13.37,129.23 -34.77,212.19 0,0 44.57,-31.26 62.4,-186.35 0,0 -5.35,196.9 48.12,232.62 0,0 -32.97,-16.04 -26.74,-258.46 h -49.01" /><path
         id="path36"
         style="fill:#70b2dd;fill-opacity:1;fill-rule:nonzero;stroke:none"
         d="m 4122.64,1216.45 c 0,0 -9.36,235.29 70.86,244.64 0,0 -68.19,-20.05 -48.58,-244.64 h -22.28" /><path
         id="path38"
         style="fill:#70b2dd;fill-opacity:1;fill-rule:nonzero;stroke:none"
         d="m 960.41,1111.27 c 0,0 15.82,188.73 -21.39,225.71 0,0 40.55,-8.24 42.781,-181.14 0,0 8.469,164.22 59.269,174.91 0,0 -48.132,-40.55 -37.43,-219.48 h -43.23" /><path
         id="path40"
         style="fill:#70b2dd;fill-opacity:1;fill-rule:nonzero;stroke:none"
         d="m 1839.2,967.781 c 0,0 2.68,81.589 -27.18,96.819 0,0 28.97,0 40.1,-63.33 0,0 -4.45,126.04 23.18,154.05 0,0 -17.38,-17.05 -7.58,-161.359 l 2.23,-26.18 h -30.75" /><path
         id="path42"
         style="fill:#70b2dd;fill-opacity:1;fill-rule:nonzero;stroke:none"
         d="m 1903.37,967.781 c 0,0 3.37,123.799 30.31,128.359 0,0 -23.01,-8.81 -15.15,-128.359 h -15.16" /><path
         id="path44"
         style="fill:#e6f5fc;fill-opacity:1;fill-rule:nonzero;stroke:none"
         d="m 4239.43,2726.61 c 0.22,-22.99 -0.1,-45.45 -0.96,-67.27 -9.42,-252.3 -132.94,-485.14 -357.76,-567.59 -6.74,-2.46 -13.47,-4.82 -20.43,-6.97 -53.69,-17.1 -112.83,-25.87 -177.21,-24.58 h -0.11 c -8.77,0.21 -17.54,0.52 -26.42,1.06 -60.75,3.64 -125.89,16.04 -195.51,38.29 -82.99,26.63 -146.64,55.29 -201.28,80.32 -12.94,5.88 -25.25,11.66 -37.33,17.01 h -0.11 c -153.9,68.98 -249.41,90.9 -574.76,-96.05 -7.38,-4.28 -14.76,-8.55 -22.35,-13.05 h -0.11 c -55.08,-32.18 -116.47,-70.26 -185.56,-114.65 -22.46,-14.44 -45.24,-27.7 -68.24,-39.78 -7.06,-3.75 -14.22,-7.38 -21.39,-10.91 -51.34,-25.14 -103.64,-44.6 -156.47,-58.72 -7.06,-1.82 -14.23,-3.64 -21.39,-5.35 -78.18,-18.71 -157.65,-25.99 -236.9,-23.1 -7.27,0.22 -14.44,0.54 -21.71,0.96 -77.65,4.49 -155.09,18.51 -231.02,40.75 -8.13,2.36 -16.37,4.92 -24.49,7.49 -418.72,132.62 -788.455,511.77 -902.037,909.52 v 0.11 c -5.457,18.93 -10.27,37.86 -14.442,56.9 v 0.1 c -1.386,5.89 -2.671,11.77 -3.847,17.65 -69.524,343.64 -22.676,569.31 105.238,710.7 11.231,12.62 23.207,24.5 35.828,35.51 l 0.11,0.11 c 122.35,109.3 302.57,158.29 518.08,168.77 205.2,9.92 429.13,-69.36 635.76,-148.64 223.39,-85.71 426.57,-171.41 564.03,-144.41 h 0.11 c 11.44,2.14 22.24,5.13 32.61,8.98 24.28,8.88 46,22.25 64.82,40.97 13.37,13.37 27.06,27.48 40.97,42.35 l 0.1,0.1 c 6.2,6.53 12.3,12.95 18.39,19.69 100.75,108.55 216.58,245.45 350.81,337.86 5.45,3.63 10.91,7.38 16.47,10.91 82.57,53.9 171.98,90.26 269.09,92.62 7.28,0.32 14.66,0.32 22.03,0 94.66,-2.57 196.48,-37.75 306,-120.11 30.58,-23 59.46,-47.49 86.95,-73.37 6.31,-5.99 12.51,-11.98 18.71,-18.08 148.46,-146.95 250.92,-334.33 317.01,-527.48 2.79,-8.24 5.56,-16.37 8.13,-24.6 29.73,-91.13 51.44,-183.11 66.1,-272.52 1.49,-8.66 2.77,-17.32 4.06,-25.88 12.3,-81.18 18.72,-160 20.22,-233.37 0.11,-7.49 0.21,-14.87 0.21,-22.25" /><path
         id="path46"
         style="fill:#f6fbfe;fill-opacity:1;fill-rule:nonzero;stroke:none"
         d="m 3855.9,2659.13 c -92.51,0 -167.6,17.75 -230.37,52.94 -204.92,114.86 -271.99,417.54 -373.49,875.83 l -9.2,41.61 c -26.31,118.39 -72.4,222.24 -138.39,311.23 5.45,3.63 10.91,7.38 16.47,10.91 68.24,-91.45 116.26,-197.65 142.89,-317.54 l 9.2,-41.61 c 100.21,-452.62 166.41,-751.66 363,-861.71 59.69,-33.45 131.45,-50.39 220.17,-50.39 102.49,0 227.62,22.6 383.04,68.46 0.11,-7.49 0.21,-14.87 0.21,-22.25 -154.65,-45.24 -280.01,-67.48 -383.53,-67.48" /><path
         id="path48"
         style="fill:#f6fbfe;fill-opacity:1;fill-rule:nonzero;stroke:none"
         d="m 3825.53,2816.35 c -47.6,0 -84.6,10.37 -116.48,31.44 -126.31,83.64 -167.7,342.78 -258.5,910.59 -16.9,105.78 -37.54,200.75 -60.54,285.89 3.64,0.16 7.3,0.24 10.98,0.24 3.68,0 7.36,-0.08 11.05,-0.24 22.57,-84.17 42.89,-177.97 59.58,-282.46 87.06,-544.5 130.8,-817.76 249.2,-896.16 28.28,-18.7 61.65,-27.99 105,-27.99 37.48,0 82.41,6.93 138,20.72 84.48,20.96 170.15,77.22 251.12,149.73 1.49,-8.66 2.77,-17.32 4.06,-25.88 -80.21,-69.74 -165.24,-123.64 -250.05,-144.6 -57.22,-14.23 -103.96,-21.28 -143.42,-21.28" /><path
         id="path50"
         style="fill:#f6fbfe;fill-opacity:1;fill-rule:nonzero;stroke:none"
         d="m 3896.33,3088.32 c -25.68,0 -48.45,9.42 -68.03,28.24 -124.17,118.72 -60.53,540.86 -23.31,734.23 6.31,-5.99 12.51,-11.98 18.71,-18.08 -36.46,-195.61 -93.26,-592.94 19.37,-700.75 15.5,-14.89 32.94,-22.25 53.02,-22.25 4.44,0 9.01,0.36 13.71,1.08 71.56,10.58 157.65,99.67 230.91,194.44 2.79,-8.24 5.56,-16.37 8.13,-24.6 -74.11,-93.59 -160.85,-179.79 -235.94,-191.02 -5.66,-0.85 -11.23,-1.29 -16.57,-1.29" /><path
         id="path52"
         style="fill:#ffffff;fill-opacity:1;fill-rule:nonzero;stroke:none"
         d="m 2735.25,3583.19 c 5.45,14.23 8.02,22.46 8.13,22.79 l 10.26,-3.1 c -6.09,-6.74 -12.19,-13.16 -18.39,-19.69" /><path
         id="path54"
         style="fill:#f6fbfe;fill-opacity:1;fill-rule:nonzero;stroke:none"
         d="m 755.883,2794.1 v 0 c -5.457,18.93 -10.27,37.86 -14.442,56.9 v 0.1 c 12.836,67.28 41.075,125.14 84.387,172.3 90.606,98.62 244.252,148.47 448.182,148.47 141.52,0 307.22,-23.99 493,-72.31 44.73,-11.65 88.34,-20.43 130.82,-26.36 -8.61,-6.84 -16.12,-12.95 -22.41,-18.14 -36.5,5.67 -74.41,13.51 -113.76,23.75 -88.91,23.14 -173.13,40.67 -252.1,52.64 -47.29,17.73 -96.15,29.73 -141.81,29.73 -0.88,0 -1.79,-0.01 -2.67,-0.02 -27.81,-0.27 -54.42,-4.14 -79.52,-10.48 -4.18,0.05 -8.32,0.07 -12.45,0.07 -197.12,0 -344.965,-47.59 -431.563,-141.89 -51.438,-55.94 -80.106,-128.45 -85.664,-214.76 m 1698.427,382.97 c -9.21,1.99 -18.71,3.84 -28.53,5.47 39.94,27.1 77.88,58.84 113.75,95.2 116.47,118.08 175.62,252.62 195.62,305.35 l 0.1,0.1 v 0 c 6.2,6.53 12.3,12.95 18.39,19.69 v 0 l 10.28,-3.21 c -0.65,-1.82 -57.34,-182.78 -208.56,-336.37 -28.82,-29.26 -62.4,-58.77 -101.05,-86.23" /><path
         id="path56"
         style="fill:#ffffff;fill-opacity:1;fill-rule:nonzero;stroke:none"
         d="m 2596.75,3490.79 c 10.69,11.98 15.83,19.68 15.94,19.89 l 16.67,-10.91 c -10.37,-3.85 -21.17,-6.84 -32.61,-8.98" /><path
         id="path58"
         style="fill:#f6fbfe;fill-opacity:1;fill-rule:nonzero;stroke:none"
         d="m 2184.24,3310.45 c -60.6,0 -129.09,6.54 -205.95,22.66 -3.69,8.08 -7.41,16.18 -11.14,24.23 81.63,-18.24 153.78,-25.54 216.98,-25.54 92.73,0 166.18,15.72 222.03,35.67 103.31,36.9 164.06,93.59 190.48,123.32 h 0.11 v 0 c 11.44,2.14 22.24,5.13 32.61,8.98 v 0 l 1.29,-0.85 c -2.67,-3.85 -64.81,-96.58 -215.72,-151.02 -58,-20.91 -134.37,-37.45 -230.69,-37.45 m -218.99,25.47 c -88.34,19.53 -187.41,51.63 -297.92,100.75 -268.59,119.34 -474.33,177.7 -634.68,177.7 -71.873,0 -134.603,-11.72 -189.818,-34.92 11.231,12.62 23.207,24.5 35.828,35.51 l 0.11,0.11 c 46.293,13.72 97.183,20.64 153.3,20.64 163.89,0 372.64,-58.95 643.92,-179.57 102.57,-45.58 195.06,-76.28 277.97,-95.77 3.78,-8.13 7.55,-16.29 11.29,-24.45" /><path
         id="path60"
         style="fill:#f6fbfe;fill-opacity:1;fill-rule:nonzero;stroke:none"
         d="m 1682.41,1876.98 c -8.13,2.36 -16.37,4.92 -24.49,7.49 v 0 c -24.89,92.28 -40.76,192.02 -33.27,287.87 6.93,0.1 14.28,0.27 22.08,0.53 -8.22,-98.27 9.14,-201.31 35.68,-295.89 m 2177.87,207.8 c -25.35,114.23 -73.26,196.48 -144.92,249.53 -72.43,53.55 -165.53,72.67 -264.66,72.67 -113.71,0 -235.35,-25.15 -342.83,-52.35 -38.42,-9.71 -76.64,-13.99 -114.61,-13.99 -118.82,-0.01 -235.35,41.87 -349.45,90.14 l -1.06,23.65 c 117.76,-50.31 232.13,-92.7 348.85,-92.7 36.72,0 73.67,4.19 111.04,13.65 108.81,27.55 231.98,52.94 347.92,52.94 103.31,0 200.88,-20.15 277.53,-76.89 75.4,-55.73 125.99,-141.4 152.62,-259.68 -6.74,-2.46 -13.47,-4.82 -20.43,-6.97 v 0 m -2234.69,98.26 c 13.08,134.88 73.79,261.22 222.49,347.1 74.64,43.06 146.86,66.09 217.12,74.75 0.05,-7.54 0.01,-14.85 -0.12,-21.91 -67,-8.56 -135.63,-30.64 -206.31,-71.45 -139.72,-80.63 -197.8,-199.81 -211.04,-327.94 -7.82,-0.26 -15.2,-0.44 -22.14,-0.55" /><path
         id="path62"
         style="fill:#f6fbfe;fill-opacity:1;fill-rule:nonzero;stroke:none"
         d="m 1935.14,1835.27 c -7.27,0.22 -14.44,0.54 -21.71,0.96 v 0 c -35.19,193.69 -5.13,295.52 32.08,348.57 11.1,15.8 24.1,29.33 38.96,40.53 31.16,8.84 63.04,19.12 95.3,31.05 l 1.6,-14.94 c -51.73,-7.6 -91.47,-30.73 -118.32,-68.95 -35.18,-50.16 -63.21,-147.91 -27.91,-337.22 m 95.18,415.17 c 5.08,1.93 10.3,3.67 15.65,5.23 -5.22,-1.78 -10.46,-3.53 -15.65,-5.23" /><path
         id="path64"
         style="fill:#f6fbfe;fill-opacity:1;fill-rule:nonzero;stroke:none"
         d="m 3682.96,2060.2 c -8.77,0.21 -17.54,0.52 -26.42,1.06 v 0 c -28.02,39.57 -65.13,70.06 -110.91,90.91 -55.12,25.13 -118.81,34.69 -183.8,34.69 -34.02,0 -68.39,-2.62 -102.08,-6.99 v 0 c -12.94,5.88 -25.25,11.66 -37.33,17.01 44.5,7.23 90.93,11.84 136.97,11.84 68.38,0 135.93,-10.18 195.11,-37.08 54.44,-24.81 97.55,-62.15 128.46,-111.44" /><path
         id="path66"
         style="fill:#e6f5fc;fill-opacity:1;fill-rule:nonzero;stroke:none"
         d="m 2588.09,3649.61 c -12.63,-5.03 -33.27,-5.66 -59.05,-2.56 -8.01,0.85 -16.46,2.24 -25.45,3.84 -14.22,2.68 -29.52,6.1 -45.46,10.38 -7.05,1.82 -14.22,3.85 -21.49,6.1 -145.99,43.31 -329.95,142.67 -290.81,228.23 24.93,54.55 154.23,103.75 295.94,132.84 7.17,1.39 14.23,2.77 21.39,4.17 58.93,11.12 119.14,18.72 174.34,21.71 7.48,0.43 14.97,0.75 22.35,1.07 99.68,3.21 178.61,-9.73 195.4,-45.67 49.95,-106.95 -52.95,-274.54 -267.16,-360.11" /><path
         id="path68"
         style="fill:#70b2dd;fill-opacity:1;fill-rule:nonzero;stroke:none"
         d="m 2739.55,2216.22 c -95.17,0 -201.73,26.86 -303.38,110.18 -85.06,69.73 -177.28,299.35 -284.06,565.22 -83.24,207.26 -177.58,442.17 -286.2,646.56 l 9.44,5.01 c 108.89,-204.89 203.35,-440.08 286.69,-647.58 106.23,-264.51 197.97,-492.94 280.92,-560.94 278.58,-228.38 595.26,-23.21 598.43,-21.1 l 5.9,-8.91 c -2.07,-1.39 -136.43,-88.44 -307.74,-88.44" /><path
         id="path70"
         style="fill:#70b2dd;fill-opacity:1;fill-rule:nonzero;stroke:none"
         d="m 4255.55,3629.2 -4.56,9.68 124.27,58.35 4.55,-9.67 -124.26,-58.36" /><path
         id="path72"
         style="fill:#70b2dd;fill-opacity:1;fill-rule:nonzero;stroke:none"
         d="m 3719.11,2348.5 c 72.09,-208.7 253.17,-345.47 426.8,-394.14 113.64,-31.86 212.71,-21.19 246.53,26.53 24.82,34.99 14.44,87.04 -29.97,150.5 -111.87,159.81 -382.09,209.95 -643.36,217.11 z m 548.96,-423.28 c -37.44,0 -79.93,6.19 -125.04,18.83 -177.61,49.79 -362.88,190.28 -435.32,404.73 -306.28,6.87 -596.9,-43.96 -602.32,-44.93 l -1.88,10.52 c 2.53,0.46 256.92,45.57 538.54,46.45 20.9,0.11 41.67,-0.09 61.89,-0.5 -13.75,43.65 -22.85,90.28 -26.32,139.74 -46.26,658.99 283.96,967.99 484.94,1093.54 l 5.65,-9.07 c -198.92,-124.27 -525.8,-430.32 -479.92,-1083.71 3.5,-49.92 12.83,-96.87 26.96,-140.75 337.84,-8.25 558.29,-83 655.97,-222.54 59.7,-85.28 49.24,-135.62 29.95,-162.82 -23.06,-32.54 -71.14,-49.49 -133.1,-49.49" /><path
         id="path74"
         style="fill:#70b2dd;fill-opacity:1;fill-rule:nonzero;stroke:none"
         d="m 1807.52,3642.46 c -152.36,257.4 -304.35,397.02 -464.64,426.8 -120.02,22.29 -246.93,-18.7 -377.376,-121.81 l -6.621,8.39 c 132.957,105.12 262.767,146.86 385.947,123.93 163.51,-30.38 317.87,-171.65 471.91,-431.86 l -9.22,-5.45" /><path
         id="path76"
         style="fill:#70b2dd;fill-opacity:1;fill-rule:nonzero;stroke:none"
         d="m 1527.32,3822.9 c -64.69,87.24 -140.88,136.46 -226.45,146.27 -145.46,16.57 -269.81,-87.29 -271.04,-88.34 l -6.93,8.15 c 1.27,1.09 129.07,108.03 279.19,90.81 88.63,-10.17 167.3,-60.81 233.81,-150.52 l -8.58,-6.37" /><path
         id="path78"
         style="fill:#70b2dd;fill-opacity:1;fill-rule:nonzero;stroke:none"
         d="m 959.109,1705.85 c -1.554,1.09 -38.41,27.7 -63.406,97.3 l 10.067,3.62 c 23.75,-66.15 59.156,-91.95 59.511,-92.19 l -6.172,-8.73" /><path
         id="path80"
         style="fill:#70b2dd;fill-opacity:1;fill-rule:nonzero;stroke:none"
         d="m 629.543,2866.45 c -9.723,0 -18.59,-1.81 -26.434,-5.5 -30.632,-14.43 -45.164,-57.31 -42,-123.97 10.579,-222.82 194.793,-358.64 387.254,-440.03 35.953,182.32 -64.386,388.7 -188.808,501.75 -48.356,43.95 -94.75,67.75 -130.012,67.75 z m 248.5,-990.21 c -14.305,101.33 4.52,225.33 55.937,368.55 4.786,13.33 8.735,26.86 11.899,40.55 -249.899,105 -386.399,260.44 -395.445,451.13 -4.282,90.13 23.804,122.7 48.121,134.15 40.922,19.25 102.211,-4.05 168.199,-64 127.141,-115.55 229.512,-327.08 191.66,-513.87 212.366,-87.6 431.306,-109.8 435.516,-110.19 l -1.01,-10.66 c -2.04,0.2 -206.79,20.27 -411.654,99.19 -8.575,3.31 -17.047,6.68 -25.383,10.09 -3.172,-13.49 -7.113,-26.84 -11.836,-40.01 -50.82,-141.56 -69.473,-263.84 -55.414,-363.43 l -10.59,-1.5" /><path
         id="path82"
         style="fill:#70b2dd;fill-opacity:1;fill-rule:nonzero;stroke:none"
         d="m 1607.22,2172.21 c -32.17,0 -50.87,1.39 -51.88,1.48 l 0.88,10.66 c 5.76,-0.46 579.14,-42.8 944.93,365.44 l 7.96,-7.15 c -304.46,-339.78 -751.06,-370.43 -901.89,-370.43" /><path
         id="path84"
         style="fill:#70b2dd;fill-opacity:1;fill-rule:nonzero;stroke:none"
         d="m 1564.17,2066.59 c -59.54,0 -127.23,3.42 -201.56,12.65 l 1.31,10.61 c 282.47,-35.09 468.47,14.32 470.31,14.83 l 2.82,-10.31 c -1.38,-0.39 -104.34,-27.78 -272.88,-27.78" /><path
         id="path86"
         style="fill:#70b2dd;fill-opacity:1;fill-rule:nonzero;stroke:none"
         d="m 4355.94,1979.93 -9.38,5.12 c 53.17,97.48 -128.65,217.99 -130.49,219.2 l 5.85,8.94 c 7.87,-5.14 191.87,-127.2 134.02,-233.26" /><path
         id="path88"
         style="fill:#abdaf7;fill-opacity:1;fill-rule:nonzero;stroke:none"
         d="m 4607.12,3770.31 c 6.43,13.09 1.74,28.94 -10.65,36.64 -20.41,12.68 -55,25.7 -94.81,5.37 -63.87,-32.6 -121.85,-8.74 -121.85,-8.74 0,0 81.52,-99.04 146.16,-97.17 43.25,1.26 68.9,39.04 81.15,63.9" /><path
         id="path90"
         style="fill:#abdaf7;fill-opacity:1;fill-rule:nonzero;stroke:none"
         d="m 2666.43,4142.39 c -5.77,13.4 -20.87,20.12 -34.77,15.7 -22.9,-7.27 -55.26,-25.13 -65.66,-68.6 -16.69,-69.73 -72.5,-98.32 -72.5,-98.32 0,0 128.25,-2.36 168.81,48.01 27.13,33.71 15.07,77.75 4.12,103.21" /><path
         id="path92"
         style="fill:#abdaf7;fill-opacity:1;fill-rule:nonzero;stroke:none"
         d="m 2009.41,1592.62 c 7.39,12.57 3.89,28.73 -7.9,37.32 -19.41,14.16 -52.94,29.71 -94.15,12.4 -66.11,-27.77 -122.15,0.34 -122.15,0.34 0,0 73.92,-104.83 138.53,-107.76 43.22,-1.96 71.61,33.81 85.67,57.7" /><path
         id="path94"
         style="fill:#abdaf7;fill-opacity:1;fill-rule:nonzero;stroke:none"
         d="m 741.422,3910.14 c 0.266,17.71 14.121,32.26 31.769,33.73 29.079,2.43 73.684,-2.63 105.5,-46.63 51.028,-70.57 126.929,-76.83 126.929,-76.83 0,0 -142.925,-62.03 -211.788,-24.25 -46.074,25.28 -52.926,80.32 -52.41,113.98" /><g
         id="g96"><g
           clip-path="url(#clipPath102)"
           id="g98"><path
             id="path110"
             style="fill:url(#linearGradient108);fill-opacity:1;fill-rule:nonzero;stroke:none"
             d="m 2515.67,3171.67 c 0,0 26.74,50.24 141.72,-24.68 114.97,-74.92 215.24,-43.58 215.24,-43.58 l -37.43,-78.41 -172.47,-46.51 -147.06,193.18" /></g></g><path
         id="path112"
         style="fill:#feb19e;fill-opacity:1;fill-rule:nonzero;stroke:none"
         d="m 1905.16,2895.6 -354.38,-108.52 -50.22,71.98 352.87,177.4 51.73,-140.86" /><path
         id="path114"
         style="fill:#1c4f99;fill-opacity:1;fill-rule:nonzero;stroke:none"
         d="m 3235.35,1360.27 -0.74,-2.15 c -10.23,-30.91 -51.9,-21.65 -130.23,-6.5 -38.01,7.35 -52.4,19.73 -54.58,36.06 -2.4,17.99 9.99,40.98 21.58,67.6 22.02,50.76 32.21,103.47 32.21,103.47 l 109,-21.08 c -12.94,-115.91 32.12,-143.7 22.76,-177.4" /><path
         id="path116"
         style="fill:#d7e3f4;fill-opacity:1;fill-rule:nonzero;stroke:none"
         d="m 3234.61,1358.12 c -10.23,-30.91 -51.9,-21.65 -130.23,-6.5 -38.01,7.35 -52.4,19.73 -54.58,36.06 32.37,29.35 117.37,88.07 184.81,-29.56" /><path
         id="path118"
         style="fill:#1b3151;fill-opacity:1;fill-rule:nonzero;stroke:none"
         d="m 3531.73,2435.7 c 0,0 26.74,-181.81 -98.87,-547.24 -31.7,-92.23 -179.53,-377.89 -179.53,-377.89 l -59.28,854.44 337.68,70.69" /><path
         id="path120"
         style="fill:#2256b2;fill-opacity:1;fill-rule:nonzero;stroke:none"
         d="m 3332.47,1148.2 -0.32,-2.23 c -4.17,-32.31 -46.85,-31.14 -126.63,-31.14 -38.71,0 -55.19,9.42 -60.43,25.03 -5.77,17.22 2.04,42.14 8.35,70.48 11.97,54.02 11.97,107.71 11.97,107.71 h 111.02 c 9.3,-116.26 58.82,-134.97 56.04,-169.85" /><path
         id="path122"
         style="fill:#ffffff;fill-opacity:1;fill-rule:nonzero;stroke:none"
         d="m 3332.15,1145.97 c -4.17,-32.31 -46.85,-31.14 -126.63,-31.14 -38.71,0 -55.19,9.42 -60.43,25.03 26.21,34.98 98.5,108.77 187.06,6.11" /><path
         id="path124"
         style="fill:#23406d;fill-opacity:1;fill-rule:nonzero;stroke:none"
         d="m 3341.88,2336.77 c 0,0 -56.15,-112.3 -61.49,-120.32 -5.35,-8.02 26.74,-898.37 26.74,-898.37 h -179.15 c -64.17,390.41 -120.32,1135.48 -120.32,1135.48 l 334.22,-116.79" /><path
         id="path126"
         style="fill:#3ea9ea;fill-opacity:1;fill-rule:nonzero;stroke:none"
         d="m 2656.07,1174.78 c -0.1,-3 -0.43,-5.89 -0.96,-8.57 -8.06,-37.42 -131.06,-42.67 -144.4,-13.25 -2.03,4.6 -3.31,10.91 -4.05,18.18 -3.5,39.68 9.11,166.45 9.11,166.45 l 120.84,-0.13 c 0,0 21.63,-123.22 19.46,-162.68" /><path
         id="path128"
         style="fill:#d7e3f4;fill-opacity:1;fill-rule:nonzero;stroke:none"
         d="m 2656.07,1174.78 c -0.1,-3 -0.43,-5.89 -0.96,-8.57 -8.06,-37.42 -131.06,-42.67 -144.4,-13.25 -2.03,4.6 -3.31,10.91 -4.05,18.18 5.34,-3.53 15.39,-7.28 26.85,3.19 16.7,15.39 18.74,36.03 57.46,36 39.35,-0.03 49.48,-50.62 65.1,-35.55" /><path
         id="path130"
         style="fill:#f5fafc;fill-opacity:1;fill-rule:nonzero;stroke:none"
         d="m 2616.6,1279.35 -2.44,0.59 c -40.03,20.67 -63.27,1.58 -64.26,0.75 -2.22,-1.9 -5.61,-1.64 -7.53,0.59 -1.92,2.22 -1.69,5.58 0.54,7.5 1.18,1.02 29.41,24.8 76.14,0.66 2.63,-1.34 3.66,-4.57 2.31,-7.19 -0.96,-1.85 -2.82,-2.9 -4.76,-2.9" /><path
         id="path132"
         style="fill:#f5fafc;fill-opacity:1;fill-rule:nonzero;stroke:none"
         d="m 2616.31,1248.58 -2.45,0.6 c -40.03,20.66 -63.27,1.57 -64.25,0.75 -2.23,-1.9 -5.62,-1.64 -7.53,0.58 -1.92,2.22 -1.69,5.58 0.54,7.51 1.18,1.02 29.4,24.8 76.14,0.66 2.63,-1.35 3.66,-4.58 2.29,-7.2 -0.94,-1.84 -2.82,-2.9 -4.74,-2.9" /><path
         id="path134"
         style="fill:#1c4f99;fill-opacity:1;fill-rule:nonzero;stroke:none"
         d="m 2439.57,1779.35 58.17,-461.27 h 153.68 l 21.01,469.22 c 0,0 -16.48,16.55 -34.27,46.93 l -130,222.16 -68.59,-277.04" /><path
         id="path136"
         style="fill:#2256b2;fill-opacity:1;fill-rule:nonzero;stroke:none"
         d="m 2639.75,2520.83 32.66,-723.35 c 1.3,-65.85 -52,-119.78 -117.86,-119.27 -58.13,0.45 -107.11,43.54 -114.98,101.14 l -81.65,640.31 281.83,101.17" /><path
         id="path138"
         style="fill:#3ea9ea;fill-opacity:1;fill-rule:nonzero;stroke:none"
         d="m 2337.07,1083.77 c -0.75,-5.99 -2.57,-10.05 -5.89,-11.65 -25.45,-11.98 -152.41,-14.77 -167.05,0 -2.14,2.13 -3.21,7.16 -3.53,14.33 -2.47,43.1 22.13,162.13 22.13,162.13 h 114.44 c 0,0 45.03,-124.6 39.9,-164.81" /><path
         id="path140"
         style="fill:#ffffff;fill-opacity:1;fill-rule:nonzero;stroke:none"
         d="m 2337.07,1090.77 c -0.75,-7.92 -0.38,-14.87 -3.7,-17 -25.45,-15.83 -154.6,-21.17 -169.24,-1.65 -2.14,2.82 -3.21,12.7 -3.53,22.19 17.64,20.64 48.66,48.22 88.34,48.22 38.72,0 69.52,-28.57 88.13,-51.76" /><path
         id="path142"
         style="fill:#f5fafc;fill-opacity:1;fill-rule:nonzero;stroke:none"
         d="m 2293.08,1157.63 -1.86,0.33 c -46.29,17.12 -94.09,0.16 -94.57,-0.01 -2.79,-1.02 -5.84,0.42 -6.86,3.19 -1.01,2.79 0.42,5.84 3.2,6.86 2.09,0.76 51.89,18.49 101.95,-0.01 2.77,-1.03 4.18,-4.09 3.16,-6.88 -0.8,-2.15 -2.85,-3.48 -5.02,-3.48" /><path
         id="path144"
         style="fill:#f5fafc;fill-opacity:1;fill-rule:nonzero;stroke:none"
         d="m 2280.38,1185.7 -1.76,0.31 c -34.06,11.87 -61.33,0.24 -61.6,0.14 -2.69,-1.18 -5.85,0.05 -7.04,2.76 -1.19,2.7 0.05,5.86 2.75,7.04 1.26,0.55 31.41,13.42 69.42,0.14 2.79,-0.97 4.26,-4.02 3.27,-6.8 -0.76,-2.21 -2.82,-3.59 -5.04,-3.59" /><path
         id="path146"
         style="fill:#feb19e;fill-opacity:1;fill-rule:nonzero;stroke:none"
         d="m 2200.83,1243.85 c 0,0 6.69,-28.08 43.12,-28.08 36.43,0 47.79,40.11 47.79,40.11 l -90.91,-12.03" /><path
         id="path148"
         style="fill:#3471ea;fill-opacity:1;fill-rule:nonzero;stroke:none"
         d="m 2526.47,2392.33 c 0,0 -99.03,-141.12 -139.14,-189.25 l -44.04,-970.59 h -196.6 l -61.49,973.26 -17.27,161.15 458.54,25.43" /><path
         id="path150"
         style="fill:#feb19e;fill-opacity:1;fill-rule:nonzero;stroke:none"
         d="m 3105.21,3141.68 c -34.43,-33.04 -280.76,-264.48 -375.95,-220.2 l 24.38,158.61 326.83,128.16 c 6.41,-20.75 14.27,-44.53 24.74,-66.57" /><path
         id="path152"
         style="fill:#d6806a;fill-opacity:1;fill-rule:nonzero;stroke:none"
         d="m 3948.67,3113.68 11.74,13.45 c 0,0 5.81,49.99 14.29,72.87 8.48,22.87 12.63,27.95 17.88,-4.87 5.25,-32.82 11.87,-46.66 11.87,-46.66 0,0 36.42,48.31 39.11,76.32 2.7,28.03 8.08,42.68 15.87,42.27 7.8,-0.41 23.34,-45.93 -11.25,-116.02 0,0 28.44,46.48 31.61,78.44 3.16,31.96 14.81,51.83 23.91,32.87 9.1,-18.96 5.52,-78.92 -33.93,-125.51 0,0 48.6,48.05 46.77,83.62 -1.82,35.58 20.83,21.54 23.1,-20.24 2.19,-40.34 -51.97,-92.52 -51.97,-92.52 0,0 45.38,41.47 56.68,67 11.29,25.53 22.93,-6.68 12.38,-30.44 -10.55,-23.76 -25.4,-55.26 -85.07,-81.42 -3.39,-1.49 -30.41,-12.22 -30.41,-12.22 l -26.17,-20.37 -66.41,83.43" /><g
         id="g154"><g
           clip-path="url(#clipPath160)"
           id="g156"><path
             id="path168"
             style="fill:url(#linearGradient166);fill-opacity:1;fill-rule:nonzero;stroke:none"
             d="m 4023.71,3025.01 c 0,0 -10.27,-20 -31.44,-50.59 -34.88,-50.48 -99.26,-129.95 -195.83,-196.47 -152.09,-104.92 -286.96,-24.49 -292.09,-21.39 l -0.11,0.11 c -2.14,-42.89 1.92,-91.88 8.88,-139.47 15.83,-110.7 46.2,-213.59 46.2,-213.59 0,0 -194.22,-121.17 -356.48,-89.09 -162.24,32.09 -222.77,169.31 -222.77,169.31 95.83,95.94 76.46,316.9 67.91,384.92 v 0.11 c -1.6,12.73 -2.89,20.1 -2.89,20.1 l -0.74,-0.21 c -122.68,-31.55 -230.39,39.79 -230.39,39.79 10.7,4.28 21.93,9.62 33.7,15.83 99.25,52.94 226.2,167.92 226.2,167.92 32.84,-6.74 49.52,4.7 93.58,22.35 v 0.1 c 1.72,0.65 3.43,1.29 5.25,2.04 18.82,7.38 42.46,15.82 74.01,24.38 27.27,7.38 52.29,3.85 75.4,-2.14 14.86,-3.85 28.98,-8.56 42.35,-11.98 89.52,-23.21 126.18,-70.41 183.53,-136.25 82.67,-94.92 125.46,-108.03 125.46,-108.03 l 235.61,193.16 39.79,28.34 74.87,-99.25" /></g></g><path
         id="path170"
         style="fill:#6ecef4;fill-opacity:1;fill-rule:nonzero;stroke:none"
         d="m 4023.71,3025.01 c 0,0 -10.27,-20 -31.44,-50.59 l -83.22,121.5 39.79,28.34 74.87,-99.25" /><path
         id="path172"
         style="fill:#6ecef4;fill-opacity:1;fill-rule:nonzero;stroke:none"
         d="m 3364.45,3147.04 c 1.18,-74.86 -94.12,-161.6 -170.38,-160.53 -91.65,1.28 -34,137.75 -34,137.75 0,0 3.09,3.21 8.45,8.56 1.27,1.17 2.67,2.46 4.17,3.96 18.82,7.38 42.46,15.82 74.01,24.38 25.77,7.06 48.88,10.7 70.37,10.7 1.49,-4.28 3.21,-8.56 5.03,-12.84 14.86,-3.85 28.98,-8.56 42.35,-11.98" /><path
         id="path174"
         style="fill:#2986cc;fill-opacity:1;fill-rule:nonzero;stroke:none"
         d="m 3513.12,2617.2 c -88.34,85.88 -110.59,207.06 -110.59,207.06 l 101.71,-67.59 c -2.14,-42.89 1.92,-91.88 8.88,-139.47" /><path
         id="path176"
         style="fill:#2986cc;fill-opacity:1;fill-rule:nonzero;stroke:none"
         d="m 3044.35,2888.75 c -122.68,-31.55 -230.39,39.79 -230.39,39.79 10.7,4.28 21.93,9.62 33.7,15.83 127.38,-34.76 178.72,43.96 178.72,43.96 l 17.97,-99.58" /><path
         id="path178"
         style="fill:#f2d7f1;fill-opacity:1;fill-rule:nonzero;stroke:none"
         d="m 1293.75,1684.37 c 0,0 -8.03,-182.72 42.78,-216.59 50.8,-33.86 113.19,-4.45 113.19,-4.45 l 47.23,172.9 -56.29,69.81 -146.91,-21.67" /><path
         id="path180"
         style="fill:#c92d44;fill-opacity:1;fill-rule:nonzero;stroke:none"
         d="m 1304.02,1670.47 c 0,0 12.01,-201.8 59.25,-187.54 47.23,14.27 47.23,29.41 72.19,10.7 24.96,-18.72 32.39,61.5 32.39,61.5 l -27.94,155.08 h -150.9 l 15.01,-39.74" /><path
         id="path182"
         style="fill:#ffffff;fill-opacity:1;fill-rule:nonzero;stroke:none"
         d="m 1430.78,1615.46 -73.6,-7.57 c -2.94,-0.3 -5.56,1.84 -5.86,4.78 -0.3,2.94 1.83,5.56 4.77,5.87 l 73.59,7.56 c 2.94,0.31 5.56,-1.83 5.87,-4.77 0.3,-2.94 -1.83,-5.57 -4.77,-5.87" /><path
         id="path184"
         style="fill:#ffffff;fill-opacity:1;fill-rule:nonzero;stroke:none"
         d="m 1432.37,1582.48 -70.04,-7.21 c -2.94,-0.3 -5.56,1.84 -5.86,4.78 -0.3,2.94 1.83,5.57 4.77,5.87 l 70.04,7.2 c 2.94,0.3 5.56,-1.83 5.86,-4.77 0.31,-2.94 -1.83,-5.57 -4.77,-5.87" /><path
         id="path186"
         style="fill:#382649;fill-opacity:1;fill-rule:nonzero;stroke:none"
         d="m 1160.05,2262.79 65.41,-498.81 c 6.64,-50.66 46.33,-90.63 96.94,-97.63 65.36,-9.05 124.62,39.39 128.77,105.24 l 31.53,500.12 -110.52,58.82 -212.13,-67.74" /><path
         id="path188"
         style="fill:#46295b;fill-opacity:1;fill-rule:nonzero;stroke:none"
         d="m 1363.27,2430.35 53.47,-1130.12 176.47,-10.44 44.64,1178.12 c 0,0 -175.93,102.71 -274.58,-37.56" /><path
         id="path190"
         style="fill:#c92d44;fill-opacity:1;fill-rule:nonzero;stroke:none"
         d="m 1602.09,1105.97 c -3.21,-2.26 -9.09,-4.08 -16.79,-5.57 -33.91,-6.31 -103.53,-5.03 -138.19,0.11 -10.26,1.49 -17.43,3.42 -19.67,5.46 -11.56,10.69 24.06,149.72 24.06,149.72 v 42.46 l 118.5,-6.95 2.68,-23.09 c 0,0 50.8,-147.07 29.41,-162.14" /><path
         id="path192"
         style="fill:#ffffff;fill-opacity:1;fill-rule:nonzero;stroke:none"
         d="m 1585.3,1100.4 c -33.91,-6.31 -103.53,-5.03 -138.19,0.11 13.27,24.28 42.36,67.8 69.1,70.48 26.41,2.56 55.4,-44.93 69.09,-70.59" /><path
         id="path194"
         style="fill:#ffffff;fill-opacity:1;fill-rule:nonzero;stroke:none"
         d="m 1550.43,1246.75 h -73.98 c -2.95,0 -5.35,2.38 -5.35,5.34 0,2.96 2.4,5.35 5.35,5.35 h 73.98 c 2.96,0 5.35,-2.39 5.35,-5.35 0,-2.96 -2.39,-5.34 -5.35,-5.34" /><path
         id="path196"
         style="fill:#ffffff;fill-opacity:1;fill-rule:nonzero;stroke:none"
         d="m 1548.64,1213.77 h -70.4 c -2.96,0 -5.35,2.39 -5.35,5.35 0,2.95 2.39,5.34 5.35,5.34 h 70.4 c 2.96,0 5.35,-2.39 5.35,-5.34 0,-2.96 -2.39,-5.35 -5.35,-5.35" /><g
         id="g198"><g
           clip-path="url(#clipPath204)"
           id="g200"><path
             id="path212"
             style="fill:url(#linearGradient210);fill-opacity:1;fill-rule:nonzero;stroke:none"
             d="m 1190.42,2254.66 c -24.55,0 -45.97,12.78 -58.07,31.95 -7.7,11.97 -11.65,26.42 -10.48,41.82 0.86,11.01 1.61,21.71 2.25,32.2 2.85,46.77 4.13,88.2 4.13,125.48 0,-37.28 -1.28,-78.71 -4.13,-125.48 146.52,45.44 258.93,161.6 329.84,287.16 l -325.99,-130.06 v -1.92 0 1.92 c -0.09,4.63 -0.19,9.19 -0.31,13.68 l 123.22,94.8 c 78.39,3.8 190.7,19.94 329.18,68.75 -3.11,15.82 -5.89,31.01 -8.35,45.56 -47.74,-15.8 -136.5,-41.45 -243.42,-54.76 l 65.79,50.61 -177.23,-49.33 c -5.72,13.41 -11.54,26.34 -17.31,39.17 82.98,0.72 216.13,11.58 348.53,63 5.76,-7.1 12.1,-13.8 19.04,-19.82 v 0 0 c -1.38,9.2 -2.56,17.87 -3.63,25.99 v 0 0 c -3,22.03 -4.92,40.22 -6.1,52.62 v 0 c -0.85,9.41 -1.39,15.62 -1.5,17.97 l -59.78,38.5 c 0,0 6.37,-33.27 23.82,-69.8 -63.45,-21.08 -183.01,-53.92 -311.46,-53.92 -10.86,0 -21.79,0.23 -32.75,0.73 -17.51,44.1 -32.02,93.21 -37.94,161.36 l -39.42,-158.94 -37.55,229.26 c 0,0 90.87,103.74 224.76,137.52 25.1,6.34 51.71,10.21 79.52,10.48 0.88,0.01 1.79,0.02 2.67,0.02 45.66,0 94.52,-12 141.81,-29.73 115.81,-43.44 222.24,-121.38 249.74,-142.32 4.47,-3.4 6.85,-5.3 6.85,-5.3 l 139,-88.21 0.02,-0.01 -0.01,-0.01 h 0.02 0.01 l 133.69,21.39 c 0,0 11.04,-80.52 18.82,-171.53 -17.68,-3.47 -57.17,-9.78 -110.14,-9.78 -81.43,0 -194.76,14.91 -309.98,77.98 -27.3,14.95 -54.69,32.59 -81.8,53.38 l 0.1,-1.07 c 0.11,-2.35 0.65,-8.56 1.5,-17.97 1.18,-12.4 3.1,-30.59 6.1,-52.62 0.18,-1.39 0.37,-2.81 0.56,-4.24 0.92,-6.88 1.93,-14.13 3.07,-21.75 1.4,-9.19 2.89,-18.82 4.6,-28.87 2.46,-14.55 5.24,-29.74 8.35,-45.56 14.11,-70.81 35.72,-152.73 68.55,-223.43 12.09,-25.99 6.1,-56.58 -14.11,-76.79 -49.74,-49.84 -170.06,-127.81 -440.86,-140 -1.08,-0.05 -2.15,-0.08 -3.22,-0.08" /></g></g><path
         id="path214"
         style="fill:#f96291;fill-opacity:1;fill-rule:nonzero;stroke:none"
         d="m 1115.14,2729.29 1.49,57.54 c 194.76,-26.96 394.55,43.42 440.75,61.17 1.18,-12.4 3.1,-30.59 6.1,-52.62 -220.43,-91.01 -448.34,-66.09 -448.34,-66.09" /><path
         id="path216"
         style="fill:#f96291;fill-opacity:1;fill-rule:nonzero;stroke:none"
         d="m 1571.71,2740.52 c 2.46,-14.55 5.24,-29.74 8.35,-45.56 -281.61,-99.26 -454.98,-63.43 -454.98,-63.43 l -0.53,48.13 c 191.44,-14.33 371.23,35.72 447.16,60.86" /><path
         id="path218"
         style="fill:#c16a98;fill-opacity:1;fill-rule:nonzero;stroke:none"
         d="m 1126.63,2530.62 -74.86,65.51 46.58,187.77 18.93,-115.57 c 4.92,-39.93 8.94,-84.03 10.38,-136.92 l -1.03,-0.79" /><g
         id="g220"><g
           clip-path="url(#clipPath226)"
           id="g222"><path
             id="path234"
             style="fill:url(#linearGradient232);fill-opacity:1;fill-rule:nonzero;stroke:none"
             d="m 1127.66,2531.41 c -1.44,52.89 -5.46,96.99 -10.38,136.92 l -18.93,115.57 39.42,158.94 c 5.92,-68.15 20.43,-117.26 37.94,-161.36 -19.63,0.89 -39.38,2.62 -59.08,5.35 l -1.49,-57.54 c 0,0 28.53,-3.12 75.18,-3.12 3,0 6.07,0.01 9.22,0.04 5.77,-12.83 11.59,-25.76 17.31,-39.17 l 177.23,49.33 -65.79,-50.61 c -42.49,-5.29 -87.83,-8.63 -134.61,-8.63 -22.75,0 -45.87,0.79 -69.13,2.53 l 0.53,-48.13 c 0,0 30.47,-6.3 86.63,-6.3 11.91,0 24.99,0.29 39.17,0.98 l -123.22,-94.8" /></g></g><path
         id="path236"
         style="fill:#c73975;fill-opacity:1;fill-rule:nonzero;stroke:none"
         d="m 1190.32,2726.17 c -46.65,0 -75.18,3.12 -75.18,3.12 l 1.49,57.54 c 19.7,-2.73 39.45,-4.46 59.08,-5.35 7.54,-18.98 15.63,-37.03 23.83,-55.27 -3.15,-0.03 -6.22,-0.04 -9.22,-0.04" /><path
         id="path238"
         style="fill:#c73975;fill-opacity:1;fill-rule:nonzero;stroke:none"
         d="m 1211.71,2625.23 c -56.16,0 -86.63,6.3 -86.63,6.3 l -0.53,48.13 c 23.26,-1.74 46.38,-2.53 69.13,-2.53 46.78,0 92.12,3.34 134.61,8.63 l -77.41,-59.55 c -14.18,-0.69 -27.26,-0.98 -39.17,-0.98" /><g
         id="g240"><g
           clip-path="url(#clipPath246)"
           id="g242"><path
             id="path254"
             style="fill:url(#linearGradient252);fill-opacity:1;fill-rule:nonzero;stroke:none"
             d="m 1567.11,2769.39 c -6.94,6.02 -13.28,12.72 -19.04,19.82 5.14,2 10.27,4.05 15.41,6.17 v 0 c 1.07,-8.12 2.25,-16.79 3.63,-25.99 m -47.19,65.28 c -17.45,36.53 -23.82,69.8 -23.82,69.8 l 59.78,-38.5 c 0.11,-2.35 0.65,-8.56 1.5,-17.97 -8.07,-3.1 -20.84,-7.81 -37.46,-13.33" /></g></g><path
         id="path256"
         style="fill:#c73975;fill-opacity:1;fill-rule:nonzero;stroke:none"
         d="m 1548.07,2789.21 c -11.57,14.25 -20.83,30.14 -28.15,45.46 16.62,5.52 29.39,10.23 37.46,13.33 v 0 c 1.18,-12.4 3.1,-30.59 6.1,-52.62 -5.14,-2.12 -10.27,-4.17 -15.41,-6.17" /><g
         id="g258"><g
           clip-path="url(#clipPath264)"
           id="g260"><path
             id="path272"
             style="fill:url(#linearGradient270);fill-opacity:1;fill-rule:nonzero;stroke:none"
             d="m 1124.12,2360.63 c 2.85,46.77 4.13,88.2 4.13,125.48 0,10.2 -0.1,20.1 -0.28,29.7 v 1.92 l 325.99,130.06 c -70.91,-125.56 -183.32,-241.72 -329.84,-287.16" /></g></g><path
         id="path274"
         style="fill:#fc9f9f;fill-opacity:1;fill-rule:nonzero;stroke:none"
         d="m 1405.54,2732.59 16.55,7.93 18.72,56.15 c 0,0 8.02,48.12 9.35,60.16 1.34,12.03 27.41,-26.74 20.72,-64.17 0,0 28.75,25.4 40.78,22.72 12.03,-2.67 8.69,-28.3 8.69,-28.3 0,0 34.23,-18.27 30.08,-60.91 -4.15,-42.65 -81.55,-55.84 -81.55,-55.84 l -21.52,-10.96 -41.82,73.22" /><g
         id="g276"><g
           clip-path="url(#clipPath282)"
           id="g278"><path
             id="path290"
             style="fill:url(#linearGradient288);fill-opacity:1;fill-rule:nonzero;stroke:none"
             d="m 1453.96,2647.82 -52.7,92.25 -228.77,-117.98 c -23.13,105.06 -30.53,240.41 -17.98,359.35 0,0 -6.25,21.91 -10.17,30.36 -17.57,37.75 -90.96,29.95 -126.89,-64.07 -76.649,-200.55 -13.26,-463.67 107.1,-485.51 135.03,-24.51 329.41,185.6 329.41,185.6" /></g></g><g
         id="g292"><g
           clip-path="url(#clipPath298)"
           id="g294"><path
             id="path306"
             style="fill:url(#linearGradient304);fill-opacity:1;fill-rule:nonzero;stroke:none"
             d="m 2265.38,2323.02 c -87.08,0 -158.33,17.77 -195.91,29.52 -18.54,5.79 -28.87,10.12 -28.87,10.12 l 0.96,2.35 22.24,54.65 c 0,0 -49.94,23.21 -12.51,78.4 9.07,13.39 13.01,44.89 13.79,84.92 0.13,7.06 0.17,14.37 0.12,21.91 -0.29,43.15 -3.45,93.28 -7.5,140.57 -7.78,91.01 -18.82,171.53 -18.82,171.53 l -133.69,-21.39 v 0 l 133.66,21.39 12.47,82.89 -146.14,-104.27 -51.75,140.85 v 0 c 0,0 7.89,6.97 21.99,18.6 6.29,5.19 13.8,11.3 22.41,18.14 26.37,20.95 62.92,48.68 105.33,77.26 10.89,7.34 22.89,13.37 35.55,18.31 3.32,1.29 6.67,2.51 10.07,3.66 39.98,13.5 85.14,17.18 122.45,17.18 9.26,0 18.05,-0.22 26.15,-0.58 1.27,-58.09 14.5,-202.81 114.5,-202.83 4.76,0 9.69,0.33 14.85,1.01 125.22,16.47 43.82,169.39 43.82,169.39 l -95.25,30.9 c 19.77,1.94 38.74,2.81 56.95,2.81 33.82,0 64.97,-3.01 93.53,-7.77 9.82,-1.63 19.32,-3.48 28.53,-5.47 76.6,-16.64 132.29,-44.12 169.18,-53.34 64.17,-16.04 130.15,-34.55 130.15,-34.55 l -33.89,-232.83 -86.43,12.4 c -49.94,31.13 -90.37,119.58 -90.37,119.58 v -119.58 0 c -4.28,-153.05 37.75,-219.15 37.75,-219.15 0,0 48.13,-33.9 48.13,-53.47 0,-9.3 -2.03,-18.18 -4.06,-25.03 v 0 l -0.11,-0.1 c 0,0 -38.61,-78.29 -211.44,-117.43 0,0 131.01,0 226.53,67.26 -7.49,11.13 -14.88,24.18 -19.8,37.87 v 0 c 4.92,-13.69 12.31,-26.74 19.8,-37.87 v 0 0 c 14,-20.85 28.34,-35.19 28.34,-35.19 -8.51,-8.23 -17.07,-16.06 -25.69,-23.53 -40.92,-35.45 -83.1,-62.53 -125.19,-82.92 -88.11,-42.69 -175.97,-56.17 -251.83,-56.17 m -201.58,96.64 -22.24,-54.65 c 0.1,0 0.18,0 0.28,0 62.18,0 132.34,35.08 132.34,35.08 l -110.38,19.57 m 117.65,502.67 c 0,0 30.3,-295.89 14.26,-401.07 0,0 55.24,-20.82 130.89,-20.82 53.41,0 116.99,10.37 178.53,45.78 0,0 -49.17,258.47 -58.08,386.81 0,0 -43.46,-28.06 -133.59,-28.06 -36.35,0 -80.28,4.56 -132.01,17.36" /></g></g><g
         id="g308"><g
           clip-path="url(#clipPath314)"
           id="g310"><path
             id="path322"
             style="fill:url(#linearGradient320);fill-opacity:1;fill-rule:nonzero;stroke:none"
             d="m 2326.6,2500.44 c -75.65,0 -130.89,20.82 -130.89,20.82 16.04,105.18 -14.26,401.07 -14.26,401.07 51.73,-12.8 95.66,-17.36 132.01,-17.36 90.13,0 133.59,28.06 133.59,28.06 8.91,-128.34 58.08,-386.81 58.08,-386.81 -61.54,-35.41 -125.12,-45.78 -178.53,-45.78" /></g></g><path
         id="path324"
         style="fill:#eeab9b;fill-opacity:1;fill-rule:nonzero;stroke:none"
         d="m 1905.18,2895.6 -0.01,0.01 h 0.01 l 0.01,-0.01 h -0.01" /><g
         id="g326"><g
           clip-path="url(#clipPath332)"
           id="g328"><path
             id="path340"
             style="fill:url(#linearGradient338);fill-opacity:1;fill-rule:nonzero;stroke:none"
             d="m 1905.16,2895.6 0.01,0.01 0.01,-0.01 h -0.02" /></g></g><g
         id="g342"><g
           clip-path="url(#clipPath348)"
           id="g344"><path
             id="path356"
             style="fill:url(#linearGradient354);fill-opacity:1;fill-rule:nonzero;stroke:none"
             d="m 1905.19,2895.6 -0.01,0.01 146.14,104.27 -12.47,-82.89 -133.66,-21.39" /></g></g><g
         id="g358"><g
           clip-path="url(#clipPath364)"
           id="g360"><path
             id="path372"
             style="fill:url(#linearGradient370);fill-opacity:1;fill-rule:nonzero;stroke:none"
             d="m 2633.32,2868.75 -89.94,12.94 c -0.22,-4.38 -0.32,-8.66 -0.43,-12.94 v 119.58 c 0,0 40.43,-88.45 90.37,-119.58" /></g></g><g
         id="g374"><g
           clip-path="url(#clipPath380)"
           id="g376"><path
             id="path388"
             style="fill:url(#linearGradient386);fill-opacity:1;fill-rule:nonzero;stroke:none"
             d="m 2413.22,2453.57 c 172.83,39.14 211.44,117.43 211.44,117.43 l 0.11,0.1 c -2.36,-7.48 -4.82,-12.4 -4.82,-12.4 v 0 0 c 4.92,-13.69 12.31,-26.74 19.8,-37.87 -95.52,-67.26 -226.53,-67.26 -226.53,-67.26" /></g></g><g
         id="g390"><g
           clip-path="url(#clipPath396)"
           id="g392"><path
             id="path404"
             style="fill:url(#linearGradient402);fill-opacity:1;fill-rule:nonzero;stroke:none"
             d="m 2041.84,2365.01 c -0.1,0 -0.18,0 -0.28,0 l 22.24,54.65 110.38,-19.57 c 0,0 -70.16,-35.08 -132.34,-35.08" /></g></g><path
         id="path406"
         style="fill:#eeab9b;fill-opacity:1;fill-rule:nonzero;stroke:none"
         d="m 2249.15,3184.37 c 0,0 -20.92,3.29 -51.77,4.66 -0.32,14.58 0.12,23.71 0.12,23.71 l 77.8,-25.24 c -8.56,-0.84 -17.29,-1.88 -26.15,-3.13" /><g
         id="g408"><g
           clip-path="url(#clipPath414)"
           id="g410"><path
             id="path422"
             style="fill:url(#linearGradient420);fill-opacity:1;fill-rule:nonzero;stroke:none"
             d="m 2311.88,2986.2 c -100,0.02 -113.23,144.74 -114.5,202.83 30.85,-1.37 51.77,-4.66 51.77,-4.66 8.86,1.25 17.59,2.29 26.15,3.13 l 95.25,-30.9 c 0,0 81.4,-152.92 -43.82,-169.39 -5.16,-0.68 -10.09,-1.01 -14.85,-1.01" /></g></g><g
         id="g424"><g
           clip-path="url(#clipPath430)"
           id="g426"><path
             id="path438"
             style="fill:url(#linearGradient436);fill-opacity:1;fill-rule:nonzero;stroke:none"
             d="m 2219.53,3156.6 c 0,0 -74.62,50.8 -105.81,141.71 -31.2,90.91 26.73,105.17 26.73,105.17 0,0 -38.32,23.17 -30.3,37.43 8.02,14.26 31.19,0 31.19,0 0,0 32.09,74.87 70.41,89.13 38.33,14.26 11.59,-41.89 11.59,-41.89 0,0 51.69,47.24 112.3,25.84 60.61,-21.39 79.07,-60.1 122.1,-82.88 30.31,-16.05 29.42,-54.37 -57.93,-38.33 0,0 54.84,-8.24 60.19,-25.18 5.35,-16.93 -106.53,-23.12 -106.53,-23.12 L 2219.53,3156.6" /></g></g><path
         id="path440"
         style="fill:#feb19e;fill-opacity:1;fill-rule:nonzero;stroke:none"
         d="m 2368.4,3057.52 c -4.7,-23.53 -18.71,-46.95 -55.93,-46.95 -74.23,0 -92.94,157.22 -92.94,157.22 l 149.09,-63.53 c 0,0 4.49,-23.31 -0.22,-46.74" /><path
         id="path442"
         style="fill:#ff856a;fill-opacity:1;fill-rule:nonzero;stroke:none"
         d="m 2368.4,3057.52 c -27.48,-2.67 -116.36,-2.13 -148.87,110.27 l 149.09,-63.53 c 0,0 4.49,-23.31 -0.22,-46.74" /><path
         id="path444"
         style="fill:#feb19e;fill-opacity:1;fill-rule:nonzero;stroke:none"
         d="m 2401.6,3350 c 0,0 25.62,-120.21 0.64,-203.1 -9.16,-30.4 -38.28,-50.34 -69.94,-47.89 -44.84,3.46 -109.24,24.8 -134.8,113.73 0,0 -31.43,23.18 -21.4,57.27 10.03,34.09 40.78,12.03 39.44,-20.72 0,0 36.1,32.31 16.04,100.71 0,0 54.82,-25.18 73.53,-17.15 18.72,8.01 -20.72,34.75 -20.72,34.75 0,0 53.93,-30.52 117.21,-17.6" /><path
         id="path446"
         style="fill:#d6806a;fill-opacity:1;fill-rule:nonzero;stroke:none"
         d="m 2550.44,3171.67 c 0,0 -26.45,28.91 -45.31,3.43 0,0 -15.78,26.2 -29.36,6.59 -13.57,-19.61 -11.57,-82.89 39.9,-82.88 28.54,0 52.59,14.26 64.17,30.3 5.79,8.01 14.77,7.73 18.72,-1.22 3.97,-8.98 2.93,-26.64 6.69,-27.08 7.19,-0.84 32.08,9.36 20.43,52.91 -2.63,9.87 -32.02,7.48 -32.02,7.48 0,0 -17.38,31.64 -43.22,10.47" /><g
         id="g448"><g
           clip-path="url(#clipPath454)"
           id="g450"><path
             id="path462"
             style="fill:url(#linearGradient460);fill-opacity:1;fill-rule:nonzero;stroke:none"
             d="m 1436.49,3318.7 c 0,0 65.64,13.98 74.76,81.45 5.22,38.59 -41.33,7.9 -41.33,7.9 0,0 26.14,40.11 10.33,85.7 -15.8,45.59 -27.96,32.82 -59.56,0 -31.61,-32.82 -70.51,-26.13 -70.51,-26.13 0,0 17.02,15.19 11.55,31.6 -5.47,16.41 -66.25,-20.67 -119.13,-27.35 -52.88,-6.68 -128.64,-58.25 -90.95,-153.74 0,0 -43.7,-97.25 116.92,-196.65 160.63,-99.39 167.92,197.22 167.92,197.22" /></g></g><path
         id="path464"
         style="fill:#fc9f9f;fill-opacity:1;fill-rule:nonzero;stroke:none"
         d="m 1431.18,3031.11 c -4.92,-24.92 -18.18,-48.02 -48.34,-56.15 -65.14,-17.65 -115.94,118.29 -128.88,156.68 -2.14,6.31 -3.21,9.95 -3.21,9.95 l 176.69,-31.23 c 0,0 11.33,-41.61 3.74,-79.25" /><path
         id="path466"
         style="fill:#f97575;fill-opacity:1;fill-rule:nonzero;stroke:none"
         d="m 1431.18,3031.11 c -28.24,-9.74 -101.6,-18.83 -177.22,100.53 -2.14,6.31 -3.21,9.95 -3.21,9.95 l 176.69,-31.23 c 0,0 11.33,-41.61 3.74,-79.25" /><path
         id="path468"
         style="fill:#fc9f9f;fill-opacity:1;fill-rule:nonzero;stroke:none"
         d="m 1436.49,3318.7 c 0,0 28.07,-120.96 -10.78,-213.51 -8.91,-21.24 -30.71,-33.94 -53.63,-31.58 -45.55,4.69 -119.97,27.22 -139.81,122.31 0,0 -27.96,23.1 -26.75,51.06 1.22,27.96 48.63,15.8 54.7,-30.39 0,0 40.12,24.31 10.95,91.17 0,0 51.66,-22.49 65.64,-10.94 13.98,11.55 -10.92,35.86 -10.92,35.86 0,0 49.82,-29.78 110.6,-13.98" /><g
         id="g470"><g
           clip-path="url(#clipPath476)"
           id="g472"><path
             id="path484"
             style="fill:url(#linearGradient482);fill-opacity:1;fill-rule:nonzero;stroke:none"
             d="m 3316.62,3190.3 c 0,0 92.11,122.41 30.62,215.99 0,0 27.6,16.05 21.15,29.42 -6.46,13.37 -46.55,0 -46.55,0 0,0 -15.4,98.93 -99.29,104.28 -83.88,5.34 -62.48,-21.4 -62.48,-21.4 0,0 -25.4,2.68 -86.91,-22.72 -61.49,-25.4 -101.6,-110.97 -61.49,-105.62 0,0 -39.12,-88.45 54.64,-144.49 l 250.31,-55.46" /></g></g><path
         id="path486"
         style="fill:#d6806a;fill-opacity:1;fill-rule:nonzero;stroke:none"
         d="m 3333.22,3136.88 c 0,0 -16.15,-63.85 -82.24,-98.18 -47.39,-24.71 -72.31,-12.62 -78.29,9.52 -2.47,9.09 -1.61,19.89 2.13,30.48 7.92,22.46 0.54,42.25 -6.3,54.12 l -1.08,1.82 v 0.1 c -3.95,6.42 -7.37,10.05 -7.37,10.05 l 121.49,100.97 18.4,15.29 c 0,0 0.32,-43.31 17.11,-89.19 1.49,-4.28 3.21,-8.56 5.03,-12.84 3.2,-7.49 6.85,-14.86 11.12,-22.14" /><path
         id="path488"
         style="fill:#c15c48;fill-opacity:1;fill-rule:nonzero;stroke:none"
         d="m 3172.69,3048.22 c -2.47,9.09 -1.61,19.89 2.13,30.48 12.84,36.58 -14.75,66.09 -14.75,66.09 l 121.49,100.97 c 1.29,-4.92 2.25,-10.7 2.79,-17.33 8.87,-100.96 -69.31,-157.43 -111.66,-180.21" /><path
         id="path490"
         style="fill:#d6806a;fill-opacity:1;fill-rule:nonzero;stroke:none"
         d="m 3054.89,3319.84 c 0,0 12.75,-100.59 57.42,-193.58 12.45,-25.89 43.28,-37.43 69.67,-26.09 50.17,21.54 122.1,68.66 118.01,160.85 0,0 36.54,-7.13 32.98,38.32 -3.57,45.46 -42.77,65.06 -44.56,-8.91 0,0 -28.52,0.89 -37.43,79.32 0,0 -57.04,-31.19 -75.77,-10.69 0,0 -36.54,-45.46 -58.81,-44.57 -22.29,0.9 -6.24,36.55 -6.24,36.55 0,0 -12.48,-20.5 -55.27,-31.2" /></g></g></svg>
