<?xml version="1.0" encoding="UTF-8" standalone="no"?>
<svg
   xmlns:dc="http://purl.org/dc/elements/1.1/"
   xmlns:cc="http://creativecommons.org/ns#"
   xmlns:rdf="http://www.w3.org/1999/02/22-rdf-syntax-ns#"
   xmlns:svg="http://www.w3.org/2000/svg"
   xmlns="http://www.w3.org/2000/svg"
   viewBox="0 0 666.66669 666.66669"
   height="666.66669"
   width="666.66669"
   xml:space="preserve"
   id="svg2"
   version="1.1"><metadata
     id="metadata8"><rdf:RDF><cc:Work
         rdf:about=""><dc:format>image/svg+xml</dc:format><dc:type
           rdf:resource="http://purl.org/dc/dcmitype/StillImage" /></cc:Work></rdf:RDF></metadata><defs
     id="defs6" /><g
     transform="matrix(1.3333333,0,0,-1.3333333,0,666.66667)"
     id="g10"><g
       transform="scale(0.1)"
       id="g12"><path
         id="path14"
         style="fill:#ffffff;fill-opacity:1;fill-rule:nonzero;stroke:none"
         d="M 5000,5000 V 0 H 0 v 5000 h 5000" /><path
         id="path16"
         style="fill:#acbfc3;fill-opacity:1;fill-rule:nonzero;stroke:none"
         d="M 1107.87,886.609 H 556.855 c -9.683,0 -17.531,7.852 -17.531,17.532 v 9.629 c 0,9.679 7.848,17.531 17.531,17.531 h 551.015 c 9.68,0 17.53,-7.852 17.53,-17.531 v -9.629 c 0,-9.68 -7.85,-17.532 -17.53,-17.532" /><path
         id="path18"
         style="fill:#acbfc3;fill-opacity:1;fill-rule:nonzero;stroke:none"
         d="m 4599.41,886.609 h -150.77 c -9.68,0 -17.53,7.852 -17.53,17.532 v 9.629 c 0,9.679 7.85,17.531 17.53,17.531 h 150.77 c 9.68,0 17.52,-7.852 17.52,-17.531 v -9.629 c 0,-9.68 -7.84,-17.532 -17.52,-17.532" /><path
         id="path20"
         style="fill:#acbfc3;fill-opacity:1;fill-rule:nonzero;stroke:none"
         d="m 2144.82,886.609 h -551.01 c -9.68,0 -17.53,7.852 -17.53,17.532 v 9.629 c 0,9.679 7.85,17.531 17.53,17.531 h 551.01 c 9.68,0 17.53,-7.852 17.53,-17.531 v -9.629 c 0,-9.68 -7.85,-17.532 -17.53,-17.532" /><path
         id="path22"
         style="fill:#acbfc3;fill-opacity:1;fill-rule:nonzero;stroke:none"
         d="m 2953.9,886.609 h -551.02 c -9.68,0 -17.52,7.852 -17.52,17.532 v 9.629 c 0,9.679 7.84,17.531 17.52,17.531 h 551.02 c 9.68,0 17.53,-7.852 17.53,-17.531 v -9.629 c 0,-9.68 -7.85,-17.532 -17.53,-17.532" /><path
         id="path24"
         style="fill:#acbfc3;fill-opacity:1;fill-rule:nonzero;stroke:none"
         d="m 3944.79,886.609 h -751.14 c -9.68,0 -17.53,7.852 -17.53,17.532 v 9.629 c 0,9.679 7.85,17.531 17.53,17.531 h 751.14 c 9.68,0 17.53,-7.852 17.53,-17.531 v -9.629 c 0,-9.68 -7.85,-17.532 -17.53,-17.532" /><path
         id="path26"
         style="fill:#1b3540;fill-opacity:1;fill-rule:nonzero;stroke:none"
         d="m 1292.56,3389.33 c 0,0 -58.2,39.6 -143.31,9.1 -85.12,-30.5 -104.24,-145.13 -83.27,-238.16 20.96,-93.03 -96.226,-410.65 -96.226,-410.65 0,0 60.906,-85.66 273.786,-52.87 0,0 158.73,288.46 146.94,495.55 -11.78,207.09 -97.92,197.03 -97.92,197.03" /><path
         id="path28"
         style="fill:#ef5640;fill-opacity:1;fill-rule:nonzero;stroke:none"
         d="m 1359.76,3031.5 c 80,25.58 128.96,-41.04 174.8,-165.01 45.83,-123.98 61.25,-136.41 61.25,-136.41 l 176.93,-113.68 -14.7,-66.26 c 0,0 -168.39,65.94 -209.1,107.87 -40.71,41.94 -157.83,254.36 -157.83,254.36 l -31.35,119.13" /><path
         id="path30"
         style="fill:#f57559;fill-opacity:1;fill-rule:nonzero;stroke:none"
         d="m 969.836,2230.55 c 0,0 -34.707,-175.79 -28.988,-440.4 0,0 -136.778,-201.7 -23.903,-777.18 h 59.215 c 0,0 48.37,489.62 85.38,622.3 37.01,132.67 173.67,173.38 181.07,576.77 l -272.774,18.51" /><path
         id="path32"
         style="fill:#f57559;fill-opacity:1;fill-rule:nonzero;stroke:none"
         d="m 699.223,1713.65 c -34.407,113.39 -122.836,303.3 -349.692,560.72 0,0 -13.531,6.97 -31.82,-4.2 -19.309,-11.8 -19.309,-25.67 -19.309,-25.67 0,0 113.754,-247.9 186.293,-429.53 24.422,-61.15 83.5,-101.32 149.34,-101.32 h 65.188" /><path
         id="path34"
         style="fill:#203e50;fill-opacity:1;fill-rule:nonzero;stroke:none"
         d="m 1112.24,1494.39 c 0,0 0.77,-84.6 -54.74,-86.04 -78.383,-2.11 -81.27,83.27 -170.09,80.49 -88.82,-2.77 -272.012,-24.98 -330.301,113.8 -30.089,71.73 11.102,163.77 -86.043,233.16 -97.148,69.39 -49.964,147.11 0,188.74 49.961,41.52 -21.539,87.05 30.532,108.25 12.433,5 24.644,4.44 35.972,0.67 6.66,-2.33 12.879,-5.55 18.871,-9.55 27.536,-18.32 46.856,-50.18 46.856,-50.18 147.109,402.91 409.013,456.09 409.013,456.09 l 259.03,-89.38 c 6.21,-626.85 -159.1,-946.05 -159.1,-946.05" /><path
         id="path36"
         style="fill:#d2dadc;fill-opacity:1;fill-rule:nonzero;stroke:none"
         d="m 1359.76,3031.5 c 0,0 -60.43,-20.39 -146.39,-7.34 -85.95,13.06 -113.9,67.02 -174.32,32.28 -90.706,-52.14 -48.261,-231.64 -25.49,-324.97 8.5,-34.79 19.26,-126.22 -1.23,-201.67 0,0 120.78,-93.97 259.02,-89.31 l 75.42,164.04 c 0,0 164.02,196.25 12.99,426.97" /><path
         id="path38"
         style="fill:#ef5640;fill-opacity:1;fill-rule:nonzero;stroke:none"
         d="m 1206.28,3182.06 c 0,0 10.05,-84.92 -21.36,-162.16 0,0 44.84,-66.21 87.64,-22.64 0,0 3.92,77.82 51.99,165.86 32.2,58.96 -118.27,18.94 -118.27,18.94" /><path
         id="path40"
         style="fill:#f57559;fill-opacity:1;fill-rule:nonzero;stroke:none"
         d="m 1137.55,3179.17 c 0,0 -37.83,23.93 -33.56,-12.99 4.95,-42.78 46.67,-51.12 51.12,-36.16 4.44,14.95 -17.56,49.15 -17.56,49.15" /><path
         id="path42"
         style="fill:#f57559;fill-opacity:1;fill-rule:nonzero;stroke:none"
         d="m 1354.57,3225.48 c 0,0 24.02,37.78 35.9,2.56 13.77,-40.81 -20.42,-66.14 -30.82,-54.51 -10.39,11.63 -5.08,51.95 -5.08,51.95" /><path
         id="path44"
         style="fill:#f57559;fill-opacity:1;fill-rule:nonzero;stroke:none"
         d="m 1276.46,3051.3 c -68.62,-15.36 -117.38,20.78 -147.47,155.2 -15.53,69.34 10.23,119.77 87.08,136.97 76.85,17.21 118.74,-18.07 134.27,-87.41 32.34,-144.43 -3,-188.89 -73.88,-204.76" /><path
         id="path46"
         style="fill:#dc4b44;fill-opacity:1;fill-rule:nonzero;stroke:none"
         d="m 1338.35,3203.03 c 2.74,-6.62 -1.75,-14.78 -10.03,-18.22 -8.29,-3.43 -17.24,-0.85 -19.99,5.78 -2.74,6.63 1.75,14.79 10.04,18.22 8.28,3.44 17.23,0.85 19.98,-5.78" /><path
         id="path48"
         style="fill:#dc4b44;fill-opacity:1;fill-rule:nonzero;stroke:none"
         d="m 1198.06,3167.68 c 1.11,-7.09 -5.18,-13.96 -14.04,-15.35 -8.86,-1.38 -16.95,3.24 -18.06,10.33 -1.1,7.09 5.18,13.96 14.04,15.34 8.87,1.39 16.95,-3.23 18.06,-10.32" /><path
         id="path50"
         style="fill:#1b3540;fill-opacity:1;fill-rule:nonzero;stroke:none"
         d="m 1290.57,3265.67 c -0.67,0 -1.34,0.19 -1.94,0.59 -11.73,7.83 -28.36,3.66 -28.54,3.63 -1.91,-0.5 -3.79,0.65 -4.28,2.53 -0.48,1.88 0.65,3.79 2.53,4.28 0.81,0.2 19.87,4.97 34.19,-4.6 1.61,-1.07 2.05,-3.25 0.97,-4.87 -0.68,-1.01 -1.79,-1.56 -2.93,-1.56" /><path
         id="path52"
         style="fill:#1b3540;fill-opacity:1;fill-rule:nonzero;stroke:none"
         d="m 1161.38,3236.74 c -0.61,0 -1.24,0.16 -1.81,0.51 -1.66,0.99 -2.2,3.15 -1.19,4.81 8.87,14.76 28.15,18.58 28.97,18.74 1.87,0.3 3.73,-0.88 4.1,-2.79 0.36,-1.9 -0.88,-3.74 -2.79,-4.11 -0.16,-0.04 -17.03,-3.43 -24.27,-15.46 -0.65,-1.09 -1.82,-1.7 -3.01,-1.7" /><path
         id="path54"
         style="fill:#22434d;fill-opacity:1;fill-rule:nonzero;stroke:none"
         d="m 1293.58,3228.02 c 1.9,-8.52 -0.39,-16.29 -5.12,-17.34 -4.74,-1.06 -10.12,4.98 -12.03,13.5 -1.91,8.52 0.38,16.29 5.12,17.35 4.73,1.06 10.12,-4.99 12.03,-13.51" /><path
         id="path56"
         style="fill:#22434d;fill-opacity:1;fill-rule:nonzero;stroke:none"
         d="m 1198.25,3207.5 c 1.91,-8.52 -0.39,-16.28 -5.12,-17.34 -4.73,-1.06 -10.12,4.98 -12.03,13.51 -1.9,8.52 0.39,16.28 5.12,17.34 4.74,1.06 10.12,-4.98 12.03,-13.51" /><path
         id="path58"
         style="fill:#22434d;fill-opacity:1;fill-rule:nonzero;stroke:none"
         d="m 1229.07,3126.81 c 0,0 44.07,3.59 63.49,19.99 0,0 -5.34,-34.43 -29.32,-36.82 -23.98,-2.39 -34.17,16.83 -34.17,16.83" /><path
         id="path60"
         style="fill:#22434d;fill-opacity:1;fill-rule:nonzero;stroke:none"
         d="m 1269.56,3227.09 c 0,0 1.55,22.38 10.13,22.73 8.58,0.33 18.86,-16.24 18.86,-16.24 l 10.73,9.18 -11.82,-4.32 c 0,0 -10.54,17.33 -18.7,15.54 -11.61,-2.55 -9.2,-26.89 -9.2,-26.89" /><path
         id="path62"
         style="fill:#22434d;fill-opacity:1;fill-rule:nonzero;stroke:none"
         d="m 1203.51,3209.6 c 0,0 -10.95,19.59 -18.85,16.24 -7.91,-3.35 -10.13,-22.73 -10.13,-22.73 l -13.63,3.73 12.54,1.13 c 0,0 2.14,20.17 10.29,22.03 11.59,2.65 19.78,-20.4 19.78,-20.4" /><path
         id="path64"
         style="fill:#dc4b44;fill-opacity:1;fill-rule:nonzero;stroke:none"
         d="m 1251.3,3166.56 -3.53,6.7 c 5.71,3.01 6.19,7.07 5.6,9.94 -0.84,4.06 -4.15,7.28 -6.54,7.47 -1.37,0.07 -2.55,-1.1 -3.47,-3.54 l -7.1,2.64 c 3.04,8.18 8.8,8.62 11.15,8.45 6.03,-0.45 11.9,-6.37 13.38,-13.47 1.55,-7.44 -2,-14.24 -9.49,-18.19" /><path
         id="path66"
         style="fill:#1b3540;fill-opacity:1;fill-rule:nonzero;stroke:none"
         d="m 1142.98,3154.97 c 0,0 -21.16,77.86 -8.6,132.92 0,0 59.69,83.12 174.9,42.03 0,0 34.17,-55.02 51.1,-132.02 0,0 4.3,27.66 -7.16,89.26 -11.47,61.6 -66.12,99.87 -141.06,87.54 -74.94,-12.32 -155.14,-86.88 -69.18,-219.73" /><path
         id="path68"
         style="fill:#1b3540;fill-opacity:1;fill-rule:nonzero;stroke:none"
         d="m 1263.78,3347.19 c 0,0 4.57,-20.32 -15.2,-72.65 0,0 -14.22,14.86 -30.87,0 -16.65,-14.86 -50.47,-9.9 -62.01,-17.93 -11.54,-8.03 -11.54,-26.4 -11.54,-26.4 0,0 -10,22.87 0,50.29 0,0 -22.47,-28.56 -19.49,-63.84 0,0 -30.47,4.93 -29.09,55.2 1.39,50.27 72.85,131.6 153,126.32 80.16,-5.27 99.24,-132.19 99.24,-132.19 0,0 -7.31,5.75 -18.75,3.19 0,0 -1.77,26.88 -19.79,60.74 0,0 8.31,-24.44 0,-50.81 0,0 -22.33,11.71 -39.93,8.05 0,0 10.87,21.26 -5.57,60.03" /><path
         id="path70"
         style="fill:#f57559;fill-opacity:1;fill-rule:nonzero;stroke:none"
         d="m 1018.7,3040.4 c 39.02,30.76 69.39,-8.36 76.84,-62.47 7.44,-54.1 -63.1,-373.3 -117.505,-361.53 -20.996,4.54 -29.558,88.15 -29.558,88.15 0,0 21.277,89.75 35.043,224.83 6.328,62.08 14.839,94.99 35.18,111.02" /><path
         id="path72"
         style="fill:#f57559;fill-opacity:1;fill-rule:nonzero;stroke:none"
         d="m 905.195,2661.51 c -52.519,50.06 -146.687,216.11 -170.613,300.7 l 39.863,16.04 c 0,0 120.024,-171.7 174.735,-215 54.71,-43.29 73.95,-91.51 49.515,-132.8 -24.437,-41.29 -82.449,20.53 -93.5,31.06" /><path
         id="path74"
         style="fill:#f57559;fill-opacity:1;fill-rule:nonzero;stroke:none"
         d="m 750.953,3072.98 c -2.75,-54.3 41.508,-67.17 21.871,-108.85 -4.054,-8.61 -10.215,-13.18 -16.629,-15.45 -12.156,-4.3 -25.672,-0.24 -34.742,8.93 -21.035,21.26 -53.555,43.79 -70.867,53.67 -19.688,11.35 -8.535,14.45 -8.535,14.45 -1.906,0.9 -3.762,1.65 -5.617,2.4 -14.047,5.88 -25.274,8.1 -15.086,14.34 11.453,7.13 52.078,-7.71 52.078,-7.71 -52.871,35.21 -67.223,26.63 -57.567,34.11 13.172,10.24 63.438,-13.32 64.946,-14.03 -27.938,26.42 -48.192,32.4 -37.11,36.38 11.231,4.04 66.5,-35.99 86.672,-51.01 4.547,-3.37 7.328,-5.54 7.328,-5.54 -0.691,44.39 13.258,38.31 13.258,38.31" /><path
         id="path76"
         style="fill:#ef5640;fill-opacity:1;fill-rule:nonzero;stroke:none"
         d="m 730.367,3040.21 c 4.547,-3.37 7.328,-5.54 7.328,-5.54 0,0 -9.461,-15.91 2.793,-36.54 0,0 -22.496,14.77 -10.121,42.08" /><path
         id="path78"
         style="fill:#ef5640;fill-opacity:1;fill-rule:nonzero;stroke:none"
         d="m 684.012,3009.03 c -4.676,2.57 -31.352,17.59 -41.961,16.7 -1.906,0.9 -3.762,1.65 -5.617,2.4 7.129,9.4 42.273,-15.25 47.578,-19.1" /><path
         id="path80"
         style="fill:#6196b4;fill-opacity:1;fill-rule:nonzero;stroke:none"
         d="m 893.652,2203.28 c 0,-5.9 -4.781,-10.68 -10.675,-10.68 -5.891,0 -10.672,4.78 -10.672,10.68 0,5.89 4.781,10.67 10.672,10.67 5.894,0 10.675,-4.78 10.675,-10.67" /><path
         id="path82"
         style="fill:#6196b4;fill-opacity:1;fill-rule:nonzero;stroke:none"
         d="m 1084.05,2129.82 c 0,-5.89 -4.78,-10.67 -10.67,-10.67 -5.9,0 -10.68,4.78 -10.68,10.67 0,5.9 4.78,10.68 10.68,10.68 5.89,0 10.67,-4.78 10.67,-10.68" /><path
         id="path84"
         style="fill:#6196b4;fill-opacity:1;fill-rule:nonzero;stroke:none"
         d="m 1246.29,2090.44 c 0,-5.9 -4.78,-10.68 -10.67,-10.68 -5.9,0 -10.67,4.78 -10.67,10.68 0,5.89 4.77,10.67 10.67,10.67 5.89,0 10.67,-4.78 10.67,-10.67" /><path
         id="path86"
         style="fill:#6196b4;fill-opacity:1;fill-rule:nonzero;stroke:none"
         d="m 997.012,2342.63 c 0,-5.89 -4.782,-10.67 -10.676,-10.67 -5.895,0 -10.676,4.78 -10.676,10.67 0,5.9 4.781,10.68 10.676,10.68 5.894,0 10.676,-4.78 10.676,-10.68" /><path
         id="path88"
         style="fill:#6196b4;fill-opacity:1;fill-rule:nonzero;stroke:none"
         d="m 1032.95,2241.22 c 0,-5.89 -4.78,-10.67 -10.67,-10.67 -5.9,0 -10.68,4.78 -10.68,10.67 0,5.9 4.78,10.68 10.68,10.68 5.89,0 10.67,-4.78 10.67,-10.68" /><path
         id="path90"
         style="fill:#6196b4;fill-opacity:1;fill-rule:nonzero;stroke:none"
         d="m 1201.78,2183.42 c 0,-5.9 -4.78,-10.67 -10.67,-10.67 -5.9,0 -10.68,4.77 -10.68,10.67 0,5.89 4.78,10.67 10.68,10.67 5.89,0 10.67,-4.78 10.67,-10.67" /><path
         id="path92"
         style="fill:#6196b4;fill-opacity:1;fill-rule:nonzero;stroke:none"
         d="m 1224.95,2358.35 c 0,-5.89 -4.78,-10.67 -10.68,-10.67 -5.89,0 -10.67,4.78 -10.67,10.67 0,5.9 4.78,10.68 10.67,10.68 5.9,0 10.68,-4.78 10.68,-10.68" /><path
         id="path94"
         style="fill:#6196b4;fill-opacity:1;fill-rule:nonzero;stroke:none"
         d="m 1114.32,2394.76 c 0,-5.89 -4.77,-10.67 -10.67,-10.67 -5.89,0 -10.67,4.78 -10.67,10.67 0,5.9 4.78,10.68 10.67,10.68 5.9,0 10.67,-4.78 10.67,-10.68" /><path
         id="path96"
         style="fill:#6196b4;fill-opacity:1;fill-rule:nonzero;stroke:none"
         d="m 799.211,1995.08 c 0,-5.89 -4.777,-10.67 -10.672,-10.67 -5.894,0 -10.676,4.78 -10.676,10.67 0,5.9 4.782,10.68 10.676,10.68 5.895,0 10.672,-4.78 10.672,-10.68" /><path
         id="path98"
         style="fill:#6196b4;fill-opacity:1;fill-rule:nonzero;stroke:none"
         d="m 647.105,2040.46 c 0,-5.89 -4.777,-10.67 -10.671,-10.67 -5.895,0 -10.676,4.78 -10.676,10.67 0,5.9 4.781,10.68 10.676,10.68 5.894,0 10.671,-4.78 10.671,-10.68" /><path
         id="path100"
         style="fill:#6196b4;fill-opacity:1;fill-rule:nonzero;stroke:none"
         d="m 556.441,2123.91 c -1.886,-2.89 -5.214,-4.77 -8.992,-4.77 -5.883,0 -10.656,4.77 -10.656,10.65 0,1.34 0.223,2.56 0.777,3.67 6.66,-2.33 12.879,-5.55 18.871,-9.55" /><path
         id="path102"
         style="fill:#6196b4;fill-opacity:1;fill-rule:nonzero;stroke:none"
         d="m 853.711,1855.89 c 0,-5.89 -4.781,-10.67 -10.676,-10.67 -5.894,0 -10.676,4.78 -10.676,10.67 0,5.9 4.782,10.68 10.676,10.68 5.895,0 10.676,-4.78 10.676,-10.68" /><path
         id="path104"
         style="fill:#6196b4;fill-opacity:1;fill-rule:nonzero;stroke:none"
         d="m 580.719,1704.62 c 0,-5.89 -4.778,-10.67 -10.672,-10.67 -5.895,0 -10.676,4.78 -10.676,10.67 0,5.9 4.781,10.67 10.676,10.67 5.894,0 10.672,-4.77 10.672,-10.67" /><path
         id="path106"
         style="fill:#6196b4;fill-opacity:1;fill-rule:nonzero;stroke:none"
         d="m 692.242,1796.32 c 0,-5.9 -4.777,-10.68 -10.672,-10.68 -5.894,0 -10.675,4.78 -10.675,10.68 0,5.89 4.781,10.67 10.675,10.67 5.895,0 10.672,-4.78 10.672,-10.67" /><path
         id="path108"
         style="fill:#6196b4;fill-opacity:1;fill-rule:nonzero;stroke:none"
         d="m 526.148,1877.45 c 0,-5.9 -4.777,-10.68 -10.671,-10.68 -5.899,0 -10.676,4.78 -10.676,10.68 0,5.89 4.777,10.67 10.676,10.67 5.894,0 10.671,-4.78 10.671,-10.67" /><path
         id="path110"
         style="fill:#6196b4;fill-opacity:1;fill-rule:nonzero;stroke:none"
         d="m 660.223,1557.98 c 0,-5.9 -4.778,-10.68 -10.672,-10.68 -5.899,0 -10.676,4.78 -10.676,10.68 0,5.89 4.777,10.67 10.676,10.67 5.894,0 10.672,-4.78 10.672,-10.67" /><path
         id="path112"
         style="fill:#6196b4;fill-opacity:1;fill-rule:nonzero;stroke:none"
         d="m 761.836,2119.15 c 0,-5.89 -4.777,-10.67 -10.672,-10.67 -5.894,0 -10.676,4.78 -10.676,10.67 0,5.9 4.782,10.67 10.676,10.67 5.895,0 10.672,-4.77 10.672,-10.67" /><path
         id="path114"
         style="fill:#6196b4;fill-opacity:1;fill-rule:nonzero;stroke:none"
         d="m 864.383,2298.9 c 0,-5.9 -4.778,-10.68 -10.672,-10.68 -5.898,0 -10.676,4.78 -10.676,10.68 0,5.89 4.778,10.67 10.676,10.67 5.894,0 10.672,-4.78 10.672,-10.67" /><path
         id="path116"
         style="fill:#6196b4;fill-opacity:1;fill-rule:nonzero;stroke:none"
         d="m 980.43,2448.49 c 0,-5.89 -4.782,-10.67 -10.676,-10.67 -5.895,0 -10.672,4.78 -10.672,10.67 0,5.9 4.777,10.68 10.672,10.68 5.894,0 10.676,-4.78 10.676,-10.68" /><path
         id="path118"
         style="fill:#6196b4;fill-opacity:1;fill-rule:nonzero;stroke:none"
         d="m 745.254,2230.55 c 0,-5.9 -4.777,-10.67 -10.672,-10.67 -5.894,0 -10.676,4.77 -10.676,10.67 0,5.89 4.782,10.67 10.676,10.67 5.895,0 10.672,-4.78 10.672,-10.67" /><path
         id="path120"
         style="fill:#6196b4;fill-opacity:1;fill-rule:nonzero;stroke:none"
         d="m 875.059,2405.44 c 0,-5.9 -4.782,-10.68 -10.676,-10.68 -5.895,0 -10.672,4.78 -10.672,10.68 0,5.89 4.777,10.67 10.672,10.67 5.894,0 10.676,-4.78 10.676,-10.67" /><path
         id="path122"
         style="fill:#6196b4;fill-opacity:1;fill-rule:nonzero;stroke:none"
         d="m 670.895,1924.86 c 0,-5.9 -4.778,-10.68 -10.672,-10.68 -5.895,0 -10.672,4.78 -10.672,10.68 0,5.89 4.777,10.67 10.672,10.67 5.894,0 10.672,-4.78 10.672,-10.67" /><path
         id="path124"
         style="fill:#6196b4;fill-opacity:1;fill-rule:nonzero;stroke:none"
         d="m 536.82,2019.12 c 0,-5.9 -4.777,-10.68 -10.672,-10.68 -5.894,0 -10.671,4.78 -10.671,10.68 0,5.89 4.777,10.67 10.671,10.67 5.895,0 10.672,-4.78 10.672,-10.67" /><path
         id="path126"
         style="fill:#6196b4;fill-opacity:1;fill-rule:nonzero;stroke:none"
         d="m 925.676,2051.14 c 0,-5.9 -4.781,-10.68 -10.676,-10.68 -5.895,0 -10.676,4.78 -10.676,10.68 0,5.89 4.781,10.67 10.676,10.67 5.895,0 10.676,-4.78 10.676,-10.67" /><path
         id="path128"
         style="fill:#6196b4;fill-opacity:1;fill-rule:nonzero;stroke:none"
         d="m 1146.35,1995.08 c 0,-5.89 -4.78,-10.67 -10.68,-10.67 -5.89,0 -10.67,4.78 -10.67,10.67 0,5.9 4.78,10.68 10.67,10.68 5.9,0 10.68,-4.78 10.68,-10.68" /><path
         id="path130"
         style="fill:#6196b4;fill-opacity:1;fill-rule:nonzero;stroke:none"
         d="m 1135.67,2298.9 c 0,-5.9 -4.78,-10.68 -10.67,-10.68 -5.9,0 -10.68,4.78 -10.68,10.68 0,5.89 4.78,10.67 10.68,10.67 5.89,0 10.67,-4.78 10.67,-10.67" /><path
         id="path132"
         style="fill:#6196b4;fill-opacity:1;fill-rule:nonzero;stroke:none"
         d="m 1263.96,2276.52 c 0,-5.9 -4.78,-10.68 -10.67,-10.68 -5.9,0 -10.68,4.78 -10.68,10.68 0,5.89 4.78,10.67 10.68,10.67 5.89,0 10.67,-4.78 10.67,-10.67" /><path
         id="path134"
         style="fill:#6196b4;fill-opacity:1;fill-rule:nonzero;stroke:none"
         d="m 1007.68,1914.18 c 0,-5.89 -4.78,-10.67 -10.668,-10.67 -5.899,0 -10.676,4.78 -10.676,10.67 0,5.9 4.777,10.68 10.676,10.68 5.888,0 10.668,-4.78 10.668,-10.68" /><path
         id="path136"
         style="fill:#6196b4;fill-opacity:1;fill-rule:nonzero;stroke:none"
         d="m 915,1724.32 c 0,-5.89 -4.777,-10.67 -10.676,-10.67 -5.894,0 -10.672,4.78 -10.672,10.67 0,5.9 4.778,10.68 10.672,10.68 5.899,0 10.676,-4.78 10.676,-10.68" /><path
         id="path138"
         style="fill:#6196b4;fill-opacity:1;fill-rule:nonzero;stroke:none"
         d="m 751.164,1693.95 c 0,-5.9 -4.777,-10.68 -10.676,-10.68 -5.894,0 -10.672,4.78 -10.672,10.68 0,5.89 4.778,10.67 10.672,10.67 5.899,0 10.676,-4.78 10.676,-10.67" /><path
         id="path140"
         style="fill:#6196b4;fill-opacity:1;fill-rule:nonzero;stroke:none"
         d="m 1201.78,1855.89 c 0,-5.89 -4.78,-10.67 -10.67,-10.67 -5.9,0 -10.68,4.78 -10.68,10.67 0,5.9 4.78,10.68 10.68,10.68 5.89,0 10.67,-4.78 10.67,-10.68" /><path
         id="path142"
         style="fill:#6196b4;fill-opacity:1;fill-rule:nonzero;stroke:none"
         d="m 1054.3,1774.97 c 0,-5.89 -4.78,-10.67 -10.67,-10.67 -5.9,0 -10.68,4.78 -10.68,10.67 0,5.9 4.78,10.67 10.68,10.67 5.89,0 10.67,-4.77 10.67,-10.67" /><path
         id="path144"
         style="fill:#6196b4;fill-opacity:1;fill-rule:nonzero;stroke:none"
         d="m 832.359,1536.63 c 0,-5.9 -4.777,-10.68 -10.671,-10.68 -5.895,0 -10.672,4.78 -10.672,10.68 0,5.89 4.777,10.67 10.672,10.67 5.894,0 10.671,-4.78 10.671,-10.67" /><path
         id="path146"
         style="fill:#6196b4;fill-opacity:1;fill-rule:nonzero;stroke:none"
         d="m 997.012,1592.21 c 0,-5.9 -4.782,-10.68 -10.676,-10.68 -5.895,0 -10.676,4.78 -10.676,10.68 0,5.89 4.781,10.67 10.676,10.67 5.894,0 10.676,-4.78 10.676,-10.67" /><path
         id="path148"
         style="fill:#6196b4;fill-opacity:1;fill-rule:nonzero;stroke:none"
         d="m 1155.62,1655.09 c 0,-5.9 -4.78,-10.68 -10.67,-10.68 -5.9,0 -10.68,4.78 -10.68,10.68 0,5.89 4.78,10.67 10.68,10.67 5.89,0 10.67,-4.78 10.67,-10.67" /><path
         id="path150"
         style="fill:#6196b4;fill-opacity:1;fill-rule:nonzero;stroke:none"
         d="m 1084.05,1471.47 c 0,-5.9 -4.78,-10.68 -10.67,-10.68 -5.9,0 -10.68,4.78 -10.68,10.68 0,5.89 4.78,10.67 10.68,10.67 5.89,0 10.67,-4.78 10.67,-10.67" /><path
         id="path152"
         style="fill:#203e50;fill-opacity:1;fill-rule:nonzero;stroke:none"
         d="M 1072.38,909.398 H 897.07 c -11.437,32.641 9.66,65.391 6.106,94.152 -6.106,48.63 22.207,21.76 22.207,21.76 4.996,52.29 78.497,62.18 77.717,38.86 -1.22,-34.31 5.44,-55.51 15.21,-69.721 19.76,-28.539 52.18,-28.32 57.73,-48.738 0.56,-2 1,-4 1.33,-5.781 5.44,-25.532 -4.99,-30.532 -4.99,-30.532" /><path
         id="path154"
         style="fill:#284d5e;fill-opacity:1;fill-rule:nonzero;stroke:none"
         d="m 1077.37,939.93 c -36.3,-8.442 -120.015,2.558 -123.343,23.652 -3.222,20.43 41.856,29.977 64.283,30.867 19.76,-28.539 52.18,-28.32 57.73,-48.738 0.56,-2 1,-4 1.33,-5.781" /><path
         id="path156"
         style="fill:#203e50;fill-opacity:1;fill-rule:nonzero;stroke:none"
         d="m 351.711,2267.35 c -18.652,16.99 -48.961,-11.1 -48.961,-11.1 0,0 16.32,-24.2 5.773,-33.97 -10.546,-9.77 -22.761,12.54 -43.523,2.77 -1.664,-0.77 -3.441,-1.77 -5.105,-2.88 -16.211,-9.66 -33.086,-29.98 -46.743,-45.41 -2.773,-3.11 -5.441,-6 -7.882,-8.55 -15.875,-16.66 -56.844,-26.43 -64.508,17.98 -7.66,44.41 42.301,96.49 97.148,144.34 54.848,47.85 90.266,19.43 90.266,19.43 0,0 12.433,-20.1 12.433,-32.64 0,-12.44 11.102,-18.66 17.321,-30.54 6.218,-11.76 -6.219,-19.43 -6.219,-19.43" /><path
         id="path158"
         style="fill:#284d5e;fill-opacity:1;fill-rule:nonzero;stroke:none"
         d="m 259.895,2222.17 c -16.211,-9.66 -33.086,-29.98 -46.743,-45.41 -20.539,-4.89 -38.968,-3.44 -41.855,15.87 -6.996,46.64 86.043,105.92 78.605,73.17 -3.773,-16.43 2.664,-32.09 9.993,-43.63" /><path
         id="path160"
         style="fill:#d2dadc;fill-opacity:1;fill-rule:nonzero;stroke:none"
         d="m 3506.21,985.211 c -8.64,4.539 -16.61,14.519 -23.77,27.139 0,0.01 -6.16,37.33 0,76.54 6.17,39.22 -10.91,71.24 -66.42,83.27 -53.97,11.69 -85.99,-14.31 -73.53,-122.81 0,-0.01 0.01,-0.02 0.01,-0.04 -8.21,-45.07 -9.91,-96.54 8.81,-139.912 h 166.13 c 0,0 26.2,56.161 -11.23,75.813" /><path
         id="path162"
         style="fill:#f57559;fill-opacity:1;fill-rule:nonzero;stroke:none"
         d="m 3651.95,1570 c 0,0 0,-108.25 -61.07,-219.27 -62.18,-113.06 -139.05,-268.23 -139.05,-268.23 0,0 -51.22,-49.97 -83.77,32.8 0,0 22.98,288.16 75.71,393.64 52.74,105.47 208.18,61.06 208.18,61.06" /><path
         id="path164"
         style="fill:#f57559;fill-opacity:1;fill-rule:nonzero;stroke:none"
         d="m 4448.56,1922.51 c 0,0 98.94,-416.1 161.88,-525.86 0,0 -14.48,-45.92 -82.63,-59.8 0,0 -215.26,316.42 -229.14,449.65 -13.88,133.23 149.89,136.01 149.89,136.01" /><path
         id="path166"
         style="fill:#872b39;fill-opacity:1;fill-rule:nonzero;stroke:none"
         d="m 4496.41,1824.7 c -26.32,-63.4 -229.6,-66.84 -229.6,-66.84 l -15.55,22.87 -4.11,5.99 -31.75,46.86 c 0,0 -336.85,330.41 -402.47,302.65 h -0.11 c -1.88,-0.88 -3.77,-1.88 -5.55,-3.22 -45.07,-32.19 -49.29,-208.61 -102.59,-504.72 -5.1,-28.09 -16.43,-60.84 -24.98,-83.49 -1,-2.44 -1.88,-4.77 -2.77,-6.99 -4.89,-12.55 -8.33,-20.54 -8.33,-20.54 -205.62,-83.27 -273.46,81.27 -273.46,81.27 0,0 2.45,4.77 6,12.43 0.78,1.67 1.67,3.55 2.55,5.55 10.77,23.76 27.98,64.95 27.76,86.71 -0.22,23.87 -0.44,46.86 -0.55,68.95 0,2 0,3.89 -0.12,5.77 -0.33,71.17 -0.22,133.01 0.23,186.75 v 5.66 c 0.22,23.43 0.55,45.3 1,65.73 v 5.77 c 1.77,93.6 4.77,156.1 7.99,197.74 0.11,1.88 0.33,3.88 0.44,5.66 5.67,70.06 11.66,76.94 11.66,76.94 l -41.19,286.34 h 449.43 c 0,0 67.5,-67.62 155.1,-156.88 1.89,-1.78 3.67,-3.56 5.44,-5.44 31.76,-32.31 66.06,-67.4 100.48,-103.04 1.45,-1.44 2.78,-2.77 4,-4.1 13.54,-13.99 27.09,-27.98 40.52,-41.86 1.67,-1.66 3.22,-3.44 4.89,-5.11 45.08,-46.74 88.82,-92.81 126.24,-133.12 1.33,-1.33 2.55,-2.66 3.77,-3.99 51.18,-55.41 90.15,-99.7 103.59,-120.35 35.64,-54.52 63.39,-125.46 78.71,-169.32 0,0 0,0 0,-0.11 0.78,-2 1.45,-3.78 2.11,-5.66 7.22,-21.32 11.22,-34.86 11.22,-34.86" /><path
         id="path168"
         style="fill:#61242f;fill-opacity:1;fill-rule:nonzero;stroke:none"
         d="m 3519.38,2279.35 c -18.32,-21.65 -44.96,-34.98 -79.38,-39.75 0.11,1.88 0.33,3.88 0.44,5.66 32.42,4.66 57.51,17.32 74.72,37.75 30.87,36.42 25.87,85.6 25.76,86.04 l 5.55,0.67 c 0.22,-2.11 5.33,-52.07 -27.09,-90.37" /><path
         id="path170"
         style="fill:#61242f;fill-opacity:1;fill-rule:nonzero;stroke:none"
         d="m 4020.88,2446.22 c -1.77,-0.11 -3.44,-0.23 -5.21,-0.23 -49.96,0 -102.15,54.63 -104.81,57.4 l 4,3.89 c 0.66,-0.78 52.62,-55.18 100.58,-55.62 1.89,-1.78 3.67,-3.56 5.44,-5.44" /><path
         id="path172"
         style="fill:#61242f;fill-opacity:1;fill-rule:nonzero;stroke:none"
         d="m 3679.7,1544.8 c -1,-2.44 -1.88,-4.77 -2.77,-6.99 -33.31,-12.22 -63.84,-17.21 -91.71,-17.21 -88.82,0 -150.33,51.4 -184.08,90.37 0.78,1.67 1.67,3.55 2.55,5.55 43.19,-50.63 135.46,-125.35 276.01,-71.72" /><path
         id="path174"
         style="fill:#61242f;fill-opacity:1;fill-rule:nonzero;stroke:none"
         d="m 3800.39,2239.38 c 7.44,-31.87 12.21,-66.62 12.43,-103.15 -1.88,-0.88 -3.77,-1.88 -5.55,-3.22 -0.22,167.65 -97.26,298.44 -98.37,299.88 l 4.44,3.33 c 0.89,-1.11 58.4,-78.82 85.6,-191.07 11.33,7.44 18.99,18.1 22.21,31.86 13.99,58.85 -49.63,155 -50.18,155.99 l 4.55,3.11 c 2.66,-4.1 65.5,-99.14 51.07,-160.32 -3.77,-15.99 -12.66,-28.09 -26.2,-36.41" /><path
         id="path176"
         style="fill:#61242f;fill-opacity:1;fill-rule:nonzero;stroke:none"
         d="m 4300.78,2155 c -16.54,-17.99 -32.09,-33.31 -33.53,-34.64 l -3,-3 -1.44,4 c -21.76,56.95 -161.65,180.41 -163.1,181.63 l -1.66,1.56 23.31,38.63 c 1.45,-1.44 2.78,-2.77 4,-4.1 l -19.54,-32.42 c 27.2,-9.44 46.52,-11.1 60.06,-9.44 1.67,-1.66 3.22,-3.44 4.89,-5.11 -4.55,-0.77 -9.44,-1.22 -14.55,-1.22 -12.54,0 -26.86,2.56 -42.96,7.44 31.75,-28.64 130.45,-120.13 153.1,-171.09 8.77,8.66 19.88,20.1 30.65,31.75 1.33,-1.33 2.55,-2.66 3.77,-3.99" /><path
         id="path178"
         style="fill:#61242f;fill-opacity:1;fill-rule:nonzero;stroke:none"
         d="m 3533.15,1773.18 -2.22,-0.45 c -2.11,-0.55 -27.31,-5.77 -56.29,-5.77 -14.55,0 -29.87,1.33 -43.74,5.22 0,2 0,3.89 -0.12,5.77 36.64,-10.54 85.6,-2.44 96.71,-0.33 l -9.33,231.04 c -5.22,-12.65 -15.54,-29.97 -34.86,-39.52 -9.22,-4.66 -19.54,-6.88 -30.87,-6.88 -6.77,0 -13.87,0.77 -21.42,2.44 v 5.66 c 19.2,-4.44 35.86,-3.22 49.74,3.78 23.53,11.65 32.86,36.63 35.75,46.52 -18.55,-2.78 -55.96,6.66 -84.49,15.43 v 5.77 c 30.75,-9.32 72.38,-20.09 87.37,-14.88 l 3.56,1.23 10.21,-255.03" /><path
         id="path180"
         style="fill:#61242f;fill-opacity:1;fill-rule:nonzero;stroke:none"
         d="m 4485.19,1859.56 c -32.3,-31.87 -98.48,-80.61 -200.29,-80.61 -10.77,0 -21.98,0.56 -33.64,1.78 l -4.11,5.99 c 123.8,-14.21 201.41,43.86 235.93,78.5 0.78,-2 1.45,-3.78 2.11,-5.66" /><path
         id="path182"
         style="fill:#cf2548;fill-opacity:1;fill-rule:nonzero;stroke:none"
         d="m 3943.39,3825.9 c 0,0 -12.36,28.44 -64.53,28.45 -40.21,0.01 -55.6,-22.2 -55.6,-22.2 -24.06,-70.32 -49.91,-339.55 -59.17,-349.14 -4.69,-4.85 -302.95,-205.73 -302.95,-205.73 161.86,-3.04 262.85,-202.55 262.85,-202.55 5.23,65.56 188.03,325.36 189.99,348.53 3.7,43.7 81.03,238.88 29.41,402.64" /><path
         id="path184"
         style="fill:#cf2548;fill-opacity:1;fill-rule:nonzero;stroke:none"
         d="m 3425.59,2418.16 c 0,0 -1.5,-56.17 16.67,-59.88 18.17,-3.7 166.2,-47.45 336.44,29.94 170.24,77.39 199.85,134.75 149.89,177.31 -49.97,42.56 -503,-147.37 -503,-147.37" /><path
         id="path186"
         style="fill:#ef294d;fill-opacity:1;fill-rule:nonzero;stroke:none"
         d="m 3357.38,3238.4 c 0,0 -154.89,18.35 -243.71,-20.09 0,0 -24.77,-109.91 97.25,-355.9 122.02,-245.99 93.72,-400.92 231.34,-459.24 122,-51.7 481.7,102.16 493,153.19 28.44,128.46 -191.52,353.91 -205.4,484.55 -13.88,130.64 -141.56,327.05 -372.48,197.49" /><path
         id="path188"
         style="fill:#cf2548;fill-opacity:1;fill-rule:nonzero;stroke:none"
         d="m 3113.67,3218.31 c -108.25,-38.44 -230.03,-159.98 -230.21,-218.56 -0.17,-58.58 101.57,-81.16 101.57,-81.16 l 166.81,81.16 c 0,0 47.72,33.32 17.34,130.41 -30.37,97.1 -55.51,88.15 -55.51,88.15" /><path
         id="path190"
         style="fill:#d2dadc;fill-opacity:1;fill-rule:nonzero;stroke:none"
         d="m 3558.45,3109.99 c -32.34,0 -72.46,11.65 -97.38,29.42 -13.74,9.79 -21.94,20.83 -23.7,31.94 -6.12,38.45 31.32,57.99 32.92,58.8 l 5.05,-9.88 c -1.31,-0.67 -31.84,-16.77 -27,-47.18 1.28,-8.1 7.91,-16.61 19.17,-24.64 27.91,-19.89 76.18,-31.57 107.61,-26.02 14.16,2.49 23.43,7.59 27.54,15.13 5.03,9.23 0.73,19.67 0.69,19.78 l 10.2,4.38 c 0.28,-0.62 6.48,-15.32 -1.07,-29.33 -5.78,-10.74 -17.7,-17.77 -35.43,-20.89 -5.75,-1.02 -12.02,-1.51 -18.6,-1.51" /><path
         id="path192"
         style="fill:#d2dadc;fill-opacity:1;fill-rule:nonzero;stroke:none"
         d="m 3421.18,2992.85 c -23.95,0 -63.72,9.98 -69.3,49.31 -2.84,20.01 -1,36.7 0.6,51.42 2.38,21.68 4.25,38.8 -8.38,59.33 -20.86,33.87 -49.26,36.15 -50.46,36.23 l 0.67,11.08 c 1.42,-0.08 35.21,-2.47 59.24,-41.49 14.63,-23.77 12.36,-44.46 9.97,-66.36 -1.62,-14.76 -3.29,-30.02 -0.64,-48.65 6.02,-42.43 60.1,-39.77 62.39,-39.65 l 0.66,-11.08 c -1.5,-0.09 -3.09,-0.14 -4.75,-0.14" /><path
         id="path194"
         style="fill:#cf2548;fill-opacity:1;fill-rule:nonzero;stroke:none"
         d="m 3454.88,3192.11 c 0,0 81.88,55.77 62.45,116.14 -19.43,60.37 -283.12,56.2 -351.12,-15.96 -68,-72.17 147.11,-120.07 147.11,-120.07 16.65,33.56 123.05,37.26 141.56,19.89" /><path
         id="path196"
         style="fill:#9f2240;fill-opacity:1;fill-rule:nonzero;stroke:none"
         d="m 3307.66,3201.55 c -38.85,13.2 -61.88,41.24 -53.55,73.62 8.32,32.38 175.35,33.24 207.03,7.37 31.67,-25.87 -12.95,-128.7 -153.48,-80.99" /><path
         id="path198"
         style="fill:#ef5640;fill-opacity:1;fill-rule:nonzero;stroke:none"
         d="m 3289.17,3292.57 c 0,0 34.37,-58.73 18.49,-91.02 0,0 117.93,-40.71 117.93,25.27 0,0 -22.23,49.46 -13.85,81.43 l -122.57,-15.68" /><path
         id="path200"
         style="fill:#f9ad63;fill-opacity:1;fill-rule:nonzero;stroke:none"
         d="m 3249.85,3343.85 c 0,0 -57.94,92.8 -52.57,181.43 2.69,44.32 25.48,61.68 25.48,61.68 0,0 -18.4,25.58 1.32,64.67 0,0 27.29,-31.57 123.07,-21.61 92.36,9.6 101.57,-56.24 101.57,-56.24 66.01,-9.81 21.48,-209.52 -24.59,-229.93 h -174.28" /><path
         id="path202"
         style="fill:#f57559;fill-opacity:1;fill-rule:nonzero;stroke:none"
         d="m 3225.27,3429.54 c 0,0 -33.3,33.23 -37.4,-5.62 -4.75,-45.01 36.12,-63.14 44.12,-48.82 7.98,14.31 -6.72,54.44 -6.72,54.44" /><path
         id="path204"
         style="fill:#f57559;fill-opacity:1;fill-rule:nonzero;stroke:none"
         d="m 3458.46,3427.19 c 0,0 33.3,33.24 37.4,-5.61 4.75,-45.01 -36.13,-63.14 -44.12,-48.83 -7.99,14.32 6.72,54.44 6.72,54.44" /><path
         id="path206"
         style="fill:#f57559;fill-opacity:1;fill-rule:nonzero;stroke:none"
         d="m 3338.35,3266.51 c -73.89,0 -115.59,48.27 -115.59,193.02 0,74.67 37.99,120.47 120.75,120.47 82.77,0 117.63,-45.79 117.63,-120.47 0,-155.54 -46.45,-193.02 -122.79,-193.02" /><path
         id="path208"
         style="fill:#dc4b44;fill-opacity:1;fill-rule:nonzero;stroke:none"
         d="m 3436.67,3407.9 c 1.29,-7.42 -5.19,-14.76 -14.48,-16.38 -9.28,-1.62 -17.86,3.09 -19.16,10.52 -1.29,7.42 5.19,14.76 14.47,16.38 9.29,1.62 17.87,-3.09 19.17,-10.52" /><path
         id="path210"
         style="fill:#dc4b44;fill-opacity:1;fill-rule:nonzero;stroke:none"
         d="m 3284.68,3403.86 c -0.49,-7.53 -8.51,-13.13 -17.92,-12.51 -9.41,0.61 -16.64,7.21 -16.15,14.73 0.5,7.52 8.52,13.13 17.93,12.51 9.41,-0.61 16.63,-7.21 16.14,-14.73" /><path
         id="path212"
         style="fill:#f9ad63;fill-opacity:1;fill-rule:nonzero;stroke:none"
         d="m 3404.13,3485.52 c -0.97,-0.15 -1.98,0.08 -2.81,0.72 -11.77,9.04 -29.42,5.84 -29.69,5.8 -1.96,-0.32 -3.93,0.94 -4.3,2.95 -0.39,2 0.94,3.93 2.95,4.31 0.77,0.17 21.18,3.83 35.53,-7.21 1.62,-1.24 1.92,-3.56 0.68,-5.18 -0.6,-0.78 -1.46,-1.25 -2.36,-1.39" /><path
         id="path214"
         style="fill:#f9ad63;fill-opacity:1;fill-rule:nonzero;stroke:none"
         d="m 3262.71,3485 c -0.91,0.12 -1.78,0.56 -2.4,1.32 -1.29,1.58 -1.06,3.91 0.51,5.2 14,11.47 34.49,8.43 35.29,8.3 2.01,-0.32 3.39,-2.2 3.08,-4.22 -0.31,-2.01 -2.28,-3.35 -4.22,-3.08 -0.13,0.04 -18.11,2.61 -29.46,-6.71 -0.83,-0.67 -1.84,-0.93 -2.8,-0.81" /><path
         id="path216"
         style="fill:#22434d;fill-opacity:1;fill-rule:nonzero;stroke:none"
         d="m 3396.49,3443.81 c 0,-9.18 -4.13,-16.62 -9.23,-16.62 -5.1,0 -9.23,7.44 -9.23,16.62 0,9.18 4.13,16.62 9.23,16.62 5.09,0 9.23,-7.44 9.23,-16.62" /><path
         id="path218"
         style="fill:#22434d;fill-opacity:1;fill-rule:nonzero;stroke:none"
         d="m 3297.81,3443.81 c 0,-9.18 -4.13,-16.62 -9.23,-16.62 -5.1,0 -9.23,7.44 -9.23,16.62 0,9.18 4.13,16.62 9.23,16.62 5.1,0 9.23,-7.44 9.23,-16.62" /><path
         id="path220"
         style="fill:#f9ad63;fill-opacity:1;fill-rule:nonzero;stroke:none"
         d="m 3245.43,3563.97 c 0,0 78.74,-28.83 191.64,-20.72 0,0 24.07,-30.01 21.15,-135.87 0,0 66.1,190.7 -126.88,190.7 -192.98,0 -106.04,-186.47 -106.04,-186.47 0,0 -15.77,116.63 20.13,152.36" /><path
         id="path222"
         style="fill:#dc4b44;fill-opacity:1;fill-rule:nonzero;stroke:none"
         d="m 3343.03,3394.47 -5.53,5.57 14.61,14.52 c -14.17,20.04 -14.09,66.41 -14.08,68.48 l 7.85,-0.05 c 0,-0.5 -0.08,-50.39 14.39,-66.07 l 2.57,-2.78 -19.81,-19.67" /><path
         id="path224"
         style="fill:#22434d;fill-opacity:1;fill-rule:nonzero;stroke:none"
         d="m 3293.99,3370.3 c 0,0 72.72,-3.07 109.44,6.64 0,0 6.49,-52.88 -49.87,-55.51 -59.57,-2.77 -59.57,48.87 -59.57,48.87" /><path
         id="path226"
         style="fill:#d2dadc;fill-opacity:1;fill-rule:nonzero;stroke:none"
         d="m 3604.76,3170.36 c 13.88,2.57 12.49,-33.74 0,-23.22 -12.49,10.53 -13.88,20.64 0,23.22" /><path
         id="path228"
         style="fill:#d2dadc;fill-opacity:1;fill-rule:nonzero;stroke:none"
         d="m 3437.4,2994.37 c -2.12,-13.96 -35.97,-0.74 -21.93,7.61 14.03,8.35 24.04,6.35 21.93,-7.61" /><path
         id="path230"
         style="fill:#ef5640;fill-opacity:1;fill-rule:nonzero;stroke:none"
         d="m 3288.43,2918.59 c 0,0 -22.04,-56.52 -20.78,-88.44 1.26,-31.93 11.7,-27.76 11.7,-27.76 0,0 -16.71,-6.58 -19.88,-24.98 -3.16,-18.41 43.3,-31.92 46.49,-31.92 3.2,0 35.99,12.49 35.99,12.49 l 6.87,104.43 -29.02,18.23 -31.37,37.95" /><path
         id="path232"
         style="fill:#f57559;fill-opacity:1;fill-rule:nonzero;stroke:none"
         d="m 3305.96,2925.9 c 0,0 40.12,-24.98 55.66,-40.24 15.54,-15.27 6.67,-133.23 0,-138.79 -6.67,-5.55 -57.82,-16.99 -67.63,-10.58 -9.82,6.42 3.82,41.12 3.82,41.12 0,0 25.69,5.55 21.99,-4.17 -3.71,-9.71 0,-18.04 0,-18.04 l 10.55,4.16 c 0,0 -5.18,26.37 0,45.8 5.17,19.43 -36.17,39.92 -41.18,75.48 -5,35.55 16.79,45.26 16.79,45.26" /><path
         id="path234"
         style="fill:#cf2548;fill-opacity:1;fill-rule:nonzero;stroke:none"
         d="m 2890.13,2983.37 c -12.85,55.48 42.2,75.1 118.79,65.64 88.82,-10.97 271.23,-34.2 310.88,-130.42 0,0 12.95,-37.95 -20.57,-56.18 -93.69,-50.96 -384.98,16.78 -409.1,120.96" /><path
         id="path236"
         style="fill:#9f2240;fill-opacity:1;fill-rule:nonzero;stroke:none"
         d="m 3167.98,3020.13 c 0,0 -105.86,43.98 -158.59,48.43 -52.74,4.45 72.92,-41.63 158.59,-48.43" /><path
         id="path238"
         style="fill:#f57559;fill-opacity:1;fill-rule:nonzero;stroke:none"
         d="m 3961.49,3973.15 c -8,-9.1 -21.21,-44.52 -21.21,-44.52 -5.55,-29.75 -8.77,-46.19 -19.21,-59.84 -10.32,-13.66 -4.88,-37.75 -4.88,-37.75 0,0 -40.42,-20.76 -74.39,4.88 0,0 3.55,23.87 0,30.65 -6.99,13.54 -29.42,20.76 -37.08,48.07 -7.66,27.42 -30.65,57.96 -30.65,57.96 0,0 6.56,14.21 18.55,5.55 12.1,-8.77 19.76,-30.65 26.31,-32.87 1.33,-0.44 2.66,-0.77 4,-0.89 0,0 0.11,0 0.33,-0.11 5,-0.66 10.1,0.45 13.21,3.45 0.22,0.11 0.56,0.33 0.78,0.66 10.99,12.77 13.54,50.3 13.1,67.06 -0.67,23.32 0.22,55.51 14.43,50.07 14.21,-5.43 1.22,-18.43 12.22,-69.83 l 5.32,-0.67 c 1,-3.66 10.77,31.2 13.11,63.95 1.66,22.54 16.43,14.21 19.65,7.11 3.33,-7.11 -1.67,-29.53 -2.67,-45.85 -0.77,-10.77 -1.66,-21.99 -2.22,-28.65 l 6.22,-3.44 c 22.43,39.08 14.77,55.29 27.87,56.07 12.99,0.77 8.32,-32.2 1.33,-44.75 -3,-5.44 -5.89,-16.76 -8.22,-27.86 22.99,26.53 20.43,40.41 30.98,38.74 10.88,-1.77 1.11,-28.08 -6.88,-37.19" /><path
         id="path240"
         style="fill:#ef5640;fill-opacity:1;fill-rule:nonzero;stroke:none"
         d="m 3862.23,3911.98 c -7.77,21.42 -35.53,31.19 -38.97,32.3 5,-0.66 10.1,0.45 13.21,3.45 27.2,-12.22 25.76,-35.75 25.76,-35.75" /><path
         id="path242"
         style="fill:#d2dadc;fill-opacity:1;fill-rule:nonzero;stroke:none"
         d="m 3379.93,1072.25 c 0,0 -15.36,31.35 -1.66,44.82 13.69,13.47 29.82,-11.51 53.21,-5.96 23.4,5.55 28.82,22.18 34.9,-0.47 6.08,-22.66 -1.33,-93.9 -86.45,-38.39" /><path
         id="path244"
         style="fill:#acbfc3;fill-opacity:1;fill-rule:nonzero;stroke:none"
         d="m 3468,1073.64 c 0,0 -62.84,-22.26 -95.42,0 l 8.28,-27.2 c 0,0 68.3,-7.24 77.72,9.98 l 9.42,17.22" /><path
         id="path246"
         style="fill:#acbfc3;fill-opacity:1;fill-rule:nonzero;stroke:none"
         d="m 3467.15,1039.84 c 0,0 -57.53,7.99 -85.29,-6.3 v -13.49 c 0,0 75.01,17.51 99.26,0 l -13.97,19.79" /><path
         id="path248"
         style="fill:#acbfc3;fill-opacity:1;fill-rule:nonzero;stroke:none"
         d="m 3379.1,992.051 c 0,0 11.16,27.189 46.16,29.139 35,1.95 58.62,-17.32 58.62,-17.32 0,0 -55.51,22.87 -104.78,-11.819" /><path
         id="path250"
         style="fill:#d2dadc;fill-opacity:1;fill-rule:nonzero;stroke:none"
         d="m 4860.02,1369.82 c -110.47,-147.44 -260.8,-175.75 -260.8,-175.75 -43.64,34.86 -44.75,76.16 -44.75,76.16 0,0 -42.08,37.53 -47.63,55.52 -5.55,17.98 36.09,72.16 61.07,66.61 17.21,-3.77 27.2,-17.54 31.75,-25.65 -20.65,46.52 -4.11,62.73 25.2,58.74 30.54,-4.11 1.67,-11.33 23.54,-35.86 1.56,-1.78 3.33,-3.22 5.22,-4.56 4,-2.77 8.77,-4.66 14.21,-5.66 4.77,-0.89 10.1,-1.11 15.66,-0.78 2.88,0.12 5.88,0.45 8.88,0.89 5.66,0.89 11.43,2.33 17.43,4.22 9.21,2.89 18.76,7 28.09,12.1 38.19,20.88 54.29,27.98 83.38,20.54 28.98,-7.32 28.53,-29.31 28.53,-29.31 l 10.22,-17.21" /><path
         id="path252"
         style="fill:#acbfc3;fill-opacity:1;fill-rule:nonzero;stroke:none"
         d="m 4860.02,1369.82 c -110.47,-147.44 -260.8,-175.75 -260.8,-175.75 76.72,32.97 147.22,76.16 195.4,129.35 48.08,53.18 65.4,46.4 65.4,46.4" /><path
         id="path254"
         style="fill:#acbfc3;fill-opacity:1;fill-rule:nonzero;stroke:none"
         d="m 4653.62,1385.03 c 4,-2.77 8.77,-4.66 14.21,-5.66 -29.2,-5.88 -31.31,-31.97 -31.31,-31.97 l -12.43,3.99 c 2.66,31.31 27.42,33.53 29.53,33.64" /><path
         id="path256"
         style="fill:#acbfc3;fill-opacity:1;fill-rule:nonzero;stroke:none"
         d="m 4673.27,1344.29 -12.99,-0.45 c -4.88,18.43 1.44,29.43 7.55,35.53 4.77,-0.89 10.1,-1.11 15.66,-0.78 -15.44,-15.21 -10.22,-34.3 -10.22,-34.3" /><path
         id="path258"
         style="fill:#acbfc3;fill-opacity:1;fill-rule:nonzero;stroke:none"
         d="m 4705.36,1351.39 -12.88,-1.66 c -5,13.1 -3.55,22.87 -0.11,29.75 5.66,0.89 11.43,2.33 17.43,4.22 -10.66,-15.87 -4.44,-32.31 -4.44,-32.31" /><path
         id="path260"
         style="fill:#cf2548;fill-opacity:1;fill-rule:nonzero;stroke:none"
         d="m 3469.14,2720.5 c 0,0 28.51,-153.86 -29.14,-215.17 -57.65,-61.32 -19.52,-10.93 -2.32,68.12 17.2,79.05 4.1,162.31 31.46,147.05" /><path
         id="path262"
         style="fill:#cf2548;fill-opacity:1;fill-rule:nonzero;stroke:none"
         d="m 3735.22,2789.17 c 0,0 90.88,-29.86 138.42,-113.8 0,0 -63.48,136.66 -138.42,113.8" /><path
         id="path264"
         style="fill:#f57559;fill-opacity:1;fill-rule:nonzero;stroke:none"
         d="m 1374.73,3932.29 c 12.12,-0.19 47.23,-14.17 47.23,-14.17 25.78,-15.87 40.12,-24.51 57.25,-25.95 17.05,-1.51 24.05,-30.81 24.05,-30.81 0,0 67.25,-14.71 71.05,27.69 0,0 -37.6,53.21 -40.23,60.39 -5.35,14.27 4.36,35.74 -10.74,59.75 -15.18,24.09 -22.38,61.62 -22.38,61.62 0,0 -14.93,4.69 -16.56,-10.01 -1.62,-14.86 9.44,-35.22 6.69,-41.57 -0.56,-1.28 -1.21,-2.5 -2.02,-3.55 0,0 -0.08,-0.09 -0.15,-0.33 -2.86,-4.15 -7.11,-7.19 -11.42,-7.48 -0.23,-0.09 -0.62,-0.19 -1.01,-0.13 -16.84,0.43 -46.37,23.73 -58.5,35.31 -16.83,16.15 -41.29,37.11 -46.8,22.92 -5.51,-14.18 12.84,-13.27 43.56,-55.93 l -3.08,-4.4 c 2.04,-3.2 -30.36,12.97 -56.2,33.22 -17.82,13.9 -21.56,-2.63 -18.46,-9.79 3.04,-7.24 23.01,-18.59 35.78,-28.81 8.5,-6.65 17.41,-13.52 22.72,-17.58 l -1.63,-6.92 c -44.02,9.61 -50.89,26.17 -60.26,16.98 -9.3,-9.1 18.27,-27.78 32.27,-31.02 6.04,-1.43 16.37,-6.9 26.17,-12.62 -35.1,0.78 -43.67,11.99 -49.52,3.05 -5.98,-9.25 20.08,-19.67 32.19,-19.86" /><path
         id="path266"
         style="fill:#ef5640;fill-opacity:1;fill-rule:nonzero;stroke:none"
         d="m 1486.71,3964.78 c -10.67,20.15 0.73,47.28 2.21,50.57 -2.86,-4.15 -7.11,-7.19 -11.42,-7.48 -9.21,-28.36 9.21,-43.09 9.21,-43.09" /><path
         id="path268"
         style="fill:#f57559;fill-opacity:1;fill-rule:nonzero;stroke:none"
         d="m 3353.29,3932.29 c -12.12,-0.19 -47.24,-14.17 -47.24,-14.17 -25.78,-15.87 -40.12,-24.51 -57.24,-25.95 -17.06,-1.51 -24.05,-30.81 -24.05,-30.81 0,0 -67.25,-14.71 -71.05,27.69 0,0 37.6,53.21 40.23,60.39 5.34,14.27 -4.36,35.74 10.74,59.75 15.18,24.09 22.38,61.62 22.38,61.62 0,0 14.93,4.69 16.56,-10.01 1.62,-14.86 -9.44,-35.22 -6.69,-41.57 0.56,-1.28 1.21,-2.5 2.02,-3.55 0,0 0.08,-0.09 0.14,-0.33 2.86,-4.15 7.12,-7.19 11.42,-7.48 0.24,-0.09 0.62,-0.19 1.02,-0.13 16.84,0.43 46.37,23.73 58.5,35.31 16.83,16.15 41.29,37.11 46.8,22.92 5.51,-14.18 -12.84,-13.27 -43.56,-55.93 l 3.08,-4.4 c -2.04,-3.2 30.35,12.97 56.19,33.22 17.83,13.9 21.57,-2.63 18.46,-9.79 -3.03,-7.24 -23,-18.59 -35.77,-28.81 -8.5,-6.65 -17.41,-13.52 -22.72,-17.58 l 1.62,-6.92 c 44.02,9.61 50.9,26.17 60.27,16.98 9.29,-9.1 -18.28,-27.78 -32.27,-31.02 -6.04,-1.43 -16.38,-6.9 -26.17,-12.62 35.1,0.78 43.67,11.99 49.51,3.05 5.99,-9.25 -20.07,-19.67 -32.18,-19.86" /><path
         id="path270"
         style="fill:#ef5640;fill-opacity:1;fill-rule:nonzero;stroke:none"
         d="m 3241.31,3964.78 c 10.66,20.15 -0.73,47.28 -2.22,50.57 2.86,-4.15 7.12,-7.19 11.42,-7.48 9.21,-28.36 -9.2,-43.09 -9.2,-43.09" /><path
         id="path272"
         style="fill:#1b3540;fill-opacity:1;fill-rule:nonzero;stroke:none"
         d="m 2762.31,1893.83 -129.19,799.91 -258.69,-28.89 -258.68,28.89 -129.19,-799.91 -62.05,-775.81 c 0,0 19.73,-64.29 148.78,-19.88 0,0 95.73,719.58 110.54,735.43 14.8,15.85 166.83,485.86 166.83,485.86 h 47.55 c 0,0 152.02,-470.01 166.83,-485.86 14.8,-15.85 110.54,-735.43 110.54,-735.43 129.05,-44.41 148.77,19.88 148.77,19.88 l -62.04,775.81" /><path
         id="path274"
         style="fill:#1f436b;fill-opacity:1;fill-rule:nonzero;stroke:none"
         d="m 2292.94,3468.36 c 16.34,-15.9 96.73,-44.59 139.18,0 l 28.79,-28.27 c 0,0 -32.82,-77.18 -90.42,-79.88 -57.59,-2.7 -99.23,68.67 -99.23,68.67 l 21.68,39.48" /><path
         id="path276"
         style="fill:#1f436b;fill-opacity:1;fill-rule:nonzero;stroke:none"
         d="m 2520.61,3477.07 c 96.22,41.43 407.09,151.55 407.09,151.55 0,0 208.98,261.82 251.6,300.68 0,0 46.26,-8.33 59.79,-65.93 0,0 -134.56,-288.14 -207.71,-370.63 -73.15,-82.49 -443.62,-260.9 -443.62,-260.9 l -67.15,245.23" /><path
         id="path278"
         style="fill:#f9ad63;fill-opacity:1;fill-rule:nonzero;stroke:none"
         d="m 2183.83,3483.01 c 28.62,18.11 172.34,-78.04 172.34,-78.04 0,0 186.84,99.22 230.69,80 0,0 39.51,-52.87 55.39,-188.81 15.88,-135.95 16.93,-695.36 16.93,-695.36 0,0 -125.62,-44.44 -295.53,-44.44 -193.7,0 -297.91,55.55 -297.91,55.55 0,0 -34.57,774.55 118.09,871.1" /><path
         id="path280"
         style="fill:#ef5640;fill-opacity:1;fill-rule:nonzero;stroke:none"
         d="m 2300.53,3497.54 c 0,0 20.69,-65.08 0,-90.16 0,0 21.49,-45.1 60.12,-47.09 44.62,-2.3 60.11,47.09 60.11,47.09 0,0 -23.6,62.86 0,84.96 l -120.23,5.2" /><path
         id="path282"
         style="fill:#872b39;fill-opacity:1;fill-rule:nonzero;stroke:none"
         d="m 2248.94,3561.61 c 0,0 -43.55,83.83 -34.92,173.4 8.62,89.58 143.58,110.11 234.54,66.11 0,0 -27,26.4 -16.44,33.74 10.57,7.33 28.79,-39.61 28.79,-39.61 0,0 28.73,8.8 33.13,0 4.4,-8.81 -29.44,-13.62 -29.44,-13.62 0,0 58.7,-32.55 3.86,-205.78 l -219.52,-14.24" /><path
         id="path284"
         style="fill:#f57559;fill-opacity:1;fill-rule:nonzero;stroke:none"
         d="m 2242.39,3614.7 c 0,0 -32.47,32.4 -36.47,-5.48 -4.63,-43.89 35.23,-61.57 43.02,-47.61 7.79,13.97 -6.55,53.09 -6.55,53.09" /><path
         id="path286"
         style="fill:#f57559;fill-opacity:1;fill-rule:nonzero;stroke:none"
         d="m 2469.77,3612.41 c 0,0 32.48,32.41 36.47,-5.47 4.63,-43.89 -35.23,-61.57 -43.02,-47.61 -7.79,13.96 6.55,53.08 6.55,53.08" /><path
         id="path288"
         style="fill:#f57559;fill-opacity:1;fill-rule:nonzero;stroke:none"
         d="m 2352.66,3455.73 c -72.05,0 -112.71,47.06 -112.71,188.22 0,72.8 37.04,117.47 117.74,117.47 80.7,0 114.7,-44.66 114.7,-117.47 0,-151.68 -45.3,-188.22 -119.73,-188.22" /><path
         id="path290"
         style="fill:#dc4b44;fill-opacity:1;fill-rule:nonzero;stroke:none"
         d="m 2448.52,3593.6 c 1.27,-7.24 -5.05,-14.39 -14.11,-15.97 -9.05,-1.58 -17.42,3.01 -18.68,10.25 -1.27,7.24 5.05,14.4 14.11,15.97 9.05,1.58 17.42,-3.01 18.68,-10.25" /><path
         id="path292"
         style="fill:#dc4b44;fill-opacity:1;fill-rule:nonzero;stroke:none"
         d="m 2300.33,3589.66 c -0.48,-7.34 -8.31,-12.8 -17.48,-12.2 -9.17,0.6 -16.22,7.03 -15.74,14.37 0.48,7.33 8.3,12.79 17.47,12.19 9.18,-0.59 16.23,-7.02 15.75,-14.36" /><path
         id="path294"
         style="fill:#872b39;fill-opacity:1;fill-rule:nonzero;stroke:none"
         d="m 2415.57,3666.85 c -0.95,0 -1.9,0.36 -2.6,1.11 -9.99,10.47 -27.47,10.02 -27.73,10.02 -1.95,-0.02 -3.65,1.49 -3.71,3.49 -0.08,1.98 1.49,3.64 3.48,3.71 0.76,0.05 20.98,0.52 33.16,-12.25 1.37,-1.45 1.32,-3.72 -0.11,-5.09 -0.7,-0.67 -1.6,-0.99 -2.49,-0.99" /><path
         id="path296"
         style="fill:#872b39;fill-opacity:1;fill-rule:nonzero;stroke:none"
         d="m 2279.91,3666.85 c -0.89,0 -1.78,0.32 -2.48,0.99 -1.44,1.37 -1.49,3.64 -0.13,5.09 12.17,12.77 32.37,12.28 33.16,12.25 1.99,-0.07 3.54,-1.73 3.48,-3.71 -0.06,-1.99 -1.8,-3.52 -3.71,-3.49 -0.13,0.03 -17.84,0.36 -27.71,-10.02 -0.72,-0.75 -1.66,-1.11 -2.61,-1.11" /><path
         id="path298"
         style="fill:#22434d;fill-opacity:1;fill-rule:nonzero;stroke:none"
         d="m 2409.34,3628.61 c 0,-8.94 -4.02,-16.2 -8.99,-16.2 -4.98,0 -9.01,7.26 -9.01,16.2 0,8.95 4.03,16.21 9.01,16.21 4.97,0 8.99,-7.26 8.99,-16.21" /><path
         id="path300"
         style="fill:#22434d;fill-opacity:1;fill-rule:nonzero;stroke:none"
         d="m 2313.13,3628.61 c 0,-8.94 -4.03,-16.2 -9,-16.2 -4.98,0 -9,7.26 -9,16.2 -0.01,8.95 4.02,16.21 9,16.21 4.97,0 9,-7.26 9,-16.21" /><path
         id="path302"
         style="fill:#22434d;fill-opacity:1;fill-rule:nonzero;stroke:none"
         d="m 2313.13,3532.88 c 0,0 63.53,-8.17 96.21,7.51 0,0 -18.47,-43.26 -53.18,-39.38 -34.7,3.88 -43.03,31.87 -43.03,31.87" /><path
         id="path304"
         style="fill:#872b39;fill-opacity:1;fill-rule:nonzero;stroke:none"
         d="m 2464.88,3596.42 c 0,0 -2.25,78.36 -32.76,138.59 0,0 -53.78,-24.85 -65.61,-18.98 -11.84,5.86 11.28,18.98 11.28,18.98 0,0 -88.74,-29.25 -94.07,-23.39 -5.34,5.87 29.41,23.39 29.41,23.39 l -55.28,-18.98 c 0,0 -17.04,-70.51 -9.99,-119.61 0,0 -23.76,40.99 -26.69,69.29 -2.94,28.31 9.5,109 92.77,114.86 83.27,5.87 130.03,-13.02 150.66,-51.25 20.63,-38.23 18.07,-85.27 0.28,-132.9" /><path
         id="path306"
         style="fill:#dc4b44;fill-opacity:1;fill-rule:nonzero;stroke:none"
         d="m 2365.22,3555.52 c -7,0 -14.12,1.81 -16.27,2.41 l 2.05,7.37 c 7.56,-2.08 19.41,-3.33 22,-0.28 0.89,1.06 0.54,3.52 -0.99,6.75 -10.41,22.15 -12.58,78.22 -12.67,80.59 l 7.66,0.28 c 0.02,-0.57 2.19,-56.88 11.94,-77.61 2.98,-6.32 2.95,-11.35 -0.09,-14.94 -2.95,-3.5 -8.26,-4.57 -13.63,-4.57" /><path
         id="path308"
         style="fill:#2a5a9f;fill-opacity:1;fill-rule:nonzero;stroke:none"
         d="m 2444.94,3447.74 c 0,0 130.4,-404.8 142.82,-734.17 0,0 47.06,-12.96 100.06,59.21 52.99,72.17 21.47,643.79 -80.06,738.97 0,0 -46.06,10.5 -162.82,-64.01" /><path
         id="path310"
         style="fill:#1f436b;fill-opacity:1;fill-rule:nonzero;stroke:none"
         d="m 2466.19,3376.94 c 0,0 23.34,54.24 12.97,91.42 -10.37,37.19 -47.04,0 -47.04,0 0,0 14.82,-60.89 34.07,-91.42" /><path
         id="path312"
         style="fill:#1f436b;fill-opacity:1;fill-rule:nonzero;stroke:none"
         d="m 2204.45,3477.07 c -96.21,41.43 -407.09,151.55 -407.09,151.55 0,0 -209.5,269.45 -252.12,308.31 0,0 -52.74,-29.84 -56.32,-91.6 0,0 131.62,-270.1 204.76,-352.59 73.15,-82.49 443.63,-260.9 443.63,-260.9 l 67.14,245.23" /><path
         id="path314"
         style="fill:#2a5a9f;fill-opacity:1;fill-rule:nonzero;stroke:none"
         d="m 2280.13,3447.74 c 0,0 -130.4,-404.8 -142.82,-734.17 0,0 -47.07,-12.96 -100.06,59.21 -52.99,72.17 -21.47,643.79 80.05,738.97 0,0 46.06,10.5 162.83,-64.01" /><path
         id="path316"
         style="fill:#1f436b;fill-opacity:1;fill-rule:nonzero;stroke:none"
         d="m 2258.87,3376.94 c 0,0 -23.34,54.24 -12.97,91.42 10.37,37.19 47.04,0 47.04,0 0,0 -14.81,-60.89 -34.07,-91.42" /><path
         id="path318"
         style="fill:#61242f;fill-opacity:1;fill-rule:nonzero;stroke:none"
         d="m 2939.38,909.398 h -258.91 c -18.09,102.922 10.77,205.952 10.77,205.952 l 118.36,20.32 c 10.76,-65.06 23.76,-90.71 41.74,-103.92 0.11,0 0.11,0 0.11,0 13.1,-9.55 28.76,-12.66 48.3,-19.43 22.31,-7.77 34.08,-21.871 39.97,-37.191 11.66,-30.418 -0.34,-65.731 -0.34,-65.731" /><path
         id="path320"
         style="fill:#872b39;fill-opacity:1;fill-rule:nonzero;stroke:none"
         d="m 2939.72,975.129 c -63.84,-8 -204.07,-21.649 -195.52,15.32 7.11,30.861 66.28,39.191 107.14,41.301 0.11,0 0.11,0 0.11,0 13.1,-9.55 28.76,-12.66 48.3,-19.43 22.31,-7.77 34.08,-21.871 39.97,-37.191" /><path
         id="path322"
         style="fill:#61242f;fill-opacity:1;fill-rule:nonzero;stroke:none"
         d="m 2072.27,909.398 h -258.91 c 0,0 -8.21,24.204 -4.44,49.852 3.11,20.871 14.21,42.75 44.08,53.07 22.43,7.77 39.64,10.66 53.74,23.87 15.32,14.44 26.75,41.08 36.41,99.48 l 118.36,-20.32 c 0,0 28.75,-103.03 10.76,-205.952" /><path
         id="path324"
         style="fill:#872b39;fill-opacity:1;fill-rule:nonzero;stroke:none"
         d="m 1808.92,959.25 c 3.11,20.871 14.21,42.75 44.08,53.07 22.43,7.77 39.64,10.66 53.74,23.87 32.75,-10.1 78.6,-28.64 92.81,-56.729 19.77,-38.531 -131.56,-32.422 -190.63,-20.211" /><path
         id="path326"
         style="fill:#203e50;fill-opacity:1;fill-rule:nonzero;stroke:none"
         d="m 3931.07,927.941 c 0,-10.882 -1.12,-18.543 -1.12,-18.543 h -314.53 c 0,6.223 0.11,12.442 0.44,18.543 3.56,82.269 29.54,153.659 29.54,153.659 l 78.6,33.75 c 6.77,-40.52 24.21,-66.39 46.08,-83.27 5.77,-4.55 11.77,-8.32 17.98,-11.54 2.89,-1.56 5.78,-3 8.77,-4.33 6.56,-3 13.33,-5.44 20.1,-7.44 27.76,-8.44 55.85,-10.219 75.5,-13.211 33.53,-5.219 38.64,-43.969 38.64,-67.618" /><path
         id="path328"
         style="fill:#2a5465;fill-opacity:1;fill-rule:nonzero;stroke:none"
         d="m 3931.07,927.941 c 0,-10.882 -1.12,-18.543 -1.12,-18.543 h -314.53 c 0,6.223 0.11,12.442 0.44,18.543 h 315.21" /><path
         id="path330"
         style="fill:#2a5465;fill-opacity:1;fill-rule:nonzero;stroke:none"
         d="m 3788.06,1020.54 -43.63,-13.99 -9.21,15.99 34.86,9.54 c 5.77,-4.55 11.77,-8.32 17.98,-11.54" /><path
         id="path332"
         style="fill:#2a5465;fill-opacity:1;fill-rule:nonzero;stroke:none"
         d="m 3816.93,1008.77 -29.42,-19.54 -18.1,7.102 27.42,19.878 c 6.56,-3 13.33,-5.44 20.1,-7.44" /><path
         id="path334"
         style="fill:#203e50;fill-opacity:1;fill-rule:nonzero;stroke:none"
         d="m 2729.32,927.941 c -0.77,-10.66 -3.55,-18.543 -3.55,-18.543 h -209.5 c -2.67,6.114 -4.56,12.211 -5.89,18.543 -20.65,100.259 118.58,222.939 118.58,222.939 l 44.19,-58.95 c 0,0 -5.11,-94.379 32.3,-114.032 22.43,-11.769 25.32,-33.968 23.87,-49.957" /><path
         id="path336"
         style="fill:#2a5465;fill-opacity:1;fill-rule:nonzero;stroke:none"
         d="m 2510.38,927.941 h 218.94 c -0.77,-10.66 -3.55,-18.543 -3.55,-18.543 h -209.5 c -2.67,6.114 -4.56,12.211 -5.89,18.543" /><path
         id="path338"
         style="fill:#2a5465;fill-opacity:1;fill-rule:nonzero;stroke:none"
         d="m 2695.88,985.422 c 0,0 -88.27,20.118 -128.51,-5.934 v 14.571 c 0,0 74.24,36.081 128.51,-8.637" /><path
         id="path340"
         style="fill:#2a5465;fill-opacity:1;fill-rule:nonzero;stroke:none"
         d="m 2678.39,1007.81 c 0,0 -56.36,25.77 -111.02,0 l 6.24,14.7 c 0,0 65.29,24.69 104.78,-14.7" /><path
         id="path342"
         style="fill:#91c1df;fill-opacity:1;fill-rule:nonzero;stroke:none"
         d="m 3836.14,1819.26 c 0.11,-84.27 -74.72,-771.3 -74.72,-771.3 -74.83,-7.44 -134.79,7.55 -134.79,7.55 -20.54,348.18 -22.54,647.61 -22.54,647.61 l -358.61,268.8 -0.89,0.66 c 0,0 -1.33,-6.1 -3.77,-16.99 -17.77,-78.82 -92.93,-409.01 -124.24,-484.62 -35.64,-86.16 -425.31,-448.46 -425.31,-448.46 -72.39,9.99 -133.81,62.42 -133.81,62.42 139.89,232.05 330.63,464.76 330.63,464.76 14.88,83.6 25.54,269.57 31.87,408.57 0.11,2.11 0.22,4.33 0.33,6.44 4.22,94.15 6.33,165.2 6.33,165.2 l -65.73,134.79 417.57,153.44 93.59,-119.8 c 0,0 21.43,-19.87 55.18,-51.63 1.56,-1.44 3.11,-2.88 4.66,-4.33 125.35,-118.24 404.25,-385.37 404.25,-423.11" /><path
         id="path344"
         style="fill:#6196b4;fill-opacity:1;fill-rule:nonzero;stroke:none"
         d="m 2919.96,1958.26 c 0.11,2.11 0.22,4.33 0.33,6.44 87.93,47.74 73.16,123.9 72.94,124.68 l 5.44,1.11 c 0.22,-0.78 15.99,-82.6 -78.71,-132.23" /><path
         id="path346"
         style="fill:#6196b4;fill-opacity:1;fill-rule:nonzero;stroke:none"
         d="m 3239.04,2025.76 c 3,-16.65 5.22,-34.64 6.44,-53.84 l -0.89,0.66 c 0,0 -1.33,-6.1 -3.77,-16.99 -3.89,130.57 -57.73,207.73 -58.4,208.62 l 4.55,3.22 c 0.56,-0.66 34.53,-49.74 50.96,-135.34 63.51,56.4 1.33,171.98 0.67,173.09 l 4.88,2.66 c 0.67,-1.22 66.51,-123.57 -4.44,-182.08" /><path
         id="path348"
         style="fill:#6196b4;fill-opacity:1;fill-rule:nonzero;stroke:none"
         d="m 3431.89,2242.37 c -0.11,-0.11 -0.33,-0.11 -0.44,-0.22 -2.55,-1 -5.55,-1.44 -8.66,-1.44 -30.75,0 -82.38,43.08 -84.82,45.19 l 3.66,4.21 c 16.77,-14.21 63.51,-48.29 85.6,-43.41 1.56,-1.44 3.11,-2.88 4.66,-4.33" /><path
         id="path350"
         style="fill:#acbfc3;fill-opacity:1;fill-rule:nonzero;stroke:none"
         d="m 2890.13,2983.37 c 0,0 127.01,20.44 190.66,-20.13 63.64,-40.57 147.2,-146.46 147.2,-146.46 0,0 -99.21,-13.1 -110.44,-80.49 0,0 -72.06,171.63 -227.42,247.08" /><path
         id="path352"
         style="fill:#d2dadc;fill-opacity:1;fill-rule:nonzero;stroke:none"
         d="m 2699.05,2917.12 c -53.73,-29.04 -143.55,-138.09 -147.6,-205.16 -3.96,-65.41 44.49,-125.57 77.16,-176.71 101.93,-159.6 209.25,-300.6 254.85,-487.78 0.29,-1.19 233.15,-93.6 506.44,234.91 0,0 -154.42,207.77 -207.77,384.66 -21.72,72 -43.81,148.49 -85.52,211.95 -45.95,69.9 -124.63,111.02 -206.48,104.38 -69.26,-5.61 -138.15,-37.63 -191.08,-66.25" /><path
         id="path354"
         style="fill:#ef5640;fill-opacity:1;fill-rule:nonzero;stroke:none"
         d="m 2676.5,2984.07 c 0,0 34.37,-58.72 18.49,-91.01 0,0 117.92,-40.71 117.92,25.27 0,0 -22.22,49.45 -13.85,81.42 l -122.56,-15.68" /><path
         id="path356"
         style="fill:#ef5640;fill-opacity:1;fill-rule:nonzero;stroke:none"
         d="m 2938.54,2581.98 c 0,0 -65.59,-18.64 -82.15,-41.86 -16.55,-23.22 -31.28,-75.31 -31.28,-75.31 h 113.43 l 21.33,39.25 24.97,52.3 -46.3,25.62" /><path
         id="path358"
         style="fill:#203e50;fill-opacity:1;fill-rule:nonzero;stroke:none"
         d="m 2830.1,3049.54 c 0,0 46.06,19.32 16.26,157.84 -19.74,91.78 -48.17,105.46 -66.55,106.27 0,0 -22.48,33.86 -100.45,17.65 -53.41,-11.1 -96.01,-43.54 -114.77,-103.55 -19.58,-62.64 19.58,-196.91 71.15,-210.27 l 194.36,32.06" /><path
         id="path360"
         style="fill:#f57559;fill-opacity:1;fill-rule:nonzero;stroke:none"
         d="m 2840.99,3143.15 c 0,0 29.03,40.4 39.99,0.58 12.7,-46.13 -26.83,-72.08 -37.62,-58.52 -10.8,13.56 -2.37,57.94 -2.37,57.94" /><path
         id="path362"
         style="fill:#f57559;fill-opacity:1;fill-rule:nonzero;stroke:none"
         d="m 2598.15,3100.58 c 0,0 -40.46,28.93 -38.05,-12.3 2.79,-47.77 48.56,-59.65 54.43,-43.34 5.87,16.31 -16.38,55.64 -16.38,55.64" /><path
         id="path364"
         style="fill:#f57559;fill-opacity:1;fill-rule:nonzero;stroke:none"
         d="m 2751.09,2953.63 c 77.07,12.72 112.27,70.24 87.36,221.24 -12.85,77.89 -60.36,119.13 -146.69,104.89 -86.34,-14.25 -114.82,-68.02 -101.97,-145.91 26.77,-162.25 81.67,-193.35 161.3,-180.22" /><path
         id="path366"
         style="fill:#dc4b44;fill-opacity:1;fill-rule:nonzero;stroke:none"
         d="m 2624.2,3084.21 c -0.07,-7.98 7.95,-14.51 17.92,-14.61 9.97,-0.08 18.11,6.3 18.18,14.27 0.07,7.97 -7.95,14.51 -17.92,14.6 -9.96,0.09 -18.1,-6.3 -18.18,-14.26" /><path
         id="path368"
         style="fill:#dc4b44;fill-opacity:1;fill-rule:nonzero;stroke:none"
         d="m 2783.44,3106.14 c 1.8,-7.76 11.14,-12.22 20.85,-9.97 9.7,2.26 16.11,10.39 14.3,18.15 -1.8,7.76 -11.14,12.23 -20.85,9.97 -9.7,-2.26 -16.11,-10.39 -14.3,-18.15" /><path
         id="path370"
         style="fill:#22434d;fill-opacity:1;fill-rule:nonzero;stroke:none"
         d="m 2645.9,3168.31 c -0.76,0 -1.53,0.22 -2.2,0.68 -1.78,1.22 -2.25,3.65 -1.03,5.42 10.77,15.82 32.4,18.85 33.33,18.97 2.26,0.26 4.08,-1.22 4.38,-3.35 0.28,-2.13 -1.22,-4.1 -3.35,-4.39 -0.2,-0.02 -19.13,-2.73 -27.9,-15.62 -0.76,-1.11 -1.99,-1.71 -3.23,-1.71" /><path
         id="path372"
         style="fill:#22434d;fill-opacity:1;fill-rule:nonzero;stroke:none"
         d="m 2791.02,3192.26 c -0.82,0 -1.65,0.25 -2.35,0.79 -12.48,9.42 -31.23,5.86 -31.41,5.83 -2.15,-0.47 -4.17,0.95 -4.59,3.07 -0.42,2.11 0.96,4.17 3.07,4.58 0.9,0.18 22.36,4.27 37.63,-7.25 1.73,-1.29 2.06,-3.75 0.77,-5.46 -0.77,-1.02 -1.94,-1.56 -3.12,-1.56" /><path
         id="path374"
         style="fill:#22434d;fill-opacity:1;fill-rule:nonzero;stroke:none"
         d="m 2659.94,3128.58 c 1.58,-9.58 7.17,-16.63 12.48,-15.75 5.32,0.88 8.35,9.35 6.77,18.92 -1.57,9.57 -7.17,16.62 -12.48,15.74 -5.32,-0.87 -8.35,-9.34 -6.77,-18.91" /><path
         id="path376"
         style="fill:#22434d;fill-opacity:1;fill-rule:nonzero;stroke:none"
         d="m 2762.87,3145.55 c 1.58,-9.57 7.17,-16.62 12.49,-15.74 5.32,0.88 8.35,9.35 6.77,18.92 -1.58,9.58 -7.17,16.62 -12.49,15.74 -5.32,-0.87 -8.35,-9.34 -6.77,-18.92" /><path
         id="path378"
         style="fill:#22434d;fill-opacity:1;fill-rule:nonzero;stroke:none"
         d="m 2791.77,3058.65 c 0,0 -66.87,-17.94 -103.95,-10.82 0,0 25.63,-32.28 62.22,-22.97 36.6,9.31 41.73,33.79 41.73,33.79" /><path
         id="path380"
         style="fill:#1b3540;fill-opacity:1;fill-rule:nonzero;stroke:none"
         d="m 2794.93,3244.95 c 0,0 -87,-63 -196.21,-67.79 l 3.1,-97.21 c 0,0 -101.78,187.54 99.52,220.75 201.3,33.21 142.71,-176.26 142.71,-176.26 0,0 -6.24,90.35 -49.12,120.51" /><path
         id="path382"
         style="fill:#dc4b44;fill-opacity:1;fill-rule:nonzero;stroke:none"
         d="m 2723.77,3084.76 -0.56,8.41 c 0.12,0.01 11.73,0.91 14.75,8.1 1.25,2.96 -3.7,12.39 -8.07,20.72 -6.06,11.56 -13.59,25.96 -16.8,41.95 l 8.26,1.65 c 2.96,-14.8 10.19,-28.6 16,-39.7 6.47,-12.34 11.15,-21.26 8.37,-27.89 -5.04,-12 -21.26,-13.19 -21.95,-13.24" /><path
         id="path384"
         style="fill:#cf2548;fill-opacity:1;fill-rule:nonzero;stroke:none"
         d="m 2842.13,3244.71 c -146.34,63.51 -284.45,-68.17 -284.45,-68.17 0,0 -16.1,106.7 12.1,131.68 7.33,6.55 15.21,12.32 23.43,17.43 64.61,40.75 150.55,39.97 189.96,25.98 8.11,-2.89 14.32,-6.33 17.88,-9.99 23.31,-24.21 41.08,-96.93 41.08,-96.93" /><path
         id="path386"
         style="fill:#d2dadc;fill-opacity:1;fill-rule:nonzero;stroke:none"
         d="m 2824.36,3268.47 c 0,0 -122.9,24.32 -237.48,-51.51 0,0 -7.33,68.83 6.33,108.69 64.61,40.75 150.55,39.97 189.96,25.98 22.98,-26.2 41.19,-83.16 41.19,-83.16" /><path
         id="path388"
         style="fill:#9f2240;fill-opacity:1;fill-rule:nonzero;stroke:none"
         d="m 2569.78,3189.09 c 0,0 19.48,82.75 45.73,106.06 43.67,38.77 166.36,52.08 230.85,28.77 64.49,-23.31 0,-93.77 0,-93.77 0,0 -102.78,73.63 -276.58,-41.06" /><path
         id="path390"
         style="fill:#f57559;fill-opacity:1;fill-rule:nonzero;stroke:none"
         d="m 2759.56,2639.22 c 0,0 50.23,-77.8 135.77,-123.57 0,0 107.01,92.89 245.76,84.53 0,0 -115,-207.48 -213.75,-230.46 -51.88,-12.07 -239.52,112.18 -239.52,112.18 0,0 37.46,132.05 71.74,157.32" /><path
         id="path392"
         style="fill:#acbfc3;fill-opacity:1;fill-rule:nonzero;stroke:none"
         d="m 2574.59,2780.27 c 45.96,74.83 152.01,-35.79 188.1,-114.79 36.08,-79.01 62.42,-95.76 62.42,-95.76 0,0 -105.95,-44.27 -105.2,-123.68 0,0 -245.63,170.94 -145.32,334.23" /><path
         id="path394"
         style="fill:#ef5640;fill-opacity:1;fill-rule:nonzero;stroke:none"
         d="m 2895.33,2549.83 c 0,0 64.54,63.32 276.76,145.96 l -27.41,86.2 c 24.35,32.03 69.11,32.03 69.11,32.03 0,0 108.73,-153.53 90.01,-199.39 -11.69,-28.65 -238.48,-58.71 -408.47,-64.8" /><path
         id="path396"
         style="fill:#f57559;fill-opacity:1;fill-rule:nonzero;stroke:none"
         d="m 3127.74,2675.1 c 0,0 1.68,9.08 9.52,20.15 7.84,11.07 5.72,31.22 8.53,37.46 2.82,6.25 19.51,31.77 30.59,36.74 11.08,4.97 25.62,13.09 28.71,-0.98 3.09,-14.06 -19.85,-10.07 -30.15,-30.3 0,0 22.54,7.29 40.41,3.06 17.88,-4.24 22.95,-20.58 0.86,-20.04 -17.62,0.44 -40.31,-12.13 -40.31,-12.13 0,0 22.96,-3.45 19.25,-14.03 -5.12,-14.64 -33.12,-5.63 -67.41,-19.93" /><path
         id="path398"
         style="fill:#3d6174;fill-opacity:1;fill-rule:nonzero;stroke:none"
         d="m 1558.19,2386.04 c 18.97,-48.57 96.68,-131.84 96.68,-131.84 0,0 189.84,113.8 277.42,65.92 87.58,-47.88 157.18,-77.09 213.98,-56.24 56.79,20.85 -186.76,463.8 -186.76,463.8 l -315.79,120.5 c 0,0 -6.89,-79.87 -42.97,-94.06 -36.08,-14.19 -74.55,-146.03 -71.97,-171.01 2.58,-24.98 29.41,-197.07 29.41,-197.07" /><path
         id="path400"
         style="fill:#ef5640;fill-opacity:1;fill-rule:nonzero;stroke:none"
         d="m 1913.49,2251.3 c 0,0 -81.42,-159.61 -249.54,-364.03 0,0 -17.23,-243.09 -461.79,-625.56 l -46.54,36.61 c 0,0 264.75,414.71 317.7,541.86 52.96,127.15 -29.27,243.65 214.35,565.26 l 225.82,-154.14" /><path
         id="path402"
         style="fill:#61242f;fill-opacity:1;fill-rule:nonzero;stroke:none"
         d="m 1654.32,2533.76 c -70.1,-134.28 -93.62,-305.93 -93.62,-305.93 l -31.92,-80.53 c 0,0 113.22,-61.06 243.96,-83.27 l 52.44,138.78 -170.86,330.95" /><path
         id="path404"
         style="fill:#f57559;fill-opacity:1;fill-rule:nonzero;stroke:none"
         d="m 2019.91,2263.88 c 0,0 34.71,-175.79 28.99,-440.4 0,0 136.78,-201.7 23.9,-777.18 h -59.21 c 0,0 -48.37,489.62 -85.38,622.3 -37.01,132.67 -173.67,173.38 -181.07,576.77 l 272.77,18.51" /><path
         id="path406"
         style="fill:#872b39;fill-opacity:1;fill-rule:nonzero;stroke:none"
         d="m 2054.62,2075.17 c 0,0 -111.36,-19.99 -307.54,-10.77 l -3.11,22.09 -0.77,5.67 -20.32,143 c 0,0 -18.88,23.31 -38.31,61.28 -2.33,4.44 -4.55,9 -6.77,13.77 -26.42,56.29 -49.85,138.12 -23.54,223.49 l 41.42,-1.88 5.77,-0.34 138.56,-6.32 5.88,-0.34 45.52,-2.11 7.11,-0.33 29.53,-1.33 c 0,0 150.11,-135.12 123.35,-384.93 l 1.89,-34.75 0.22,-5.66 1.11,-20.54" /><path
         id="path408"
         style="fill:#61242f;fill-opacity:1;fill-rule:nonzero;stroke:none"
         d="m 1701.45,2531.48 c -3.89,-11.43 -30.09,-96.26 -16.88,-235.04 -2.33,4.44 -4.55,9 -6.77,13.77 -9.88,126.9 12.88,206.06 17.88,221.61 0.66,1.88 1,2.77 1,2.88 l 5.21,-1.88 c 0,-0.11 -0.22,-0.56 -0.44,-1.34" /><path
         id="path410"
         style="fill:#61242f;fill-opacity:1;fill-rule:nonzero;stroke:none"
         d="m 2053.51,2095.71 c -39.41,-10.1 -106.25,-12.88 -169.76,-12.88 -56.95,0 -111.02,2.33 -139.78,3.66 l -0.77,5.67 c 49.85,-2.45 181.08,-7.55 265.68,1.66 l -5.44,89.38 c 1.33,104.25 -30.2,193.29 -60.62,254.8 -77.05,13.99 -98.26,71.06 -102.81,87.16 -0.67,2.55 -1,4.1 -1,4.21 l 5.44,0.89 c 0,-0.11 0.44,-2.11 1.44,-5.44 5,-16.65 25.65,-66.28 93.71,-80.49 -20.54,40.08 -39.97,67.5 -48.19,78.38 -2.44,3.33 -3.99,5.22 -4.1,5.33 l 4.22,3.55 c 0.22,-0.22 2.77,-3.33 6.99,-9.21 25.76,-34.97 112.69,-166.54 110.47,-338.96 l 5.44,-88.93 c 14.77,1.77 27.98,3.99 38.86,6.88 l 0.22,-5.66" /><path
         id="path412"
         style="fill:#91c1df;fill-opacity:1;fill-rule:nonzero;stroke:none"
         d="m 1769.84,3136.11 c -44.19,24.33 -362.62,-100.54 -362.62,-100.54 0,0 -47.11,-84.04 -17.75,-116.98 29.37,-32.95 133.56,-18.42 165.48,0 31.92,18.42 116.47,32.35 116.47,32.35 l 98.42,185.17" /><path
         id="path414"
         style="fill:#ef294d;fill-opacity:1;fill-rule:nonzero;stroke:none"
         d="m 2051.43,3401.2 c 0,0 65.78,-25.39 89.84,-101.17 24.06,-75.78 -47.87,-267.64 -23.01,-355.83 24.86,-88.19 21,-254.72 -56.64,-289.88 -77.64,-35.16 -236.86,27.75 -271.05,123.98 -34.19,96.22 -19.43,460.75 46.28,584.73 65.71,123.98 198.76,61.53 214.58,38.17" /><path
         id="path416"
         style="fill:#91c1df;fill-opacity:1;fill-rule:nonzero;stroke:none"
         d="m 1975.84,3074.24 c 17.35,-18.7 61.95,14.63 61.95,14.63 0,0 -0.91,-165.37 -48.97,-178.04 -48.05,-12.68 -170.55,130.26 -165.51,169.12 5.04,38.86 114.06,35.77 152.53,-5.71" /><path
         id="path418"
         style="fill:#1b3540;fill-opacity:1;fill-rule:nonzero;stroke:none"
         d="m 1790.57,3115.6 c 0,0 48.62,-41.28 133.31,-60.92 84.7,-19.63 130.6,20.19 173.92,-34.42 65.01,-81.97 -40.76,-233.08 -96.42,-311.39 -20.74,-29.19 -64.53,-110.16 -73.37,-187.84 0,0 -146.96,-42.7 -273.69,12.73 l -9.46,180.29 c 0,0 -79.89,242.97 145.71,401.55" /><path
         id="path420"
         style="fill:#91c1df;fill-opacity:1;fill-rule:nonzero;stroke:none"
         d="m 1942.51,2940.19 c 0,0 67.15,160.03 86.59,170.25 19.45,10.22 68.76,-14.31 78.67,-36.2 9.9,-21.89 0,-69.64 0,-69.64 0,0 -52.96,60.45 -165.26,-64.41" /><path
         id="path422"
         style="fill:#6196b4;fill-opacity:1;fill-rule:nonzero;stroke:none"
         d="m 2264.13,2263.91 c -30.53,-62.5 -105.48,-80.49 -105.48,-80.49 0,0 -5.66,8.66 -15.21,24.2 -1,1.56 -2.11,3.33 -3.11,5.11 -58.95,95.59 -239.15,401.47 -235.59,560.57 4.11,190.07 128.12,294.44 128.12,294.44 62.95,-14.99 82.83,-32.2 82.83,-32.2 0,0 21.2,-108.14 1.77,-238.26 -19.43,-130.01 -54.73,-164.43 -36.97,-174.2 17.65,-9.66 0,-29.09 0,-29.09 0,0 104.48,-145.55 124.02,-190.85 12.65,-29.53 34.19,-79.72 47.63,-111.03 0.88,-2.22 1.77,-4.44 2.66,-6.44 5.66,-13.21 9.33,-21.76 9.33,-21.76" /><path
         id="path424"
         style="fill:#f57559;fill-opacity:1;fill-rule:nonzero;stroke:none"
         d="m 2082.66,3035.57 c 0,0 -74.81,-55.45 -31.23,-140.17 l 207.34,-214.65 c -113.8,-121.27 -125.08,-171.05 -207.34,-226.96 l 31.23,-48.35 c 0,0 288.1,221.41 288.53,275.31 0.18,23.07 -175.98,302.14 -288.53,354.82" /><path
         id="path426"
         style="fill:#f57559;fill-opacity:1;fill-rule:nonzero;stroke:none"
         d="m 2046.89,2453.78 c 0,0 -39.52,-4.39 -64.41,-10.61 -24.89,-6.22 -58.07,-12.44 -59.11,-17.63 -1.03,-5.18 54.96,0 54.96,0 0,0 -45.62,-18.74 -46.66,-25.96 -1.04,-7.22 58.07,5.22 58.07,5.22 0,0 -37.33,-22.81 -35.26,-29.03 2.08,-6.22 48.06,9.33 48.06,9.33 0,0 -8.55,-21.77 -17.42,-32.14 0,0 8.91,-4.9 26.98,15.18 18.08,20.07 46.94,13.63 69.78,31.44 22.84,17.82 -14.19,56.88 -34.99,54.2" /><path
         id="path428"
         style="fill:#6196b4;fill-opacity:1;fill-rule:nonzero;stroke:none"
         d="m 1835.02,3088.97 c 0,0 -56.91,-36.78 -92.85,-125.6 -35.95,-88.82 -149.35,-255.96 -175.92,-299.14 -26.56,-43.19 -8.06,-278.19 -8.06,-278.19 0,0 -33.31,142.48 -48.11,198 -14.81,55.51 47.8,192.68 57.21,199.96 9.4,7.28 57.51,-6.04 48.26,49.66 -9.25,55.7 119.84,295.69 154.29,302.45 0,0 55.2,-10.37 65.18,-47.14" /><path
         id="path430"
         style="fill:#6196b4;fill-opacity:1;fill-rule:nonzero;stroke:none"
         d="m 1659.04,3076.95 c -1,-1.88 -2.11,-3.77 -3.44,-5.55 -12.88,-18.54 -36.86,-33.31 -36.86,-33.31 0,0 -43.42,-60.84 -43.86,-67.83 -0.44,-6 -75.39,-60.4 -108.69,-59.29 h -0.11 c -4.56,0.11 -8.33,1.33 -11,3.77 -19.76,18.66 67.29,175.2 86.49,208.95 1.22,2.23 2.22,3.89 2.89,5 0.44,0.89 0.78,1.44 0.78,1.44 0,0 -15.33,57.07 48.63,46.41 53.18,-8.77 63.72,-51.07 69.28,-79.38 1.33,-6.77 -0.56,-13.66 -4.11,-20.21" /><path
         id="path432"
         style="fill:#f57559;fill-opacity:1;fill-rule:nonzero;stroke:none"
         d="m 1435.74,3017.79 c 43.93,57.75 198.51,169.75 279.93,202.91 l 20.36,-37.84 c 0,0 -157.34,-138.32 -194.3,-197.5 -36.96,-59.17 -82.75,-83.64 -126.49,-63.93 -43.75,19.7 11.26,84.21 20.5,96.36" /><path
         id="path434"
         style="fill:#91c1df;fill-opacity:1;fill-rule:nonzero;stroke:none"
         d="m 1643.72,3088.83 -8.33,-9.55 -4.22,-4.88 -13.77,-15.77 c 0,0 -34.64,-41.96 -33.3,-58.84 0.99,-12.1 -65.73,-66.28 -117.91,-88.82 -21.21,-9.22 -40.08,-13.21 -51.08,-6.88 -37.74,21.76 -29.31,87.15 -7.88,131.45 18.65,38.64 101.15,88.49 122.35,100.7 2.67,1.67 4.33,2.66 4.89,2.89 0.11,0.11 0.11,0.11 0.11,0.11 l 7.88,30.64 c 0,0 28.76,17.32 51.41,6.66 0,0 -49.97,-2.11 -41.75,-21.54 8.44,-19.54 77.72,-65.5 91.6,-66.17" /><path
         id="path436"
         style="fill:#f57559;fill-opacity:1;fill-rule:nonzero;stroke:none"
         d="m 1825.13,3249.04 c -50.29,-20.65 -43.08,-66.17 -89.15,-66.17 -28.54,0 -32.31,32.64 -32.31,32.64 12.88,27.87 21.09,75.39 22.87,98.04 1.89,22.65 9.44,13.88 9.44,13.88 0,2.11 -0.11,4.1 -0.22,6.1 -0.67,15.21 -3.45,26.32 6.55,19.76 11.32,-7.32 15.21,-50.4 15.21,-50.4 9.32,62.84 -4.55,72.17 6.33,66.62 14.87,-7.56 14.98,-63.07 14.98,-64.73 11.99,36.53 8.78,57.4 17.1,49.07 8.44,-8.44 -4.22,-75.5 -9.21,-100.15 -1.11,-5.55 -1.89,-8.99 -1.89,-8.99 39.86,19.54 40.3,4.33 40.3,4.33" /><path
         id="path438"
         style="fill:#ef5640;fill-opacity:1;fill-rule:nonzero;stroke:none"
         d="m 1786.72,3253.7 c -1.11,-5.55 -1.89,-8.99 -1.89,-8.99 0,0 -18.43,1.78 -31.86,-18.1 0,0 3.77,26.65 33.75,27.09" /><path
         id="path440"
         style="fill:#ef5640;fill-opacity:1;fill-rule:nonzero;stroke:none"
         d="m 1738.75,3282.35 c 0.34,5.33 2.56,35.86 -2.77,45.08 0,2.11 -0.11,4.1 -0.22,6.1 11.54,-2.44 4.22,-44.74 2.99,-51.18" /><path
         id="path442"
         style="fill:#91c1df;fill-opacity:1;fill-rule:nonzero;stroke:none"
         d="m 1769.96,3017.48 c 0,0 33.99,92.12 44.8,112.68 10.82,20.57 67.13,17.04 109.75,9.09 42.62,-7.95 51.33,-65.01 51.33,-65.01 0,0 -129.66,61.18 -205.88,-56.76" /><path
         id="path444"
         style="fill:#ef5640;fill-opacity:1;fill-rule:nonzero;stroke:none"
         d="m 1988.82,3198.78 c 0,0 -40.72,-75.19 -40.07,-158.57 0,0 -66.14,-44.95 -89.81,11.35 0,0 25.12,73.76 12.98,173.33 -8.13,66.68 116.9,-26.11 116.9,-26.11" /><path
         id="path446"
         style="fill:#f57559;fill-opacity:1;fill-rule:nonzero;stroke:none"
         d="m 1858.94,3303.11 c 0,0 -12.1,43.1 -33.64,12.8 -24.95,-35.1 0.48,-69.22 13.79,-61.08 13.31,8.14 19.85,48.28 19.85,48.28" /><path
         id="path448"
         style="fill:#f57559;fill-opacity:1;fill-rule:nonzero;stroke:none"
         d="m 2051.2,3192.28 c 0,0 43.12,12.01 28.39,-22.12 -17.08,-39.54 -59.44,-35.48 -59.38,-19.88 0.06,15.6 30.99,42 30.99,42" /><path
         id="path450"
         style="fill:#f57559;fill-opacity:1;fill-rule:nonzero;stroke:none"
         d="m 1876.59,3115.13 c -61.27,34.5 -73.31,93.99 -5.72,214.02 34.86,61.91 87.75,82.14 156.37,43.5 68.62,-38.64 76.14,-92.89 41.27,-154.8 -72.62,-128.97 -128.63,-138.36 -191.92,-102.72" /><path
         id="path452"
         style="fill:#dc4b44;fill-opacity:1;fill-rule:nonzero;stroke:none"
         d="m 2024.12,3186.46 c -2.4,-6.76 -11.19,-9.82 -19.65,-6.82 -8.46,2.99 -13.37,10.9 -10.98,17.66 2.39,6.77 11.19,9.82 19.65,6.83 8.46,-3 13.37,-10.9 10.98,-17.67" /><path
         id="path454"
         style="fill:#dc4b44;fill-opacity:1;fill-rule:nonzero;stroke:none"
         d="m 1896.21,3254.07 c -3.91,-6.01 -13.18,-6.91 -20.7,-2.01 -7.51,4.91 -10.43,13.75 -6.51,19.76 3.92,6.01 13.19,6.91 20.7,2.01 7.52,-4.9 10.43,-13.75 6.51,-19.76" /><path
         id="path456"
         style="fill:#22434d;fill-opacity:1;fill-rule:nonzero;stroke:none"
         d="m 2032.89,3264.07 c -1.58,0 -3.01,1.06 -3.41,2.65 -3.47,13.67 -18.62,21.72 -18.77,21.79 -1.72,0.9 -2.39,3.03 -1.49,4.75 0.89,1.71 3,2.39 4.74,1.49 0.74,-0.39 18.1,-9.62 22.33,-26.31 0.48,-1.87 -0.66,-3.79 -2.54,-4.26 -0.29,-0.08 -0.58,-0.11 -0.86,-0.11" /><path
         id="path458"
         style="fill:#22434d;fill-opacity:1;fill-rule:nonzero;stroke:none"
         d="m 1948.75,3323.92 c -0.62,0 -1.25,0.17 -1.82,0.51 -0.14,0.09 -14.91,8.86 -28.38,4.75 -1.86,-0.58 -3.82,0.47 -4.38,2.33 -0.56,1.86 0.48,3.82 2.34,4.39 16.47,5.05 33.35,-5.03 34.06,-5.46 1.66,-1 2.19,-3.15 1.18,-4.82 -0.65,-1.09 -1.81,-1.7 -3,-1.7" /><path
         id="path460"
         style="fill:#22434d;fill-opacity:1;fill-rule:nonzero;stroke:none"
         d="m 2007.57,3234.99 c -4.29,-7.61 -11.19,-11.84 -15.41,-9.46 -4.23,2.38 -4.18,10.48 0.1,18.08 4.29,7.61 11.19,11.85 15.41,9.47 4.23,-2.38 4.19,-10.48 -0.1,-18.09" /><path
         id="path462"
         style="fill:#22434d;fill-opacity:1;fill-rule:nonzero;stroke:none"
         d="m 1921.67,3281.07 c -4.29,-7.61 -11.19,-11.85 -15.41,-9.47 -4.23,2.38 -4.18,10.48 0.1,18.09 4.29,7.6 11.19,11.84 15.42,9.46 4.22,-2.38 4.17,-10.48 -0.11,-18.08" /><path
         id="path464"
         style="fill:#22434d;fill-opacity:1;fill-rule:nonzero;stroke:none"
         d="m 1891.91,3202.95 c 0,0 35.15,-26.83 60.55,-27.64 0,0 -27.01,-22 -46.43,-7.73 -19.41,14.27 -14.12,35.37 -14.12,35.37" /><path
         id="path466"
         style="fill:#22434d;fill-opacity:1;fill-rule:nonzero;stroke:none"
         d="m 1989.1,3250.37 c 0,0 16.14,15.6 22.74,10.11 6.6,-5.49 3.15,-24.69 3.15,-24.69 l 14.11,-0.36 -11.67,4.7 c 0,0 3.76,19.94 -3.5,24.06 -10.33,5.89 -24.83,-13.82 -24.83,-13.82" /><path
         id="path468"
         style="fill:#22434d;fill-opacity:1;fill-rule:nonzero;stroke:none"
         d="m 1928.32,3281.57 c 0,0 4.97,21.89 -3.15,24.69 -8.11,2.8 -22.73,-10.11 -22.73,-10.11 l -7.63,11.89 10.07,-7.55 c 0,0 15.1,13.55 22.39,9.49 10.39,-5.79 1.05,-28.41 1.05,-28.41" /><path
         id="path470"
         style="fill:#ef294d;fill-opacity:1;fill-rule:nonzero;stroke:none"
         d="m 2043.51,3346.99 c 0,0 -21.95,30.5 -52.26,6.28 -30.31,-24.21 -98.68,-62.97 -132.31,-50.16 -33.64,12.8 73.58,156.1 166.67,114.14 93.09,-41.97 84.71,-178.57 45.99,-222 -38.72,-43.43 -20.4,-2.97 -20.4,-2.97 0,0 2.58,61.62 15.52,102.45 12.94,40.84 -23.21,52.26 -23.21,52.26" /><path
         id="path472"
         style="fill:#dc4b44;fill-opacity:1;fill-rule:nonzero;stroke:none"
         d="m 1940.33,3216.92 c -1.7,0 -3.48,0.23 -5.31,0.69 l 1.86,7.35 c 6.26,-1.59 9.34,1.1 10.82,3.63 2.09,3.58 1.79,8.19 0.14,9.92 -0.97,1.01 -2.62,0.91 -4.94,-0.31 l -3.52,6.73 c 7.72,4.04 12.32,0.52 13.95,-1.19 4.17,-4.37 4.57,-12.7 0.92,-18.97 -2.98,-5.1 -7.98,-7.85 -13.92,-7.85" /><path
         id="path474"
         style="fill:#91c1df;fill-opacity:1;fill-rule:nonzero;stroke:none"
         d="m 2389.03,2689.25 c -3.66,-53.85 -136.89,-229.15 -159.1,-235.37 -5.77,-1.56 -11.66,-4.78 -17.21,-8.55 -2.33,-1.67 -4.66,-3.44 -6.88,-5.22 -12.66,-10.21 -22.21,-21.98 -22.21,-21.98 -38.86,2.55 -147.99,53.07 -112.91,64.17 2.11,0.67 4.44,1.89 7,3.66 1.44,1 2.99,2.11 4.55,3.56 41.3,34.64 121.68,175.2 122.24,185.85 0.44,11.66 14.32,13.88 14.32,13.88 0,0 -75.83,111.36 -119.8,124.79 -43.96,13.44 -66.17,66.62 -66.17,66.62 -43.41,183.75 82.83,154.88 82.83,154.88 93.04,-55.4 277,-292.33 273.34,-346.29" /><path
         id="path476"
         style="fill:#3d6174;fill-opacity:1;fill-rule:nonzero;stroke:none"
         d="m 2212.72,2445.33 c -2.33,-1.67 -4.66,-3.44 -6.88,-5.22 -59.62,4.11 -109.58,33.42 -128.12,45.85 1.44,1 2.99,2.11 4.55,3.56 19.87,-12.99 70.72,-41.97 130.45,-44.19" /><path
         id="path478"
         style="fill:#3d6174;fill-opacity:1;fill-rule:nonzero;stroke:none"
         d="m 1659.04,3076.95 c -1,-1.88 -2.11,-3.77 -3.44,-5.55 -8.55,0.33 -16.66,1.33 -24.43,3 -39.41,7.99 -69.72,30.09 -89.6,49.29 -4.55,4.45 -8.55,8.66 -11.99,12.55 2.67,1.67 4.33,2.66 4.89,2.89 2.88,-3.22 6.21,-6.78 9.99,-10.44 19.76,-19.43 50.52,-42.08 90.93,-49.41 7.55,-1.44 15.43,-2.22 23.65,-2.33" /><path
         id="path480"
         style="fill:#3d6174;fill-opacity:1;fill-rule:nonzero;stroke:none"
         d="m 2254.8,2285.67 c -18.32,-30.97 -52.18,-68.39 -111.36,-78.05 -1,1.56 -2.11,3.33 -3.11,5.11 60.73,9.1 94.38,48.52 111.81,79.38 0.88,-2.22 1.77,-4.44 2.66,-6.44" /><path
         id="path482"
         style="fill:#d2dadc;fill-opacity:1;fill-rule:nonzero;stroke:none"
         d="m 1244.36,1275.45 c 0,0 -13.88,-13.65 -28.31,-38.75 -14.44,-25.09 1.44,-48.18 -68.4,-106.36 0,0 -140.89,82.49 -204.505,188.52 0,0 1.113,30.31 31.867,37.42 16.543,3.77 62.058,-17.54 105.808,-25.76 6.21,-1.11 12.43,-2.11 18.54,-2.55 7.66,-0.67 15.21,-0.78 22.42,0.11 6.67,0.66 13,2.11 18.88,4.55 h 0.11 c 14.88,6.11 26.65,18.21 32.75,39.41 0,0 37.42,-21.31 12.44,-57.4 0,0 44.41,19.43 58.4,-39.19" /><path
         id="path484"
         style="fill:#acbfc3;fill-opacity:1;fill-rule:nonzero;stroke:none"
         d="m 1147.65,1130.34 c 0,0 -140.89,82.49 -204.505,188.52 0,0 23.648,5 43.191,-30.08 19.534,-35.2 172.754,-115.03 161.314,-158.44" /><path
         id="path486"
         style="fill:#acbfc3;fill-opacity:1;fill-rule:nonzero;stroke:none"
         d="m 1148.21,1297.1 c -11.44,-18.09 -11.21,15.32 -26.43,30.98 6.67,0.66 13,2.11 18.88,4.55 h 0.11 c 6.77,-7.33 16.43,-21.43 7.44,-35.53" /><path
         id="path488"
         style="fill:#acbfc3;fill-opacity:1;fill-rule:nonzero;stroke:none"
         d="m 1103.91,1296.1 c -12.1,-11.43 -15.99,18.43 -23.09,34.42 6.21,-1.11 12.43,-2.11 18.54,-2.55 7.1,-9.66 13.77,-23.1 4.55,-31.87" /><path
         id="path490"
         style="fill:#d2dadc;fill-opacity:1;fill-rule:nonzero;stroke:none"
         d="m 2111.13,909.398 h -199.29 c 0,0 -8.32,27.762 0,58.293 3.56,13.207 24.21,25.528 43.41,42.739 5.33,4.78 10.44,9.77 15.21,15.44 3.78,4.44 7.22,9.32 10.11,14.54 3.66,6.33 6.55,13.21 8.21,20.76 3.22,15.1 2,32.87 -6.66,54.18 0,0 67.84,14.21 92.04,-22.76 0,0 2.33,17.1 23.87,5.67 0,0 -3.11,-34.31 1.11,-63.07 4.22,-28.64 30.98,-36.971 11.99,-125.792" /><path
         id="path492"
         style="fill:#acbfc3;fill-opacity:1;fill-rule:nonzero;stroke:none"
         d="m 2059.28,1029.42 c -1.77,-2 -4.21,-3 -6.66,-3 -2.11,0 -4.1,0.67 -5.88,2 -10.33,8.22 -33.09,20.98 -66.17,11.99 3.66,6.33 6.55,13.21 8.21,20.76 13.33,4.89 38.42,7.77 69.39,-18.65 4,-3.33 4.56,-9.21 1.11,-13.1" /><path
         id="path494"
         style="fill:#acbfc3;fill-opacity:1;fill-rule:nonzero;stroke:none"
         d="m 2042.52,996.332 -1.11,-1.66 c -2.66,-4.113 -7.99,-5.442 -12.21,-3 -13.55,7.988 -43.97,23.088 -73.95,18.758 5.33,4.78 10.44,9.77 15.21,15.44 14.77,3.44 42.64,5.33 70.06,-17.43 3.55,-3 4.55,-8.22 2,-12.108" /><path
         id="path496"
         style="fill:#a3b5c4;fill-opacity:1;fill-rule:nonzero;stroke:none"
         d="m 2601.04,345.301 c -4.32,-4.43 -8.03,-9.309 -11.08,-14.531 l -4.66,2.41 c -0.66,2.98 -3.48,5.031 -6.58,4.672 -3.31,-0.391 -5.68,-3.391 -5.29,-6.704 0.39,-3.308 3.39,-5.679 6.7,-5.289 0.65,0.071 1.27,0.262 1.83,0.52 l 4.51,-2.34 c -2.51,-5.539 -4.32,-11.387 -5.39,-17.437 l 7.46,-1.313 c 2.31,13.063 8.5,25.063 17.92,34.723 l -5.42,5.289" /><path
         id="path498"
         style="fill:#a3b5c4;fill-opacity:1;fill-rule:nonzero;stroke:none"
         d="m 2655.92,368.332 c -1.71,0 -3.41,-0.062 -5.1,-0.184 l -0.73,6.274 c 1.87,1.476 2.96,3.887 2.65,6.449 -0.46,3.918 -4.02,6.731 -7.96,6.27 -3.92,-0.461 -6.73,-4.02 -6.27,-7.95 0.3,-2.543 1.89,-4.609 4.05,-5.64 l 0.73,-6.242 c -7.14,-1.161 -14.03,-3.321 -20.59,-6.457 l 3.27,-6.84 c 9.33,4.468 19.41,6.738 29.95,6.738 4.96,0 9.93,-0.539 14.74,-1.578 l 1.62,7.41 c -5.36,1.156 -10.85,1.75 -16.36,1.75" /><path
         id="path500"
         style="fill:#a3b5c4;fill-opacity:1;fill-rule:nonzero;stroke:none"
         d="m 2721.94,342.852 c 3.31,0.41 5.67,3.41 5.26,6.73 -0.4,3.309 -3.42,5.656 -6.72,5.25 -3.1,-0.383 -5.35,-3.043 -5.3,-6.082 l -4.16,-3.641 c -4.18,4.301 -8.9,8.133 -14.09,11.391 l -4.03,-6.41 c 11.34,-7.149 20.21,-17.258 25.63,-29.25 l 6.91,3.121 c -2.51,5.551 -5.67,10.719 -9.42,15.449 l 4.02,3.52 c 0.6,-0.129 1.25,-0.16 1.9,-0.078" /><path
         id="path502"
         style="fill:#a3b5c4;fill-opacity:1;fill-rule:nonzero;stroke:none"
         d="m 2650.44,266.238 c -3.86,-0.238 -7.74,-0.347 -11.57,-0.347 -8.8,0 -17.33,0.609 -24.78,1.789 -3.9,0.629 -8.47,1.55 -12.7,2.922 10.46,-18.602 30.69,-31.25 53.88,-31.25 28.56,0 52.62,19.16 59.5,45.039 -6.82,-4.493 -15.06,-8.25 -24.59,-11.219 -11.79,-3.68 -25.54,-6.07 -39.74,-6.934" /><path
         id="path504"
         style="fill:#a3b5c4;fill-opacity:1;fill-rule:nonzero;stroke:none"
         d="m 2681.7,297.102 c -7.5,0 -13.6,6.097 -13.6,13.597 0,7.5 6.1,13.602 13.6,13.602 7.5,0 13.6,-6.102 13.6,-13.602 0,-7.5 -6.1,-13.597 -13.6,-13.597 z m -47.37,-9.09 c -10.21,0 -18.5,8.297 -18.5,18.5 0,10.199 8.29,18.5 18.5,18.5 10.19,0 18.49,-8.301 18.49,-18.5 0,-10.203 -8.3,-18.5 -18.49,-18.5 z m 21.59,65.148 c -33.53,0 -60.79,-26.66 -60.79,-59.43 0,-4.261 0.46,-8.492 1.36,-12.621 6.74,-4.82 27.06,-8.898 53.48,-7.308 28.79,1.73 52.97,9.57 66.72,21.59 -0.05,1.949 -0.21,3.898 -0.45,5.82 -3.8,29.621 -29.74,51.949 -60.32,51.949" /><path
         id="path506"
         style="fill:#a3b5c4;fill-opacity:1;fill-rule:nonzero;stroke:none"
         d="m 2815.96,334.492 c -2.95,1.156 -8.06,3.09 -13.83,2.367 -5.51,-0.679 -8.44,-3.398 -8.44,-10.058 v -8.66 h 22.28 v -17.18 h -22.28 v -54.539 h -19.32 v 54.539 h -13.39 v 17.18 h 13.39 v 8.879 c 0,16.8 8.96,27.832 25.69,27.832 6.42,0 11.57,-1.223 15.9,-3.09 v -17.27" /><path
         id="path508"
         style="fill:#a3b5c4;fill-opacity:1;fill-rule:nonzero;stroke:none"
         d="m 2862.98,301.172 c -1.77,0.297 -3.58,0.469 -5.27,0.469 -8.95,0 -15.09,-5.481 -15.09,-16.149 v -39.07 h -19.32 v 71.719 h 18.73 v -7.852 c 4.51,6.742 11.4,9.77 20.21,9.77 4.14,0 8.47,-1.27 10.93,-3.368 l -10.19,-15.519" /><path
         id="path510"
         style="fill:#a3b5c4;fill-opacity:1;fill-rule:nonzero;stroke:none"
         d="m 2888.51,289.051 h 31.74 c -1.76,9.179 -7.32,14.359 -15.61,14.359 -9.1,0 -14.44,-5.469 -16.13,-14.359 z m 51.14,-6.66 c 0,-2.219 -0.15,-4.879 -0.37,-6.52 h -50.84 c 2.07,-10.359 9.32,-14.871 18.42,-14.871 6.22,0 12.95,2.512 18.14,6.879 l 11.32,-12.438 c -8.14,-7.472 -18.51,-10.871 -30.57,-10.871 -21.98,0 -37.22,14.95 -37.22,37.532 0,22.558 14.8,37.957 36.25,37.957 20.66,0 34.8,-15.317 34.87,-37.668" /><path
         id="path512"
         style="fill:#a3b5c4;fill-opacity:1;fill-rule:nonzero;stroke:none"
         d="m 2965.04,289.051 h 31.76 c -1.78,9.179 -7.34,14.359 -15.63,14.359 -9.1,0 -14.43,-5.469 -16.13,-14.359 z m 51.14,-6.66 c 0,-2.219 -0.15,-4.879 -0.37,-6.52 h -50.84 c 2.07,-10.359 9.32,-14.871 18.43,-14.871 6.21,0 12.95,2.512 18.13,6.879 l 11.32,-12.438 c -8.14,-7.472 -18.5,-10.871 -30.57,-10.871 -21.98,0 -37.22,14.95 -37.22,37.532 0,22.558 14.8,37.957 36.26,37.957 20.65,0 34.79,-15.317 34.86,-37.668" /><path
         id="path514"
         style="fill:#a3b5c4;fill-opacity:1;fill-rule:nonzero;stroke:none"
         d="m 3042.87,282.309 c 0,-11.317 7.48,-19.758 18.43,-19.758 11.4,0 18.5,8.808 18.5,19.758 0,10.961 -7.1,19.773 -18.5,19.773 -10.95,0 -18.43,-8.441 -18.43,-19.773 z m 56.77,0 c 0,-21.528 -14.95,-37.739 -34.71,-37.739 -9.63,0 -16.43,3.782 -21.09,9.321 v -37.082 h -19.25 v 101.332 h 18.88 v -7.922 c 4.65,5.84 11.54,9.84 21.38,9.84 19.84,0 34.79,-16.207 34.79,-37.75" /><path
         id="path516"
         style="fill:#a3b5c4;fill-opacity:1;fill-rule:nonzero;stroke:none"
         d="m 3128.09,246.422 h -19.32 v 71.719 h 19.32 z m 2.58,95.18 c 0,-6.961 -5.4,-12.293 -12.35,-12.293 -6.96,0 -12.29,5.332 -12.29,12.293 0,6.957 5.33,12.437 12.29,12.437 6.95,0 12.35,-5.48 12.35,-12.437" /><path
         id="path518"
         style="fill:#a3b5c4;fill-opacity:1;fill-rule:nonzero;stroke:none"
         d="m 3160.32,292.602 27.01,25.539 h 23.7 l -34.8,-33.75 35.01,-37.969 h -23.76 l -27.16,29.019 v -29.019 h -19.31 v 106.57 h 19.31 v -60.39" /><path
         id="path520"
         style="fill:#a3b5c4;fill-opacity:1;fill-rule:nonzero;stroke:none"
         d="m 1844.13,266.262 v 32.078 c -3.96,6.152 -12.46,11.422 -21.24,11.422 -14.21,0 -22.71,-11.723 -22.71,-27.391 0,-15.68 8.5,-27.25 22.71,-27.25 8.78,0 17.28,4.981 21.24,11.141 z m 0,-19.192 v 10.539 c -5.28,-7.168 -13.92,-12.3 -23.88,-12.3 -18.46,0 -31.5,14.062 -31.5,37.062 0,22.559 12.9,37.211 31.5,37.211 9.52,0 18.16,-4.691 23.88,-12.461 v 37.649 h 10.98 v -97.7 h -10.98" /><path
         id="path522"
         style="fill:#a3b5c4;fill-opacity:1;fill-rule:nonzero;stroke:none"
         d="m 1904.03,310.492 c -15.08,0 -22.56,-12.742 -23.14,-23.582 h 46.43 c -0.14,10.551 -7.17,23.582 -23.29,23.582 z m -34.71,-27.98 c 0,20.508 14.64,37.07 34.86,37.07 21.39,0 33.98,-16.703 33.98,-37.941 v -2.789 h -57.27 c 0.88,-13.332 10.25,-24.461 25.49,-24.461 8.05,0 16.26,3.218 21.82,8.941 l 5.28,-7.184 c -7.03,-7.027 -16.56,-10.839 -28.13,-10.839 -20.95,0 -36.03,15.089 -36.03,37.203" /><path
         id="path524"
         style="fill:#a3b5c4;fill-opacity:1;fill-rule:nonzero;stroke:none"
         d="m 1946.07,256.441 5.71,7.911 c 4.69,-5.422 13.63,-10.11 23.29,-10.11 10.84,0 16.7,5.129 16.7,12.16 0,17.137 -43.8,6.59 -43.8,32.809 0,10.988 9.52,20.371 26.37,20.371 12.01,0 20.51,-4.543 26.22,-10.262 l -5.13,-7.609 c -4.24,5.121 -12.01,8.93 -21.09,8.93 -9.67,0 -15.67,-4.832 -15.67,-11.129 0,-15.532 43.79,-5.282 43.79,-32.821 0,-11.859 -9.52,-21.382 -27.83,-21.382 -11.57,0 -21.38,3.511 -28.56,11.132" /><path
         id="path526"
         style="fill:#a3b5c4;fill-opacity:1;fill-rule:nonzero;stroke:none"
         d="m 2016.67,247.07 v 70.75 h 10.99 v -70.75 z m -1.9,88.18 c 0,4.102 3.37,7.469 7.32,7.469 4.1,0 7.47,-3.367 7.47,-7.469 0,-4.102 -3.37,-7.32 -7.47,-7.32 -3.95,0 -7.32,3.218 -7.32,7.32" /><path
         id="path528"
         style="fill:#a3b5c4;fill-opacity:1;fill-rule:nonzero;stroke:none"
         d="m 2097.08,267.43 v 30.91 c -3.8,6.152 -12.3,11.422 -21.08,11.422 -14.22,0 -22.71,-11.282 -22.71,-26.953 0,-15.528 8.49,-26.95 22.71,-26.95 8.78,0 17.28,5.422 21.08,11.571 z m -51.26,-38.528 5.57,8.207 c 5.86,-7.039 12.89,-9.668 22.99,-9.668 11.72,0 22.7,5.707 22.7,21.239 v 10.109 c -5.12,-7.18 -13.76,-12.598 -23.73,-12.598 -18.45,0 -31.49,13.77 -31.49,36.618 0,22.703 12.89,36.773 31.49,36.773 9.53,0 18.03,-4.691 23.73,-12.461 v 10.699 h 10.99 v -68.699 c 0,-23.441 -16.41,-30.762 -33.69,-30.762 -12.01,0 -20.21,2.34 -28.56,10.543" /><path
         id="path530"
         style="fill:#a3b5c4;fill-opacity:1;fill-rule:nonzero;stroke:none"
         d="m 2174.13,247.07 v 46.289 c 0,12.45 -6.29,16.403 -15.81,16.403 -8.65,0 -16.86,-5.27 -20.95,-10.981 V 247.07 h -10.99 v 70.75 h 10.99 v -10.261 c 4.98,5.863 14.64,12.023 25.19,12.023 14.79,0 22.56,-7.473 22.56,-22.863 V 247.07 h -10.99" /><path
         id="path532"
         style="fill:#a3b5c4;fill-opacity:1;fill-rule:nonzero;stroke:none"
         d="m 2234.04,310.492 c -15.09,0 -22.56,-12.742 -23.14,-23.582 h 46.43 c -0.15,10.551 -7.18,23.582 -23.29,23.582 z m -34.71,-27.98 c 0,20.508 14.64,37.07 34.86,37.07 21.38,0 33.98,-16.703 33.98,-37.941 v -2.789 h -57.27 c 0.88,-13.332 10.25,-24.461 25.49,-24.461 8.05,0 16.25,3.218 21.82,8.941 l 5.28,-7.184 c -7.04,-7.027 -16.56,-10.839 -28.13,-10.839 -20.95,0 -36.03,15.089 -36.03,37.203" /><path
         id="path534"
         style="fill:#a3b5c4;fill-opacity:1;fill-rule:nonzero;stroke:none"
         d="m 2333.5,266.262 v 32.078 c -3.96,6.152 -12.45,11.422 -21.24,11.422 -14.21,0 -22.7,-11.723 -22.7,-27.391 0,-15.68 8.49,-27.25 22.7,-27.25 8.79,0 17.28,4.981 21.24,11.141 z m 0,-19.192 v 10.539 c -5.27,-7.168 -13.92,-12.3 -23.88,-12.3 -18.45,0 -31.49,14.062 -31.49,37.062 0,22.559 12.89,37.211 31.49,37.211 9.52,0 18.17,-4.691 23.88,-12.461 v 37.649 h 10.98 v -97.7 h -10.98" /><path
         id="path536"
         style="fill:#a3b5c4;fill-opacity:1;fill-rule:nonzero;stroke:none"
         d="m 2429,255.121 c 14.35,0 22.85,11.57 22.85,27.25 0,15.668 -8.5,27.391 -22.85,27.391 -8.64,0 -17.29,-5.27 -21.09,-11.422 v -32.078 c 3.8,-6.16 12.45,-11.141 21.09,-11.141 z m -32.08,-8.051 v 97.7 h 10.99 v -37.649 c 5.71,7.77 14.2,12.461 23.87,12.461 18.46,0 31.5,-14.652 31.5,-37.211 0,-23 -13.04,-37.062 -31.5,-37.062 -9.96,0 -18.6,5.132 -23.87,12.3 V 247.07 h -10.99" /><path
         id="path538"
         style="fill:#a3b5c4;fill-opacity:1;fill-rule:nonzero;stroke:none"
         d="m 2475.28,229.34 c 1.61,-0.731 4.26,-1.168 6.01,-1.168 4.83,0 8.06,1.609 10.55,7.469 l 4.68,10.691 -29.59,71.488 h 11.87 l 23.58,-58.011 23.44,58.011 h 12.01 l -35.45,-85.109 c -4.25,-10.25 -11.42,-14.211 -20.8,-14.352 -2.34,0 -6,0.442 -8.05,1.02 l 1.75,9.961" /></g></g></svg>