<?xml version="1.0" encoding="UTF-8" standalone="no"?>
<svg
   xmlns:dc="http://purl.org/dc/elements/1.1/"
   xmlns:cc="http://creativecommons.org/ns#"
   xmlns:rdf="http://www.w3.org/1999/02/22-rdf-syntax-ns#"
   xmlns:svg="http://www.w3.org/2000/svg"
   xmlns="http://www.w3.org/2000/svg"
   xmlns:sodipodi="http://sodipodi.sourceforge.net/DTD/sodipodi-0.dtd"
   xmlns:inkscape="http://www.inkscape.org/namespaces/inkscape"
   version="1.1"
   id="svg2"
   xml:space="preserve"
   width="554.66669"
   height="528.77332"
   viewBox="0 0 554.66669 528.77332"
   sodipodi:docname="peeping.eps"><metadata
     id="metadata8"><rdf:RDF><cc:Work
         rdf:about=""><dc:format>image/svg+xml</dc:format><dc:type
           rdf:resource="http://purl.org/dc/dcmitype/StillImage" /></cc:Work></rdf:RDF></metadata><defs
     id="defs6" /><sodipodi:namedview
     pagecolor="#ffffff"
     bordercolor="#666666"
     borderopacity="1"
     objecttolerance="10"
     gridtolerance="10"
     guidetolerance="10"
     inkscape:pageopacity="0"
     inkscape:pageshadow="2"
     inkscape:window-width="640"
     inkscape:window-height="480"
     id="namedview4" /><g
     id="g10"
     inkscape:groupmode="layer"
     inkscape:label="ink_ext_XXXXXX"
     transform="matrix(1.3333333,0,0,-1.3333333,0,528.77333)"><g
       id="g12"
       transform="scale(0.1)"><path
         d="m 2436.58,2524.09 h 1412.33 c 0,0 -70.62,304.83 -129.79,346.82 -59.16,41.99 -297.73,-20.99 -385.53,0 l -450.41,-11.45 c 0,0 -185.13,47.71 -278.65,17.17 -93.51,-30.53 -154.59,-270.48 -167.95,-352.54"
         style="fill:#aa8282;fill-opacity:1;fill-rule:nonzero;stroke:none"
         id="path14" /><path
         d="m 3108.4,2662.88 c 198.79,25.02 267.92,142.13 290.83,203.93 -25.92,-0.86 -48.62,0.03 -65.64,4.1 l -450.41,-11.45 c 0,0 -27.7,7.13 -67.04,14.11 16.17,-71.59 77.1,-237.78 292.26,-210.69"
         style="fill:#fdede2;fill-opacity:1;fill-rule:nonzero;stroke:none"
         id="path16" /><path
         d="m 3112.21,2714.41 c 47.44,5.04 223.3,76.34 221.38,156.5 0,0 -78.88,2.66 -89.06,204.22 l -281.19,-10.18 c 0,0 7.64,-178.11 -80.16,-205.49 0,0 13.36,-167.95 229.03,-145.05"
         style="fill:#fab6ae;fill-opacity:1;fill-rule:nonzero;stroke:none"
         id="path18" /><path
         d="m 3075.95,2858.5 c 98.69,9.77 159.61,48.13 193.95,79.48 -12.19,30.15 -22.17,73.82 -25.37,137.15 l -281.19,-10.18 c 0,0 5.62,-132.41 -49.14,-186.42 47.67,-13.08 111.18,-25.03 161.75,-20.03"
         style="fill:#f89d95;fill-opacity:1;fill-rule:nonzero;stroke:none"
         id="path20" /><path
         d="m 3339.96,3378.58 c 0,0 -24.81,-312.99 -55.35,-358.8 -30.54,-45.81 -135.51,-82.07 -187.03,-83.98 -51.54,-1.9 -169.87,43.9 -202.32,103.06 -32.44,59.17 -101.15,339.72 -101.15,339.72 0,0 -11.44,227.12 125.97,263.39 137.41,36.26 290.1,64.89 345.45,0 55.35,-64.9 80.15,-199.28 74.43,-263.39"
         style="fill:#fab6ae;fill-opacity:1;fill-rule:nonzero;stroke:none"
         id="path22" /><path
         d="m 3332.32,3254.53 c 0,0 169.87,238.57 171.77,351.17 1.92,112.61 -85.88,116.42 -85.88,116.42 0,0 -5.72,141.24 -94.47,181.32 -88.75,40.08 -147.92,9.54 -147.92,9.54 0,0 -97.33,83.98 -188.94,40.08 -91.62,-43.9 -106.88,-99.25 -106.88,-99.25 0,0 -110.69,-13.36 -131.69,-68.7 -21,-55.35 -21,-104.48 -21,-104.48 0,0 -59.16,-42.48 -45.8,-122.64 13.36,-80.16 55.48,-164.47 136.53,-273.1 0,0 11.86,78.07 21.65,93.52 9.77,15.44 61.31,108.96 36.49,181.48 0,0 43.9,-53.43 112.61,-30.53 68.7,22.91 91.61,70.62 91.61,70.62 0,0 19.08,-45.8 72.52,-43.9 53.44,1.91 70.62,13.36 70.62,13.36 0,0 3.81,-53.44 30.53,-59.16 26.72,-5.73 26.72,-5.73 26.72,-5.73 0,0 13.36,-208.03 51.53,-250.02"
         style="fill:#f89e11;fill-opacity:1;fill-rule:nonzero;stroke:none"
         id="path24" /><path
         d="m 3337.17,3346.05 c 0,0 51.99,91.7 85.6,59.26 26.26,-25.36 5.38,-132.97 -44.6,-178.77 -13.99,-12.83 -37.41,-22.9 -54.43,-10.07 l 13.43,129.58"
         style="fill:#fab6ae;fill-opacity:1;fill-rule:nonzero;stroke:none"
         id="path26" /><path
         d="m 2801.82,3347.82 c 0,0 -42.06,33.31 -72.59,12.32 -30.54,-21 27.99,-156.5 72.4,-168.59 27.8,-7.57 38.06,13.51 38.06,13.51 l -37.87,142.76"
         style="fill:#fab6ae;fill-opacity:1;fill-rule:nonzero;stroke:none"
         id="path28" /><path
         d="m 2561.28,2487.56 c 0,0 36.9,-53.35 57.26,-49 20.36,4.36 3.81,68.6 -6.36,117.61 -10.18,49 -16.55,189.96 -91.61,194.31 -75.07,4.36 -162.86,-109.73 -176.86,-156.2 -13.99,-46.48 39.44,-170.96 59.8,-172.05 20.36,-1.09 24.18,34.84 24.18,34.84 0,0 24.17,-50.08 43.14,-46.22 8.92,1.81 28.11,4.85 24.29,59.29 0,0 26.88,-70.6 47.08,-67.51 35.62,5.45 19.08,84.93 19.08,84.93"
         style="fill:#fab6ae;fill-opacity:1;fill-rule:nonzero;stroke:none"
         id="path30" /><path
         d="m 3724.2,2487.56 c 0,0 -36.9,-53.35 -57.26,-49 -20.35,4.36 -3.81,68.6 6.37,117.61 10.18,49 16.53,98.88 91.61,103.23 75.07,4.36 162.86,-18.65 176.86,-65.12 13.99,-46.48 -39.45,-170.96 -59.81,-172.05 -20.35,-1.09 -24.17,34.84 -24.17,34.84 0,0 -24.18,-50.08 -43.14,-46.22 -8.92,1.81 -28.11,4.85 -24.3,59.29 0,0 -26.87,-70.6 -47.07,-67.51 -35.62,5.45 -19.09,84.93 -19.09,84.93"
         style="fill:#fab6ae;fill-opacity:1;fill-rule:nonzero;stroke:none"
         id="path32" /><path
         d="m 3107.69,3284.11 c 0,0 0.7,-80.16 16.92,-86.84 16.22,-6.68 33.4,-13.36 25.77,-35.3 -7.64,-21.95 -41.03,-41.04 -51.53,-33.41 -10.5,7.64 27.63,30.54 26.7,41.99 -0.94,11.46 -24.64,4.56 -28.54,39.98 -3.88,35.41 -10.41,88.85 0,90.76 10.42,1.91 10.68,-17.18 10.68,-17.18"
         style="fill:#f89d95;fill-opacity:1;fill-rule:nonzero;stroke:none"
         id="path34" /><path
         d="m 3031.09,3093.26 c 0,0 45.8,-20.99 83.98,-8.59 38.17,12.4 55.35,29.58 60.12,22.9 4.77,-6.68 -16.23,-60.12 -57.26,-64.89 -41.04,-4.77 -60.63,12.14 -71.57,20.04 -17.18,12.41 -34.35,31.49 -15.27,30.54"
         style="fill:#f57b7d;fill-opacity:1;fill-rule:nonzero;stroke:none"
         id="path36" /><path
         d="m 2990.46,3292.33 c 0,-20.88 -11.16,-37.8 -24.92,-37.8 -13.76,0 -24.91,16.92 -24.91,37.8 0,20.88 11.15,37.81 24.91,37.81 13.76,0 24.92,-16.93 24.92,-37.81"
         style="fill:#1c232a;fill-opacity:1;fill-rule:nonzero;stroke:none"
         id="path38" /><path
         d="m 3225.69,3292.33 c 0,-20.88 -11.16,-37.8 -24.92,-37.8 -13.76,0 -24.91,16.92 -24.91,37.8 0,20.88 11.15,37.81 24.91,37.81 13.76,0 24.92,-16.93 24.92,-37.81"
         style="fill:#1c232a;fill-opacity:1;fill-rule:nonzero;stroke:none"
         id="path40" /><path
         d="m 3151.81,3366.86 c 0,0 26.09,49.02 62.51,39.59 36.41,-9.41 61.68,-56.01 68.57,-51.29 6.9,4.71 -23.46,54.83 -65.54,67.45 -42.09,12.62 -75.2,-31.34 -77.96,-42.33 -2.76,-10.99 4.89,-23.09 12.42,-13.42"
         style="fill:#f89e11;fill-opacity:1;fill-rule:nonzero;stroke:none"
         id="path42" /><path
         d="m 3011.62,3366.86 c 0,0 -26.94,49.02 -63.36,39.59 -36.41,-9.41 -60.83,-56.01 -67.72,-51.29 -6.91,4.71 23.45,54.83 65.53,67.45 42.09,12.62 75.21,-31.34 77.96,-42.33 2.77,-10.99 -4.88,-23.09 -12.41,-13.42"
         style="fill:#f89e11;fill-opacity:1;fill-rule:nonzero;stroke:none"
         id="path44" /><path
         d="m 728.738,3879.12 c 0,0 128.172,35.9 202.282,-61.56 74.12,-97.46 66.585,-242.66 150.13,-266.52 83.54,-23.87 112.42,-89.51 122.37,-165.09 9.94,-75.59 -65.64,-678.26 -270.508,-779.7 -204.867,-101.44 -226.188,-69.63 -226.188,-69.63 0,0 -320.129,-47.52 -431.511,40.46 -111.387,87.99 -30.5,283.77 -70.278,367.31 -39.781,83.54 -143.2069,133.26 -129.2889,312.27 13.9258,179.01 129.2889,226.75 123.3199,316.25 -5.964,89.51 1.395,275.07 212.825,363.99 212.828,89.51 316.847,-57.78 316.847,-57.78"
         style="fill:#1c232a;fill-opacity:1;fill-rule:nonzero;stroke:none"
         id="path46" /><path
         d="m 853.453,2980.19 c 0,0 -53.043,-41.11 -107.406,-64.98 C 691.68,2891.35 580.293,2811.79 608.141,2687.14 635.984,2562.49 1248.6,2118.29 1248.6,2118.29 v 1389.65 c 0,0 -132.6,-201.55 -200.23,-233.38 L 853.453,2980.19"
         style="fill:#f57b7d;fill-opacity:1;fill-rule:nonzero;stroke:none"
         id="path48" /><path
         d="m 1318.48,3548.05 c 0,0 62.77,-25.08 63.08,-46.78 0.31,-21.69 -68.8,-19.82 -120.95,-20.86 -52.14,-1.05 -104.3,-6.17 -126.17,69.08 -21.87,75.26 -18.89,169.79 25.07,194.81 43.96,25.02 182.84,-0.35 188.68,-20.78 5.83,-20.43 -29.78,-32.65 -29.78,-32.65 0,0 56.5,-12.92 56.99,-33.09 0.23,-9.48 1.6,-29.69 -54.6,-38.46 0,0 77.97,-10.9 79.53,-32.14 2.75,-37.46 -81.85,-39.13 -81.85,-39.13"
         style="fill:#fab6ae;fill-opacity:1;fill-rule:nonzero;stroke:none"
         id="path50" /><path
         d="m 1305.7,2344.72 c 0,0 42.36,-23.58 42.66,-45.27 0.31,-21.7 -21.01,-21.34 -73.15,-22.38 -52.15,-1.05 -104.31,-6.17 -126.18,69.08 -21.86,75.26 -18.88,169.79 25.07,194.81 43.96,25.02 188.32,3.27 194.16,-17.16 5.83,-20.43 -62.63,-36.27 -62.63,-36.27 0,0 106.88,-11.27 106.88,-31.45 0,-31.82 -48.29,-31.33 -104.49,-40.1 0,0 77.97,-10.9 79.52,-32.14 2.75,-37.46 -81.84,-39.12 -81.84,-39.12"
         style="fill:#fab6ae;fill-opacity:1;fill-rule:nonzero;stroke:none"
         id="path52" /><path
         d="m 907.152,3366.06 c 0,0 61.661,-105.42 141.218,-91.5 0,0 55.7,-41.77 21.88,-173.04 -33.81,-131.28 -149.172,-143.21 -216.797,-121.33 l -97.461,129.29 151.16,256.58"
         style="fill:#fab6ae;fill-opacity:1;fill-rule:nonzero;stroke:none"
         id="path54" /><path
         d="m 992.027,3283.37 c -50.504,24 -84.875,82.69 -84.875,82.69 l -151.16,-256.58 31.141,-41.32 c 11.719,2.35 23.711,6.02 35.82,11.48 64.375,29.01 132.442,137.8 169.074,203.73"
         style="fill:#f89d95;fill-opacity:1;fill-rule:nonzero;stroke:none"
         id="path56" /><path
         d="m 374.102,3451.59 c 0,0 67.621,-429.63 244.648,-433.61 177.02,-3.98 304.316,244.65 288.402,348.08 0,0 -135.25,95.47 -171.054,190.94 -35.801,95.48 -35.801,95.48 -35.801,95.48 0,0 -165.086,-183 -326.195,-200.89"
         style="fill:#fab6ae;fill-opacity:1;fill-rule:nonzero;stroke:none"
         id="path58" /><path
         d="m 726.273,3391.8 c 5.641,-17.79 0.7,-35.23 -11.031,-38.95 -11.726,-3.71 -25.808,7.7 -31.441,25.5 -5.641,17.79 -0.699,35.23 11.027,38.95 11.731,3.72 25.813,-7.7 31.445,-25.5"
         style="fill:#1c232a;fill-opacity:1;fill-rule:nonzero;stroke:none"
         id="path60" /><path
         d="m 509.473,3334.77 c 5.64,-17.8 0.699,-35.24 -11.032,-38.96 -11.73,-3.71 -25.808,7.7 -31.445,25.5 -5.641,17.8 -0.695,35.23 11.031,38.95 11.731,3.71 25.813,-7.7 31.446,-25.49"
         style="fill:#1c232a;fill-opacity:1;fill-rule:nonzero;stroke:none"
         id="path62" /><path
         d="m 621.531,3427.91 c 0,0 13.664,41.25 49.426,44.23 35.766,2.99 68.531,-21.41 73.652,-15.61 5.118,5.79 -35.472,37.34 -77.25,35.29 -41.773,-2.05 -60.898,-47.07 -60.625,-56.71 0.278,-9.65 10.368,-17.17 14.797,-7.2"
         style="fill:#1c232a;fill-opacity:1;fill-rule:nonzero;stroke:none"
         id="path64" /><path
         d="m 493.098,3387.23 c 0,0 -34.922,25.86 -65.879,7.7 -30.965,-18.15 -43.703,-56.96 -51.227,-55.17 -7.519,1.79 7.504,50.95 42.84,73.33 35.34,22.37 76.887,-3.41 82.219,-11.46 5.332,-8.05 1.41,-20 -7.953,-14.4"
         style="fill:#1c232a;fill-opacity:1;fill-rule:nonzero;stroke:none"
         id="path66" /><path
         d="m 571.012,3356.78 c 0,0 -23.867,-102.11 -14.586,-124.65 9.281,-22.54 58.344,-17.24 60.996,-7.95 2.652,9.28 -46.41,12.04 -50.387,20.61 -3.976,8.55 27.844,141.16 3.977,111.99"
         style="fill:#f89d95;fill-opacity:1;fill-rule:nonzero;stroke:none"
         id="path68" /><path
         d="m 568.359,3155.22 c 0,0 76.911,-21.22 116.692,29.17 0,0 4.219,-92.82 -45.625,-91.49 -49.852,1.33 -71.067,62.32 -71.067,62.32"
         style="fill:#f57b7d;fill-opacity:1;fill-rule:nonzero;stroke:none"
         id="path70" /><path
         d="m 788.066,3309.88 c 3.954,-11.02 -12.097,-26.87 -35.855,-35.4 -23.758,-8.52 -46.231,-6.49 -50.184,4.54 -3.957,11.03 12.098,26.88 35.856,35.4 23.758,8.52 46.222,6.49 50.183,-4.54"
         style="fill:#f791a7;fill-opacity:1;fill-rule:nonzero;stroke:none"
         id="path72" /><path
         d="m 537.449,3231.63 c 3.957,-11.03 -12.097,-26.88 -35.855,-35.4 -23.758,-8.53 -46.227,-6.5 -50.184,4.54 -3.953,11.03 12.098,26.87 35.856,35.39 23.757,8.53 46.226,6.5 50.183,-4.53"
         style="fill:#f791a7;fill-opacity:1;fill-rule:nonzero;stroke:none"
         id="path74" /><path
         d="m 1126.35,2563.82 c -1.62,0 -3.25,0.5 -4.65,1.51 -257.669,185.39 -350.919,240.39 -351.833,240.91 -3.793,2.23 -5.066,7.1 -2.847,10.89 2.21,3.78 7.058,5.07 10.894,2.85 0.902,-0.54 94.586,-55.74 353.086,-241.74 3.57,-2.57 4.38,-7.54 1.81,-11.11 -1.55,-2.16 -3.99,-3.31 -6.46,-3.31"
         style="fill:#f791a7;fill-opacity:1;fill-rule:nonzero;stroke:none"
         id="path76" /><path
         d="M 1746.35,948.102 C 1746.35,465.871 1355.42,74.9297 873.18,74.9297 390.934,74.9297 0,465.871 0,948.102 c 0,482.248 390.934,873.178 873.18,873.178 482.24,0 873.17,-390.93 873.17,-873.178"
         style="fill:#a4ced1;fill-opacity:1;fill-rule:nonzero;stroke:none"
         id="path78" /><path
         d="m 752.344,1586.63 c 0,0 103.062,125.97 255.746,108.79 152.68,-17.18 309.18,-168.95 335.9,-345.95 26.72,-177 -7.63,-300.15 38.17,-379.81 45.81,-79.648 122.15,-114.012 139.33,-213.25 17.17,-99.242 -47.72,-162.23 -80.16,-169.859 -32.45,-7.641 -7.63,-13.36 -64.89,-89.711 C 1319.18,420.512 1072.98,319.352 790.512,374.699 508.047,430.051 471.781,563.641 427.887,596.09 c -43.899,32.441 -160.321,89.699 -156.5,217.578 3.816,127.871 141.23,185.133 145.051,313.002 3.816,127.87 74.429,496.22 335.906,459.96"
         style="fill:#b83441;fill-opacity:1;fill-rule:nonzero;stroke:none"
         id="path80" /><path
         d="m 1311.55,500.66 c -62.26,4.231 -187.04,-53.43 -187.04,-53.43 0,0 -427.518,13.348 -498.131,23.129 C 555.762,480.148 460.063,559.82 343.91,540.738 268.656,528.379 175.934,423.59 175.512,423.078 334.867,211.66 588.031,74.9297 873.18,74.9297 c 258.79,0 491.19,112.6793 651.08,291.5393 -1.56,1.609 -72.12,124.652 -212.71,134.191"
         style="fill:#a1529c;fill-opacity:1;fill-rule:nonzero;stroke:none"
         id="path82" /><path
         d="m 1023.35,702.969 c 0,0 -1.9,-209.469 49.63,-232.61 51.53,-23.129 51.53,-23.129 51.53,-23.129 0,0 -208.033,-141.242 -316.819,-116.429 -108.789,24.808 -181.312,139.558 -181.312,139.558 0,0 55.344,11.219 82.066,99.012 26.723,87.797 26.785,146.219 26.785,146.219 l 288.12,-12.621"
         style="fill:#fab6ae;fill-opacity:1;fill-rule:nonzero;stroke:none"
         id="path84" /><path
         d="m 1032.45,567.461 c -9.73,64.059 -9.1,135.508 -9.1,135.508 L 735.23,715.59 c 0,0 -0.085,-31.219 -10.496,-82.16 65.579,-29.61 197.711,-80.239 307.716,-65.969"
         style="fill:#f89d95;fill-opacity:1;fill-rule:nonzero;stroke:none"
         id="path86" /><path
         d="m 1334.07,320.379 c 0,0 121.31,112.07 157.41,115.891 36.12,3.82 58.48,-27.36 73.38,-48.192 14.92,-20.808 56.12,-114.707 38.55,-113.648 -17.56,1.082 -63.08,30.519 -63.08,30.519 0,0 37.86,-67.41 24.56,-86.918 -13.3,-19.519 -79.65,51.09 -79.65,51.09 0,0 38.94,-86.742 34.08,-104.781 -4.86,-18.039 -50.04,23 -73.99,52.051 0,0 13.99,-63.621 4.25,-63.11 -9.75,0.52 -38.3,-2.23 -80.33,43.258 -42.03,45.492 -59.56,70.609 -35.18,123.84"
         style="fill:#fab6ae;fill-opacity:1;fill-rule:nonzero;stroke:none"
         id="path88" /><path
         d="m 375.176,344.879 c 0,0 -111.082,122.211 -146.723,129.16 -35.644,6.949 -68.73,-28.008 -85.394,-47.437 C 126.391,407.16 77.1719,317.199 94.7617,316.73 c 17.5863,-0.46 65.5043,24.899 65.5043,24.899 0,0 -43.586,-63.859 -32.036,-84.449 11.555,-20.602 83.786,43.968 83.786,43.968 0,0 -46.336,-83.027 -43.067,-101.41 3.274,-18.398 51.856,18.551 78.242,45.403 0,0 -19.476,-62.153 -9.718,-62.493 9.75,-0.347 37.953,-5.558 83.781,36.102 45.832,41.648 73.574,70.988 53.922,126.129"
         style="fill:#fab6ae;fill-opacity:1;fill-rule:nonzero;stroke:none"
         id="path90" /><path
         d="m 1198.94,1111.01 c 0,0 -55.35,-251.709 -80.16,-333.701 C 1093.97,695.34 950.828,626.629 906.934,615.172 863.035,603.73 731.348,691.52 706.539,762.141 c -24.816,70.609 -70.621,312.999 -70.621,312.999 0,0 120.238,133.6 133.598,250.02 0,0 57.261,-135.51 215.672,-185.13 0,0 -64.895,49.62 -93.524,118.33 0,0 164.136,-149.63 307.276,-147.35"
         style="fill:#fab6ae;fill-opacity:1;fill-rule:nonzero;stroke:none"
         id="path92" /><path
         d="m 992.789,1035.81 c 0,0 26.091,72.81 62.501,58.82 36.42,-14 61.68,-83.22 68.58,-76.21 6.9,6.99 -23.45,81.46 -65.54,100.21 -42.08,18.75 -75.201,-46.56 -77.959,-62.89 -2.758,-16.33 4.887,-34.31 12.418,-19.93"
         style="fill:#b83441;fill-opacity:1;fill-rule:nonzero;stroke:none"
         id="path94" /><path
         d="m 852.594,1035.81 c 0,0 -26.942,72.81 -63.356,58.82 -36.418,-14 -60.824,-83.22 -67.722,-76.21 -6.903,6.99 23.457,81.46 65.535,100.21 42.086,18.75 75.199,-46.56 77.961,-62.89 2.761,-16.33 -4.891,-34.31 -12.418,-19.93"
         style="fill:#b83441;fill-opacity:1;fill-rule:nonzero;stroke:none"
         id="path96" /><path
         d="m 797.715,1023.59 c -8.445,-1.12 -16.211,-5.63 -22.981,-11.3 l -8.66,7.98 c -2.308,2.13 -5.945,2 -8.082,-0.33 -2.148,-2.33 -1.996,-5.96 0.328,-8.1 l 8.172,-7.51 c -1.187,-1.31 -2.359,-2.58 -3.445,-3.89 l -12.074,6.64 c -2.774,1.53 -6.25,0.53 -7.77,-2.26 -1.539,-2.77 -0.523,-6.25 2.25,-7.769 l 10.602,-5.832 c -1.45,-2.098 -2.754,-4.071 -3.746,-5.668 l -9.989,5.34 c -2.742,1.48 -6.246,0.468 -7.734,-2.34 -1.512,-2.789 -0.449,-6.27 2.34,-7.75 l 14.847,-7.961 c 0.84,-0.449 1.762,-0.672 2.7,-0.672 0.55,0 1.117,0.07 1.656,0.242 1.461,0.442 2.684,1.449 3.398,2.781 5.086,9.52 22.129,34.729 39.692,37.049 19.386,2.51 31.285,-29.9 31.386,-30.22 1.059,-2.989 4.399,-4.532 7.309,-3.481 2.981,1.063 4.547,4.332 3.488,7.301 -0.597,1.711 -15.355,41.73 -43.687,37.75"
         style="fill:#1c232a;fill-opacity:1;fill-rule:nonzero;stroke:none"
         id="path98" /><path
         d="m 1108.39,988.551 c -1.51,2.808 -5.03,3.82 -7.74,2.34 l -9.99,-5.34 c -0.99,1.597 -2.29,3.57 -3.74,5.668 l 10.6,5.832 c 2.77,1.519 3.79,4.999 2.25,7.769 -1.5,2.79 -5.01,3.79 -7.77,2.26 l -12.07,-6.64 c -1.09,1.31 -2.26,2.58 -3.45,3.89 l 8.17,7.51 c 2.33,2.14 2.48,5.77 0.33,8.1 -2.13,2.33 -5.76,2.46 -8.08,0.33 l -8.66,-7.98 c -6.77,5.67 -14.52,10.18 -22.97,11.3 -28.67,3.98 -43.1,-36.039 -43.7,-37.75 -1.06,-2.969 0.51,-6.238 3.49,-7.301 2.94,-1.051 6.25,0.492 7.31,3.481 0.1,0.32 11.88,32.76 31.4,30.22 17.55,-2.32 34.59,-27.529 39.68,-37.049 0.71,-1.332 1.94,-2.339 3.4,-2.781 0.53,-0.172 1.1,-0.242 1.65,-0.242 0.94,0 1.86,0.223 2.7,0.672 l 14.85,7.961 c 2.79,1.48 3.85,4.961 2.34,7.75"
         style="fill:#1c232a;fill-opacity:1;fill-rule:nonzero;stroke:none"
         id="path100" /><path
         d="m 923.074,994.551 c 0,0 41.035,-99.93 32.449,-123.352 -8.589,-23.418 -50.578,-24.199 -42.941,-28.109 7.633,-3.899 49.621,-0.781 57.258,17.961 7.633,18.73 -34.356,125.687 -39.125,133.5 -4.774,7.799 -7.641,0 -7.641,0"
         style="fill:#f89d95;fill-opacity:1;fill-rule:nonzero;stroke:none"
         id="path102" /><path
         d="m 875.445,778.141 c 0,0 6.68,-33 45.325,-31.09 38.648,1.898 53.918,34.429 49.148,35.379 -4.773,0.961 -33.918,-24.11 -46.871,-24.11 -25.234,0 -40.922,20.301 -44.262,24.59 -3.34,4.301 -3.34,-4.769 -3.34,-4.769"
         style="fill:#b83441;fill-opacity:1;fill-rule:nonzero;stroke:none"
         id="path104" /><path
         d="m 1109.69,901.09 c 0,-12.969 -24.42,-23.481 -54.53,-23.481 -30.12,0 -54.53,10.512 -54.53,23.481 0,12.98 24.41,23.5 54.53,23.5 30.11,0 54.53,-10.52 54.53,-23.5"
         style="fill:#f791a7;fill-opacity:1;fill-rule:nonzero;stroke:none"
         id="path106" /><path
         d="m 837.715,901.09 c 0,-12.969 -24.41,-23.481 -54.527,-23.481 -30.114,0 -54.528,10.512 -54.528,23.481 0,12.98 24.414,23.5 54.528,23.5 30.117,0 54.527,-10.52 54.527,-23.5"
         style="fill:#f791a7;fill-opacity:1;fill-rule:nonzero;stroke:none"
         id="path108" /><path
         d="m 3464.06,1804.28 c -32.74,54.6 -91.22,88.58 -154.87,90 L 2209.46,1918.72 2125.49,643.809 H 4160 L 3464.06,1804.28"
         style="fill:#98abaa;fill-opacity:1;fill-rule:nonzero;stroke:none"
         id="path110" /><path
         d="m 3392.76,1185.84 c 0,0 89.7,-25.38 154.59,-125.97 66.61,-103.229 261.48,-416.061 261.48,-416.061 h -238.81 l -177.26,542.031"
         style="fill:#78d0a8;fill-opacity:1;fill-rule:nonzero;stroke:none"
         id="path112" /><path
         d="m 3732.48,1330.89 c 0,0 48.35,78.88 53.45,139.96 2.23,26.92 4.04,91.53 4.04,91.53 l 11.86,204.33 c 0,0 -59.16,53.19 -82.06,67.67 -22.91,14.49 -75.04,-3.27 -75.04,-3.27 l -47.11,-146.84 -20.36,22.91 -35.63,-12.73 c 0,0 2.33,-53.38 -5.3,-113.18 -7.64,-59.8 3.39,-122.27 3.39,-122.27 l 38.07,-99.83 167.87,-715.361 h 258.97 l -272.15,687.081"
         style="fill:#fab6ae;fill-opacity:1;fill-rule:nonzero;stroke:none"
         id="path114" /><path
         d="m 2598.65,1086.59 267.36,19.08 c 0,0 450.41,106.89 526.75,80.17 76.34,-26.72 290.1,-542.031 290.1,-542.031 H 2507.2 l 91.45,442.781"
         style="fill:#78d0a8;fill-opacity:1;fill-rule:nonzero;stroke:none"
         id="path116" /><path
         d="m 3060.67,1445.4 c 0,0 44.64,-229.3 64.9,-255.27 20.25,-25.98 35.02,-23.38 35.02,-23.38 0,0 10.78,-145.05 -119,-160.32 -129.78,-15.27 -206.7,97.38 -206.7,97.38 0,0 22.33,59.13 0,169.82 -22.32,110.7 -22.32,110.7 -22.32,110.7 l 248.1,61.07"
         style="fill:#fab6ae;fill-opacity:1;fill-rule:nonzero;stroke:none"
         id="path118" /><path
         d="m 3101.11,1262.52 c -19.64,76.08 -40.44,182.88 -40.44,182.88 l -248.1,-61.07 c 0,0 0,0 22.32,-110.7 8.83,-43.77 10.63,-79.33 9.63,-106.51 38.04,-5.41 78.1,-8.53 111.82,-5.46 68.26,6.21 119.76,65.45 144.77,100.86"
         style="fill:#f89d95;fill-opacity:1;fill-rule:nonzero;stroke:none"
         id="path120" /><path
         d="m 3105.05,1785.31 c 0,0 62.1,-329.88 52.39,-390.04 -9.7,-60.15 -118.37,-185.79 -178.52,-194.77 -60.16,-8.98 -195.99,29.83 -232.86,72.53 -36.87,42.68 -188.23,413.32 -188.23,413.32 0,0 17.46,172.7 126.13,209.58 108.67,36.86 306.61,97.02 355.11,50.45 48.52,-46.58 65.98,-161.07 65.98,-161.07"
         style="fill:#fab6ae;fill-opacity:1;fill-rule:nonzero;stroke:none"
         id="path122" /><path
         d="m 2662.26,1440.6 c 0,0 -6.18,76.93 0,125.43 6.18,48.52 -17.1,135.84 -17.1,135.84 0,0 122.24,-5.82 223.15,25.23 100.91,31.04 116.44,62.1 104.79,65.98 -11.64,3.88 -29.11,0 -29.11,0 0,0 39.71,34.93 76.14,31.05 36.41,-3.89 28.65,-23.29 28.65,-23.29 0,0 0,-131.95 67.92,-203.75 l 32.26,-79.91 c 0,0 51.18,206.04 31.77,347.69 -19.4,141.66 -128.07,209.58 -128.07,209.58 0,0 9.7,15.52 5.82,36.87 -3.88,21.35 -34.93,1.94 -83.44,0 -48.52,-1.94 -192.11,-11.64 -273.61,-27.17 -81.5,-15.52 -176.59,-93.14 -168.82,-130.01 0,0 -67.92,-114.49 -58.23,-201.82 9.71,-87.31 100.2,-227.57 187.88,-311.72"
         style="fill:#1c232a;fill-opacity:1;fill-rule:nonzero;stroke:none"
         id="path124" /><path
         d="m 2619.91,1538.04 c 0,0 -69.84,8.59 -62.08,-49.62 7.77,-58.22 85.18,-117.44 136.7,-118.88 l -74.62,168.5"
         style="fill:#fab6ae;fill-opacity:1;fill-rule:nonzero;stroke:none"
         id="path126" /><path
         d="m 3123.04,1684.5 c 0,0 62.48,44.54 88.74,-11.74 26.27,-56.27 -58.99,-186.37 -58.99,-186.37 l -29.75,198.11"
         style="fill:#fab6ae;fill-opacity:1;fill-rule:nonzero;stroke:none"
         id="path128" /><path
         d="M 3365.52,746.422 3026.24,386.148 2930.9,603.73 2706.95,412.238 2887.61,77.7188 c 53.51,-105.7696 174.46,-85.55864 198.16,-44.6407 84.01,145.0429 410.05,610.7309 410.05,610.7309 h 202.91 c -48.2,96.402 -195.96,123.461 -268.77,131.011 -25.04,2.598 -49.52,-8.109 -64.44,-28.398"
         style="fill:#fab6ae;fill-opacity:1;fill-rule:nonzero;stroke:none"
         id="path130" /><path
         d="m 2598.65,1086.59 c 0,0 146.97,24.82 215.67,-91.61 68.71,-116.421 202.27,-525.128 202.27,-525.128 L 2667.36,294.539 c 0,0 -159.53,393.801 -184.34,496.871 -24.81,103.051 -6.52,241.74 115.63,295.18"
         style="fill:#78d0a8;fill-opacity:1;fill-rule:nonzero;stroke:none"
         id="path132" /><path
         d="m 2952.7,1588.54 c 0,0 11.78,54.26 49.39,55.09 37.6,0.84 74.57,-37.13 79.93,-30.72 5.36,6.41 -37.48,46.4 -81.4,47.1 -43.94,0.71 -63.85,-50.61 -63.52,-61.93 0.33,-11.33 10.98,-20.89 15.6,-9.54"
         style="fill:#1c232a;fill-opacity:1;fill-rule:nonzero;stroke:none"
         id="path134" /><path
         d="m 2817.78,1550.44 c 0,0 -39.24,39.84 -71.74,20.88 -32.48,-18.97 -43.31,-70.44 -51.23,-67.79 -7.92,2.67 7.67,59.15 44.74,82.74 37.07,23.59 80.89,-9.72 86.53,-19.55 5.65,-9.83 1.58,-23.55 -8.3,-16.28"
         style="fill:#1c232a;fill-opacity:1;fill-rule:nonzero;stroke:none"
         id="path136" /><path
         d="m 3626.04,767.578 c -3.03,0 -5.87,1.793 -7.08,4.774 -0.85,2.117 -86.13,212.918 -149.36,303.548 -2.42,3.45 -1.57,8.21 1.89,10.62 3.43,2.39 8.2,1.58 10.63,-1.89 64.24,-92.04 147.48,-297.849 151.01,-306.56 1.57,-3.922 -0.32,-8.359 -4.24,-9.949 -0.93,-0.371 -1.9,-0.543 -2.85,-0.543"
         style="fill:#58c394;fill-opacity:1;fill-rule:nonzero;stroke:none"
         id="path138" /><path
         d="m 2940.16,684.039 c -3.75,0 -7.02,2.762 -7.55,6.563 -0.51,3.617 -53.24,360.588 -238.27,365.448 -4.22,0.12 -7.54,3.63 -7.45,7.84 0.11,4.2 3.97,7.15 7.84,7.44 82.48,-2.18 152.44,-68.81 202.35,-192.709 37.11,-92.16 50.52,-184.941 50.64,-185.871 0.6,-4.18 -2.3,-8.039 -6.48,-8.629 -0.37,-0.051 -0.73,-0.082 -1.08,-0.082"
         style="fill:#58c394;fill-opacity:1;fill-rule:nonzero;stroke:none"
         id="path140" /><path
         d="m 3669.5,1390.05 c -1.27,0 -2.55,0.31 -3.74,0.97 -3.67,2.07 -4.98,6.73 -2.91,10.4 52.3,93.06 -50.72,170.45 -55.13,173.7 -1.59,1.17 -2.66,2.91 -3,4.85 l -11.46,66.44 c -0.71,4.16 2.08,8.1 6.24,8.81 4.05,0.7 8.11,-2.06 8.82,-6.22 l 10.95,-63.53 c 16.84,-13.53 110.94,-95.31 56.88,-191.53 -1.39,-2.49 -3.98,-3.89 -6.65,-3.89"
         style="fill:#f89d95;fill-opacity:1;fill-rule:nonzero;stroke:none"
         id="path142" /><path
         d="m 2760.72,1460.66 c -0.36,0 -0.72,0.04 -1.09,0.11 -3.1,0.6 -5.13,3.6 -4.53,6.7 0.24,1.25 6.1,30.55 26.3,37.43 12.08,4.1 26,-0.65 41.31,-14.23 2.38,-2.09 2.6,-5.71 0.51,-8.07 -2.12,-2.37 -5.74,-2.58 -8.07,-0.5 -12.03,10.61 -22.16,14.68 -30.05,11.96 -11.6,-3.95 -17.47,-22.09 -18.76,-28.75 -0.52,-2.74 -2.92,-4.65 -5.62,-4.65"
         style="fill:#1c232a;fill-opacity:1;fill-rule:nonzero;stroke:none"
         id="path144" /><path
         d="m 2991.13,1526.17 c -0.36,0 -0.71,0.03 -1.09,0.11 -3.1,0.59 -5.13,3.59 -4.53,6.7 0.24,1.24 6.1,30.54 26.29,37.42 12.14,4.12 26.01,-0.66 41.32,-14.22 2.37,-2.1 2.59,-5.71 0.5,-8.09 -2.12,-2.36 -5.72,-2.57 -8.08,-0.48 -12.03,10.61 -22.09,14.66 -30.04,11.95 -11.6,-3.95 -17.46,-22.09 -18.74,-28.75 -0.53,-2.73 -2.93,-4.64 -5.63,-4.64"
         style="fill:#1c232a;fill-opacity:1;fill-rule:nonzero;stroke:none"
         id="path146" /><path
         d="m 2951,1398.16 c -2.29,0 -4.45,1.37 -5.33,3.63 -1.16,2.94 0.29,6.26 3.22,7.42 17.28,6.83 26.62,14.93 26.31,22.82 -0.32,7.95 -9.99,15.09 -16.84,17.2 -17.89,5.47 -41.4,60.72 -48.16,77.53 -1.18,2.93 0.24,6.27 3.16,7.45 2.92,1.17 6.28,-0.24 7.45,-3.18 12.92,-32.01 32.21,-68.21 40.89,-70.86 11.71,-3.58 24.42,-14.51 24.94,-27.68 0.36,-9.29 -5.16,-22.72 -33.54,-33.93 -0.69,-0.27 -1.41,-0.4 -2.1,-0.4"
         style="fill:#f89d95;fill-opacity:1;fill-rule:nonzero;stroke:none"
         id="path148" /><path
         d="m 2949.53,1302.11 c -31.73,0 -62.22,15.2 -63.85,16.03 -2.83,1.43 -3.94,4.88 -2.53,7.69 1.43,2.85 4.92,3.94 7.69,2.53 0.48,-0.24 47.3,-23.5 81.36,-11.17 33.68,12.18 42.39,44.7 42.48,45.03 0.79,3.05 3.86,4.89 6.97,4.12 3.06,-0.79 4.91,-3.92 4.12,-6.98 -0.4,-1.58 -10.38,-38.72 -49.67,-52.95 -8.54,-3.09 -17.6,-4.3 -26.57,-4.3"
         style="fill:#d67d2d;fill-opacity:1;fill-rule:nonzero;stroke:none"
         id="path150" /></g></g></svg>
